<svg id="Layer_1" data-name="Layer 1" xmlns="http://www.w3.org/2000/svg" viewBox="0 0 512 512"><defs><style>.cls-1{fill:#212529;}.cls-2{fill:none;}.cls-3{fill:#fff;}</style></defs><rect class="cls-1" x="-5.5" y="-12" width="525" height="535"/><path class="cls-2" d="M117.3,403.33c-5.24,5.3-10.5,10.75-15.91,16.06q-16.41,16.13-33,32.1c-3.22,3.11-7,2.57-9.67-1-1.57-2.08-1.64-4.18-.05-6.12,2.86-3.51,5.71-7.05,8.89-10.27,12.85-13,25.83-26,38.76-38.93.46-.46.89-.95,1.5-1.6-1.81-2.07-3.57-4.12-5.36-6.13-5-5.68-7.11-12.24-5.34-19.69a16.52,16.52,0,0,1,3-6.37c11.08-13.64,22.17-27.26,33.51-40.67q59.45-70.29,119.14-140.34a15,15,0,0,0,3.91-12.57c-3.24-29.81,5.32-56,25.61-78,16.3-17.74,36.6-28.45,60.52-31.1,60-6.64,104.93,37,110.12,87.48a98.84,98.84,0,0,1-82.75,108.08,102.12,102.12,0,0,1-28.37.42,11.68,11.68,0,0,0-9.64,3q-77.64,65.88-155.47,131.52c-8.63,7.29-17.38,14.44-26.13,21.59-6.17,5.05-16,5.57-22.61,1C124.36,409.3,121,406.32,117.3,403.33ZM439.84,154.9c-.16-1.85-.35-5.56-.81-9.24a71.65,71.65,0,0,0-1.65-9C423.41,83,366.55,57,317.51,80.25c-4.7,2.23-4.77,2.27-4,7.39,6.47,43.48,28.86,75.92,67.58,96.89a119.69,119.69,0,0,0,42.46,13.31c4.59.57,5.55,0,7.6-4.1C436.94,182.1,439.71,169.74,439.84,154.9Zm-46.63,77.23c-61.43-14.71-99.08-52.8-114-113.89-14.1,25.47-14.31,65.82,12.92,95.78C323.09,248.05,369,245.82,393.21,232.13Zm25.59-20.31c-65.64-13.74-105.07-53.58-119.41-119.3-2.16,2-4,4-6,5.72a5,5,0,0,0-1.73,4.55c1.64,23.23,9.56,44.27,22.92,63.14,21.94,31,52.34,48.19,89.67,53.59C410.92,220.49,415.17,218.14,418.8,211.82Z"/><path class="cls-3" d="M363.8,205.09c-.13-.1-.15-.16-.14-.22l-.39-.13Z"/><path class="cls-3" d="M401,211.28h.06a.56.56,0,0,1-.14-.2C400.82,211.19,400.82,211.19,401,211.28Z"/><path class="cls-3" d="M391.58,210.7a3.3,3.3,0,0,1-.41-.29C391.16,210.48,391.33,210.58,391.58,210.7Z"/><path class="cls-3" d="M368.44,207.57l-1.1-.76A1.68,1.68,0,0,0,368.44,207.57Z"/><path class="cls-3" d="M392.76,211.21c-.31-.15-.82-.32-1.18-.51A4.21,4.21,0,0,0,392.76,211.21Z"/><path class="cls-3" d="M410.64,210.19a2.39,2.39,0,0,0-.43.25s0,.07.06.1Z"/><path class="cls-3" d="M417.88,205.45c-.84-.11-1,0-.92.18A2.57,2.57,0,0,1,417.88,205.45Z"/><path class="cls-3" d="M398,199.94a3.7,3.7,0,0,0,.46,0C398.12,199.9,397.9,199.89,398,199.94Z"/><path class="cls-3" d="M408.63,206a.37.37,0,0,0,.1.23C408.82,206.2,408.81,206.12,408.63,206Z"/><path class="cls-3" d="M299.25,112.81v.56A.94.94,0,0,0,299.25,112.81Z"/><path class="cls-3" d="M298.36,102.06l-.05.06Z"/><path class="cls-3" d="M298.19,102.26l.12-.14C298.25,102.17,298.19,102.22,298.19,102.26Z"/><path class="cls-3" d="M411.78,210.36c0-.52.59-1.63.26-1.87a13.67,13.67,0,0,1-1.4,1.7C411.3,209.82,411.92,209.73,411.78,210.36Z"/><path class="cls-3" d="M340.43,159.92a8,8,0,0,0-1.3-1.21l1.32,1.26Z"/><path class="cls-3" d="M323.8,143.1l.08.06-.09-.11Z"/><path class="cls-3" d="M341.91,161a.85.85,0,0,0,.36.1C342,160.83,341.93,160.87,341.91,161Z"/><path class="cls-3" d="M358.24,204l-.45-.15A2.92,2.92,0,0,0,358.24,204Z"/><path class="cls-3" d="M324.13,144.75c-.13-.54-.22-1.1-.33-1.65l-.61-.46C322.67,142.61,323.6,144.19,324.13,144.75Z"/><path class="cls-3" d="M341.91,161a5.58,5.58,0,0,1-1.46-1l.32.83C342.15,162.3,341.85,161.33,341.91,161Z"/><path class="cls-3" d="M419.31,207.48c-.92-.52,2.6-.3.58-.86l-2.13.25c.4-.25-.64-.89-.8-1.24-.95.47,2.31,1.65-.24,2-.63.27-2.41-.21-3.29-.51,2,.58-.2.61-1.06.62-1.17-.58-3.18-1-3.64-1.53a4,4,0,0,1-1.84-.31v-.24c-1.51-.23.44.35,0,.47-1.08-.23-2.6-1.17-4.33-1.64a24.26,24.26,0,0,0,4.54.7c-3-1.29.86-.92,1.71-1.32-2.58-.42-3.64-.33-5.8-.55-2.35-1.18.67-1.51,1.31-1.41-2.35-.31-4.9-.45-6.19-.59,1.95-.29,1.74-.65,3.45-.84-1.62-1.06-2.18-.59-3.14-.54.52.08,1.31.27,1.44.5-2.1-.77-2.18.65-3.48.82-1.45-.91-4.36-2.15-3.88-2.82l-.28.8c-1.9-.49-.79-.77-1-1.13-.89.27-.34,1.39-3.49.37,1-1.07-2.68-1.21-2.09-2.35-1.43-.54-2.35-.18-3.75-1-1.31-1.35,2.9-.57,3.67,0,2,.86-.49.41.32.75.69.18,1.39.33,2.09.47-1-.65-3-1.89-2.48-2.29-2.05-.62,1.33,1.23-.94.59l-1.16-.86c-2.26-.66,0,1.11-2.79,0,2.09.35-3-1.44-2.42-2.18-.65,1-4.89-2.39-5.89-1.87l1.31,1-.08-.61c1.58.78,3,1.25,4.53,2.19-1.48-.25,0,1.07-1.65.67-3.1-.87-.46-.93-.86-1.13l-2.49-.63,1.27,1.22c-.91-.37-2-.86-3.08-1.42s-2.25-1.28-3.4-2c-3.08-2.61.71-.26-1.37-2.3-1.2-.47-1.09-.06-2.56-1.1.64.79,1.54.81,2.08,1.21.36,1.08-2.91-1.45-3.12-.78-.49-.63-.21-.79.45-.72a20.89,20.89,0,0,1-3.56-2.33,5,5,0,0,1-1.84-2.29l-1.56-.08c-4-3.36,3.3,1.48.16-1.57a14.66,14.66,0,0,0-3.59-2.43l1.18,1c-1.21-.38-1.35-.06-3-1-1-.94-.07-.89-1.61-1.61-2.76-3.11-.05-1.83,1-2-1.91-2.3,2.21-.26.48-1.3l.27.5L348.16,171c1.51,2.63,1.45.09,1.66,1.57l1.24,1.2c-.72,0-3.5-2.88-4.12-2.74.17-.23.93-.41,2.3.74l-.08-1.51c-.7-.75-1.65-.72-1.74-1.46-.61-1.56,2.36.73-.12-2a9.39,9.39,0,0,0-2.93-2.31,5.77,5.77,0,0,1-2.25-1.66c0,.37.51.84,1.07,1.48-.88-.4,0,.94-1.25.05-.1-1.08-2-3.23-3.49-4.86.68.17.05-1.13.68-.77a6.92,6.92,0,0,0-2.07-1.66c2.41,3.81-3.22-3-1.59.17a12.35,12.35,0,0,1-1.94-3.15c-.35-.83-.57-1.56-1.06-2.53.27,0,2.77,2.93,1.17.28-2.74-2.4-.5,1.16-2.86-.57.34.68.74,1.33,1.12,2-.29.38-.94-.35-1.55-1.27a16.88,16.88,0,0,0-1.42-2.15c-.6-1.29,1.32,1.45,1.07,0-1-1.82-2.1-2.36-2.51-3.68a11.54,11.54,0,0,1,1.84,1.11c-2.62-4.07.74-.2-.9-3.51-.72-.93-.82,0-1.68-1.68,0,1.3-.26,1.29,1.36,3.89-1.41-.38-2-3.52-3.54-5.09a8.2,8.2,0,0,0,1.17,2.1c-.57.64-.33,1.32-1.86.23,1.22,1.64,2.49,1.88,3.82,4.45-.28,1.13-2.45-2.64-3.4-2.1-1.28-.92-2.62-4.26-3.09-5.83-1-1.09-1.86-2.41-2.76-3.63a18,18,0,0,0-2.64-3.18,12.08,12.08,0,0,0-.87-1.88l-1.34-2.5c-.48-.9-1-1.85-1.47-2.82a30.43,30.43,0,0,1-1.15-2.89,7.16,7.16,0,0,0-.49-2.31c-.21-.81-.28-1.26.38-.23-.26-.26-1.47-3.28-1.59-2.33.27.26.27.65.54,1.3l-.78-.38c-.42-1.86-1.89-3.6-2.1-5.46.27-.71,1.38,3.14,1.53,1.8a17.88,17.88,0,0,1-2.58-4.81,28.92,28.92,0,0,1-1.64-5.55c-.31-1.5.4-1.89.31-2.52l-.72-2.45c.16-.36.43-.47.61-1a9,9,0,0,0-.91-2.75c-.28-3.36.72-1.76,1.59-.23l.19,1.88c.68,1.24,1,3.15,1.41,1.88-.32-.9-.58-.79-.82-1.08l.1-1.15c-.55-1-1.39-3.94-1.83-3.5a14.69,14.69,0,0,0-.38-2.33L302,83.84l-5.75,5.41a23.18,23.18,0,0,1-3.35,2.93c1.22-.69.11.66.68.69l1.86-1.53-1.69,1.91c-.3.33-.61.67-.92,1l-.48.48-.71.66c-.5.44-1,.85-1.4,1.21-.06-.4-.12-.61-1.21.28.77-.62.11.4-.15,1.28-.13.45-.18.84-.1.9s.28-.21.87-1a7.66,7.66,0,0,1,2-2.68l.85-.78c.65,0,.5.41-.23,1.35a10.11,10.11,0,0,0-1.08,1.65A6.28,6.28,0,0,0,290,101a15.85,15.85,0,0,0,.47,3.93c0,1.3-.87,1.77-.1,3.92.35-2.87,1.45,2.51,2.28,3.1,0,2.13,1.1,3.28.87,5-.45-.79-.92-4-1.59-4.74-.5,0-1.28.93-1.93-2.27.1,2,.32,2.51.53,2.79a2.23,2.23,0,0,1,.69,1.17L291,112.6c.3.57.5-.62.7.55s.2,2,.24,2.8.08,1.4.07,2c0,1.18-.14,2.2-.09,3.78.21-.75.87.55,1.06,1.25.23,3-1.08.22-1.38,2.2.73.89,1.13,2.9,1.31,2.13.32,1.15,0,.61,0,1.47a6.35,6.35,0,0,1,1.6,3c-.25-.07-.64-.19-1-1.74.34,1.74-.2,2.61-.83,2l-.58-2.88c-.89-1.12.57,2.67.06,2.71-.49-1.2-.49-2.22-.83-3-.32.94,1,3.22,1.44,4.62.68,2.25-.11,1.61-.37,1.74,2.12,3.49-.56-4.68,1.43-1.43a10.79,10.79,0,0,1,1.57,2.94l1.6,3.77c-.08-2.25,1-.14,2.24,2.07-1.27-3,.41-1.08-1.42-4.49l.51-.27c.29.76.55,1.61.81,2.47s.57,1.69.89,2.44c-.28-.25-.25.15-.55-.3.7,1.47,1.46,2.91,2.24,4.34l-.56-.29c.59,1.38,1.23,2.94,1.85,4.34a18.81,18.81,0,0,0,1.76,3.37c-.76-1.25-.86-2.61,0-1.36a14.83,14.83,0,0,1,2.28,3.11c-.21.95,2.46,5.4.21,2.93a21.92,21.92,0,0,0,2.17,2.69c.46.46.86.94,2.18,2.49-.57-.71-1.1-1.43-1.63-2.16.26-.57,2.2.82,1.1-1.52,1.9,2.34,1.63.24,4,3.46.65,1.52-1.15.22-2.54-1.57a9.24,9.24,0,0,0,1.91,2.73c.13,1-1.84-1.33-1.93-1.14,1.15,1.73.22-.19,1.45,1.34,2.47,2.43.56,2.28,2.82,4.7-.45-.56-1.08-1.68-.37-1.14,2.64,3.52,1.85,1.68,4.08,4,.56,1.87-.59,1.79,1.13,4.15l-1-1.26a9.44,9.44,0,0,0,1.92,3.1,70.56,70.56,0,0,0,6.81,5.38l3.47,2.46c1.21.8,2.43,1.63,3.69,2.53l-1.79-1.31c-.38-.69,1.6,1,1.76.73l.81,1.17c.64-.18-2-2.44-1-2.31a2.24,2.24,0,0,0,.64.62l-.84-1a21.34,21.34,0,0,0,3.08,2.38,6.8,6.8,0,0,1,2.44,2.32c-2.21-1.68-2.64-1.49-3.07-1.29s-.87.45-3-1.27c2.34,1.76,0,.79.07,1.17,1.1,1.11.83.2,2.05,1.45-.32.33-3.35-1.91-2.3-.57.55-.36,1.63.78,2.51.9.9.92-.28.29,0,.79.58.42,1.08.47,1.54.94h-.63c1.25,1.34,1.56,1.39,1.94,1.45s.8.15,2.44,1.38c.4-.36-.72-.94-2.1-1.93,0-.73,1.2-.11,2.5.41s2.66,1.09,2.87.5c3.21,2-1.09-.2,1.38,1.92,1.05,1.67-2.41-.7-3.41-.74l2.51,2.36c-1.49.15-3.05-1.34-4.08-1,2.08,1.51,2,1.15,4.3,2.34-3-3,1.83.53.4-1.63a14.4,14.4,0,0,0,3.23,2.58c-1.63-.76-.49.65-2.5-.59,1.63,1,2.26,1.28,2.88,1.59s1.22.66,2.91,1.53c1.38,0-2.87-2.63,1.34-.87.85.47.56.61.06.33,2.69,1.8-.16-1.08,1.78-.41,1.26.6,1.57,1.09,1,1,2,.67,1.2-.26,2.52.21l-.53-.35c.62.07-.37-1.51,2.32-.25,1.95,1,1.17,1,1.11,1.24a13.76,13.76,0,0,1,3.68,1.94c0-.17.13-.24.6-.05,2.73.92,1.29,1.19,2.24,1.7,1.84,1,1.84.62,1.91.25s.21-.75,2.36,0c-1.65-.64-3.23-1.41-4.82-2.17.33-.22.64-.65-.41-1.08-.15.21-.69.24-1.4.12a8.29,8.29,0,0,1-1.16-.3,7.92,7.92,0,0,1-1.19-.54c-.1-.39,1,0,1.89.19s1.45.24.23-.63c.93.51,2.33.92,3.51,1.48-.72,0,.22.47,1.06.87s1.59.72.4.65c2.71.93,4.23,1.55,5.71,2.12a39.71,39.71,0,0,0,5.54,1.54,8.29,8.29,0,0,1-2.57,0,11.68,11.68,0,0,1-4.05-1l-.09-.41c-3.38-.8,2.38,1.32,1.62,1.63a26.36,26.36,0,0,1,6.76,1.88c1.18.4,2.39.84,3.62,1.23.62.2,1.25.38,1.88.55s1.29.26,1.94.35c-.83-.5.23-.47.52-.75-2.08-.37-1.76-.12-3.15-.92.38-.34,1.56.11,2.28-.07.64-.37-1.55-.32-2.19-.8a7.36,7.36,0,0,0,3.05-.05c1,.61.79.8,1.53,1.4a14.4,14.4,0,0,0,4.49.54,13.74,13.74,0,0,1,3.8.35c-2.15-.46.94.66-1.39.11l1.29.28c-1.73.06-4.07-.11-5.9-.24s-3.2-.15-3,.49a32,32,0,0,0,3.91.37,32.23,32.23,0,0,1,4.38.35l-.18.2c2.44.45,0-.29.62-.4a6.18,6.18,0,0,1,1.73.28,9,9,0,0,1,1.1.44,2,2,0,0,0,2,0,13,13,0,0,1-2.37-.23c1.85-.34-.52-.12,0-.87a12.38,12.38,0,0,0,4.95-1,7.21,7.21,0,0,0,2.17-1.75,11.65,11.65,0,0,0,1.76-2.81,17.18,17.18,0,0,0-2.21,2.22c-.35-1.2.07-1.44-1-1.57a3.89,3.89,0,0,1-.49.5,4,4,0,0,1-.47.4l-.63-.74a3.49,3.49,0,0,1,.72-.5c-.17-.29.18-.6.57-1.05s.77-1,.55-1.18a7.32,7.32,0,0,1-.36.64c-.12.2-.24.42-.36.58-.38.09-.34-.14-.16-.51.09-.21.22-.44.35-.69s.27-.55.37-.79c-1,.6-1.71,2.66-2.35,3.09.13.13.13.47.16.71s.1.47.55.2c.23.35-.21.89-.6,1,.06-.13-.23-.32-.39-.54a.54.54,0,0,1,0-.77c-.2.33-.33.34-.41.35a1.55,1.55,0,0,0-.22,0,4.89,4.89,0,0,0-.56.13c.08-.14-.47-.1-1.2-.22s-2-.51-1.76-.89c-.93.21-.14,1.24-3.35.75.68.7,4.25,1.38,1.75,1.6l1.62-.12c.55.16.8.27.83.34s0,.15,0,.22-.06.3,1,.51l-1.3-.05c-.59-.08-1.13-.19-1.29-.43.57,1.35-4.47-.12-4.78.75a6.55,6.55,0,0,0-3.06-.93c.29-.28-.53-.79.76-.75,1,.32,1.77.36,2.87.81-.43-1.26-4.07-1.23-6.67-2,.34.18.43.32-.35.33-1.58-.54-5-1.71-3.88-2-2.71-.59-5.33-1.42-8-2.18.06-.28,1.17.24,1.68.3L380,207c-.73-.24-1.44-.53-2.16-.79-.88-.74,1.59.17,2.15,0L376.9,205l.57-.2a11.77,11.77,0,0,1-2.63-.75,5.71,5.71,0,0,1-2.42-1.47,15.74,15.74,0,0,0-3.72-.79,10.89,10.89,0,0,1-4.3-1.88c.44-.48,2.58,1,3.77,1.13-.76-.61-3.56-1.47-3.73-2.22a7,7,0,0,0-3.17-.58,5.79,5.79,0,0,1-2.06.15c-2.55-1.36,0-.61,0-.82-.72-.46-2.54-.1-2.76-1.26-1.41-.34-2.37-.31-.71,1a12.69,12.69,0,0,0-3.81-1.71c1.58-.12-1.32-1.22-1-2-.91-.74-2.38-1.89-3.92-2.91a15.56,15.56,0,0,0-4.23-2.35l1.13-.38-2.2-1.59c-1.18-1.74,2.27,1,3.37,1.77-1.38-1.2-2.62-2.09-3.73-3.08l-3.45-3c.58.79,0,.57.15,1.1a5.23,5.23,0,0,1-1.6-1.12,16.47,16.47,0,0,0-1.41-1.38c0-.37.23-.43.94.16l-1.72-1.5c.57-.32-.23-1.08,1.66.19l-1.63-1.33c-1.53-1.72.44-.28,1,0-.84-.88-1.71-1.71-2.48-2.65-1.13-.73.1.93-1.73-.81-.93-1.43-2.19-2.86-3.39-4.43L325.77,168l-.93-1.16-.83-1.2c.38.85.77,1.68,1.21,2.49-.69-.94-1.13-1.18-1.5-1.22s-.7.13-1.09,0c-.6-.9-1.35-1.92-2.06-2.93-.36-.5-.7-1-1-1.46a13.92,13.92,0,0,1-.76-1.36c1.57,1.44,1.67.31.94-1.51-1.2-1.8-1.82-2.36-2.4-2.68a4.88,4.88,0,0,1-1.85-1.35c1,.47.7-.22.25-1s-1.06-1.77-.66-1.75a110.2,110.2,0,0,1-7.9-14.68c-.12.17.35,1.74-.21.9-1-1.85-.87-3-.76-3.33a18.37,18.37,0,0,0-2.58-4.54c.5,1.07.37,1.23,0,1.14-1-2.53,0-2.08-1.27-4.36.44-.84,1.15,2.63,1.7,2.19a30.83,30.83,0,0,0-2.14-5.21c.3-.49.51,1.51.5.15-1.33-3.45-2.61-7.73-3.36-10.43l.43-.84a16,16,0,0,0-1-3.67c.1-1,.32-.25.52.65-.27-2.37-1.05-5.23-1.19-6.58.35.18.17,1.35.48,1.71,0-.37-.06-.76-.11-1.15a5,5,0,0,0-.16-.93,5.69,5.69,0,0,1-.3-.85.83.83,0,0,1,.75-1.12.3.3,0,0,1-.11.25c.11-.1.22-.2.32-.31l2.19-2.21,2.62-2.71-9.92-3c.44,1.58.9,3.24,1.34,5,.52,4.8,1.2,1.29,2.31,5.85-1.47.44,1.68,6.19,2,8.14v-.66c1.31,2,1.75,5.23,2,6.89a52.5,52.5,0,0,0,5,11.25l-.57-.51c1.55,2.49,1.83,4.37,3.5,6.81-.14,0-.78-.93-.38.14a108.93,108.93,0,0,0,10.68,18.39,177.37,177.37,0,0,0,13.44,16.5,131.75,131.75,0,0,0,34.14,27,149,149,0,0,0,40.21,14.94s.86-.18,2.1-.5a41,41,0,0,0,4.46-1.38C417,210.48,419.92,208.9,419.31,207.48Z"/><path class="cls-3" d="M355.47,203.48l-.31-.21A2.43,2.43,0,0,0,355.47,203.48Z"/><path class="cls-3" d="M312.07,161.54a8.17,8.17,0,0,0,.49.71A5.61,5.61,0,0,0,312.07,161.54Z"/><path class="cls-3" d="M291.25,113.91l.23,1.08A9.59,9.59,0,0,0,291.25,113.91Z"/><path class="cls-3" d="M322.41,141.28c.17-.55,1.87.85,1.3-.86a18.64,18.64,0,0,0-1.75-2.61,4.06,4.06,0,0,0-1.12-.9,3.89,3.89,0,0,1-1.12-.94,11.51,11.51,0,0,1-1.66-2.82c.33,1.06.67,2.12,1.05,3.15.6-.5,2,1.34,3.29,3.49l-.09.93a12,12,0,0,1-1.05-1C321.68,140.59,322,140.22,322.41,141.28Z"/><path class="cls-3" d="M321.17,139.52l0,.16.05.06C321.23,139.67,321.2,139.61,321.17,139.52Z"/><path class="cls-3" d="M334.76,236.79c-.16-.07-.18-.13-.18-.19l-.4,0Z"/><path class="cls-3" d="M370.88,232.24l.06,0c-.07,0-.17-.07-.2-.14C370.7,232.21,370.7,232.21,370.88,232.24Z"/><path class="cls-3" d="M362.25,234.83c-.16,0-.32-.08-.46-.13S362,234.8,362.25,234.83Z"/><path class="cls-3" d="M339.74,238.17c-.4-.15-.8-.3-1.21-.49A1.55,1.55,0,0,0,339.74,238.17Z"/><path class="cls-3" d="M363.49,234.94c-.33-.05-.85-.07-1.24-.11A6.09,6.09,0,0,0,363.49,234.94Z"/><path class="cls-3" d="M386.39,227c-.24,0-.49.1-.76.17,0,0,0,.09,0,.14Z"/><path class="cls-3" d="M392.51,225.71c-.83-.14-1-.05-.92.15A2.53,2.53,0,0,1,392.51,225.71Z"/><path class="cls-3" d="M372.93,219.68a2.35,2.35,0,0,0,.45,0C373.07,219.65,372.85,219.62,372.93,219.68Z"/><path class="cls-3" d="M383.3,226a.35.35,0,0,0,.09.23C383.48,226.24,383.47,226.16,383.3,226Z"/><path class="cls-3" d="M280.52,140.27v.56A2.6,2.6,0,0,0,280.52,140.27Z"/><path class="cls-3" d="M277.38,143.54l0,.08Z"/><path class="cls-3" d="M277.31,143.78c0-.05,0-.11.05-.16S277.3,143.72,277.31,143.78Z"/><path class="cls-3" d="M387.55,227.56c.4-.54,1.64-1.34,1.48-1.7-.87.4-1.73.8-2.64,1.15C387.44,226.83,388.13,227,387.55,227.56Z"/><path class="cls-3" d="M317.09,178.12a7.44,7.44,0,0,0-1.23-1.26l1.25,1.32Z"/><path class="cls-3" d="M301,161l.08.06-.09-.11Z"/><path class="cls-3" d="M318.49,179.27a.88.88,0,0,0,.36.11C318.59,179.1,318.52,179.13,318.49,179.27Z"/><path class="cls-3" d="M329.16,236.86l-.46-.05A2.26,2.26,0,0,0,329.16,236.86Z"/><path class="cls-3" d="M301.29,162.64,301,161l-.61-.46C299.85,160.5,300.79,162.05,301.29,162.64Z"/><path class="cls-3" d="M318.49,179.27a5.36,5.36,0,0,1-1.38-1.09l.27.84c.64.79.91.93,1,.83S318.45,179.44,318.49,179.27Z"/><path class="cls-3" d="M393.85,227.8c-.9-.55,2.59-.21.6-.84l-2.11.17c.4-.23-.61-.92-.75-1.27-.95.43,2.23,1.74-.3,2-.64.24-2.37-.31-3.24-.64,1.95.66-.21.59-1.07.61-1.15-.6-3.15-1-3.59-1.57a3.52,3.52,0,0,1-1.81-.39v-.23c-1.49-.3.42.37,0,.47-1.06-.28-2.54-1.28-4.24-1.81a24.42,24.42,0,0,0,4.48.87c-2.95-1.4.88-.91,1.72-1.24-2.52-.56-3.58-.47-5.71-.79-2.28-1.25.72-1.49,1.35-1.36-2.31-.43-4.88-.52-6.16-.69,2-.27,1.77-.63,3.48-.8-1.59-1.07-2.16-.6-3.12-.58.52.1,1.3.29,1.42.52-2.08-.76-2.17.57-3.47.7-1.4-1-4.25-2.31-3.75-3l-.3.79c-1.87-.54-.76-.78-.93-1.15-.89.27-.38,1.37-3.51.35,1-1-2.57-1.38-2-2.47-1.4-.59-2.32-.26-3.68-1.09-1.25-1.39,2.89-.47,3.63.13,2,.92-.5.39.29.76l2,.57c-.94-.75-2.85-2-2.35-2.41-2-.68,1.27,1.28-.95.56l-1.12-.89c-2.23-.73,0,1.07-2.79-.11,2.11.35-3-1.42-2.33-2.22-.65.93-4.75-2.57-5.76-2.09l1.26,1-.05-.61a36,36,0,0,1,4.39,2.37c-1.43-.34,0,1.08-1.64.58-3-1-.42-.95-.81-1.16l-2.45-.71,1.22,1.26c-.89-.4-1.91-.92-3-1.51a29.93,29.93,0,0,1-3.34-2c-2.9-2.78.74-.26-1.24-2.38-1.18-.5-1.08-.09-2.52-1.16.62.8,1.51.84,2,1.26.31,1.08-2.85-1.53-3.09-.87-.45-.63-.17-.79.48-.7-2.71-1.39-4.86-3.39-5.2-4.77l-1.56-.12c-3.83-3.44,3.25,1.56.22-1.55a14.52,14.52,0,0,0-3.53-2.47,13.84,13.84,0,0,0,1.15,1,6.49,6.49,0,0,1-3-1.12c-.93-1,0-.92-1.53-1.67-2.67-3.15,0-1.82,1-2-1.84-2.33,2.22-.22.52-1.29l.26.51-3-1.23c1.43,2.65,1.45.12,1.61,1.59l1.2,1.22c-.72,0-3.39-2.95-4-2.79.17-.23,1-.42,2.28.76l0-1.5c-.67-.77-1.7-.69-1.73-1.45-.53-1.6,2.27.84,0-2.07-2.5-3.06-3.32-2-5-4.09,0,.36.49.84,1,1.48-.87-.4,0,.94-1.25,0a4.92,4.92,0,0,0-1.19-2.21c-.62-.91-1.42-1.89-2.1-2.74.66.2.09-1.14.69-.75a6.45,6.45,0,0,0-2-1.69c2.34,3.82-3.16-3-1.59.15a19.07,19.07,0,0,1-1.23-1.77,8.64,8.64,0,0,1-.63-1.4c-.31-.85-.5-1.59-.94-2.59.26,0,2.6,3,1.14.32-2.61-2.48-.52,1.14-2.82-.63l1,2c-.6.76-2.38-3.1-2.88-3.47-.58-1.27,1.31,1.46,1.07,0-1-1.81-2.08-2.35-2.42-3.7a18.85,18.85,0,0,1,1.79,1.15c-2.47-4.13.73-.16-.77-3.53-.68-.95-.79,0-1.6-1.72,0,1.28-.3,1.28,1.2,3.94-1.37-.42-1.8-3.61-3.39-5.16a8.83,8.83,0,0,0,1.16,2.1c-.59.62-.35,1.29-1.87.19,1.2,1.64,2.4,1.94,3.62,4.55-.31,1.13-2.31-2.72-3.27-2.2-1.19-1-2.57-4.25-3-5.83-1.83-2.22-3.37-5.33-5.21-6.88a14.35,14.35,0,0,0-.85-1.87c-.35-.75-.78-1.61-1.24-2.52-.22-.46-.46-.92-.69-1.4l-.35-.72-.37-.79a33,33,0,0,1-1.44-3.69,21.64,21.64,0,0,0-.72-3.27c-.27-1.17-.41-1.92.29-.56-.27-.33-1.69-4.57-1.6-2.8a7,7,0,0,1,.6,1.73,4.61,4.61,0,0,0-.64,0,16.59,16.59,0,0,0-1.2-3.36,12.82,12.82,0,0,1-1.12-3.36c0-1.76,1.48,3.56,1.3,1-.58-.36-1.65-2.4-2.48-4.67a48.66,48.66,0,0,1-1.87-6.91l-.12-.63c-.34-1.35-.36-3.24-.55-3.65-.31-.23-.61-.48-.91-.74,0-.09,0-.16,0-.24l-.05-.12-.09-.28a.71.71,0,0,0-.28-.44,18.12,18.12,0,0,0-1.61,3.72c-1.95,2.8-1.12-.22-.11-3.34l1.17-1.78c.2-.59.43-1.17.65-1.71.11-.26.22-.55.31-.75l.19-.21a1.32,1.32,0,0,0,.07-1.36,1.38,1.38,0,0,0-.25.36,5.38,5.38,0,0,0-.18.64c-.1.41-.14.75-.24,1.13l-.71.54c-.69,2-2.56,6.12-2.23,6.66a28.25,28.25,0,0,0-1.9,3.75,33.77,33.77,0,0,1-1.78,3.57c.81-1.09.07,1.28.44,1.43.38-.84.77-1.66,1.2-2.45-.48,1.18-.92,2.72-1.39,4.13a17.38,17.38,0,0,1-1.45,3.46c-.1-.67-.15-1-.73-.26.39-.53.15.75,0,1.76s-.16,1.77.51.43c.07-.36.13-.72.2-1.08s.18-.65.28-1c.21-.64.46-1.29.76-2,.73.08-.1,2.5-.3,4.28-.36,1.89-1.11,5.33-1.39,7.73a7.25,7.25,0,0,1-.73,1.42,5.65,5.65,0,0,0-.47,2.62c.6-1.45.71-.49.79.79,0,.64,0,1.37.13,2a3.43,3.43,0,0,0,.38,1.31c-.48,2.06.27,3.41-.4,5.05-.24-.87.11-4.07-.36-4.95-.25-.09-.6.06-.89-.18a1.36,1.36,0,0,1-.35-.82,7.06,7.06,0,0,1,0-2.14,11.17,11.17,0,0,0-.36,2.42,1.93,1.93,0,0,0,.11.87,2.1,2.1,0,0,1,.38,1.3l.05-1.33c.15.62.64-.47.55.7a67.75,67.75,0,0,1-1.79,8.38c.38-.69.7.72.72,1.45-.33,3-1.1,0-1.77,1.84.54,1,.51,3.09.84,2.37.08,1.19-.16.59-.26,1.45a5.43,5.43,0,0,1,.59,1.28,9.31,9.31,0,0,1,.42,2c-.24-.12-.6-.31-.68-1.9,0,1.78-.64,2.53-1.17,1.81,0-1-.08-2,0-2.95-.3-.64-.32,0-.33.89s.13,1.82-.14,1.8a7.32,7.32,0,0,1-.17-1.73,5.57,5.57,0,0,0-.06-1.38,3.56,3.56,0,0,0,0,2.21c.19.91.46,1.9.59,2.64.22,2.36-.43,1.58-.71,1.66,1.39,3.86.37-4.75,1.68-1.16a12.74,12.74,0,0,1,1,3.19l1,4c.28-2.23,1,0,1.85,2.41-.75-3.2.61-1-.66-4.66l.55-.18c.16.79.28,1.67.4,2.56a14.4,14.4,0,0,0,.48,2.55c-.25-.29-.27.11-.51-.38l1.62,4.59-.51-.36c.22.72.35,1.52.6,2.27l.71,2.26a23.86,23.86,0,0,0,1.31,3.57c-.57-1.34-.49-2.72.21-1.36.28.36.59.89,1,1.47a12.11,12.11,0,0,1,1,1.83c-.3.92,2,5.6-.05,2.94.54.91.88,1.52,1.19,1.94s.53.66.75.91a32.19,32.19,0,0,1,2.05,2.6l-1.51-2.24c.3-.54,2.18.93,1.19-1.43,1.79,2.41,1.66.31,3.73,3.63.53,1.56-1.14.17-2.39-1.7a9,9,0,0,0,1.7,2.84c.06,1-1.73-1.42-1.82-1.24,1,1.8.22-.18,1.33,1.42,2.41,2.46.49,2.27,2.67,4.74-.43-.57-1-1.7-.32-1.15,2.5,3.59,1.78,1.71,4,4,.55,1.85-.59,1.78,1.14,4.13l-1-1.25a9.43,9.43,0,0,0,1.93,3.09c4.65,4,9.14,6.45,14.42,9.54-.64-.37-1.27-.74-1.87-1.14-.43-.66,1.63.85,1.79.57l.91,1.06c.62-.24-2.18-2.19-1.2-2.16a2.13,2.13,0,0,0,.69.54c-.3-.29-.61-.56-.9-.87a19.77,19.77,0,0,0,3.24,2,6.88,6.88,0,0,1,2.61,2.05c-2.33-1.42-2.74-1.2-3.14-1s-.8.51-3.12-1c2.5,1.5.07.78.17,1.15,1.2,1,.87.09,2.17,1.24-.25.31-3.52-1.56-2.33-.35.52-.4,1.7.6,2.57.66,1,.83-.25.32.12.78.62.37,1.12.36,1.61.78l-.61.06c1.37,1.21,1.69,1.22,2.08,1.22s.86,0,2.58,1.07c.35-.39-.79-.9-2.31-1.65-.08-.7,1.21-.31,2.54.08s2.74.73,2.87.13c3.41,1.53-1.1,0,1.61,1.7,1.26,1.47-2.48-.33-3.47-.25l2.8,2c-1.44.38-3.2-.88-4.17-.38,2.28,1.2,2.09.91,4.6,1.69-1.75-1.21-1.24-1.19-.57-1s1.6.3.73-.62c1.63,1,1,1,3.55,2.07-1.73-.47-.38.73-2.55-.22a18.85,18.85,0,0,0,3.1,1.13c.67.17,1.32.43,3.12,1,1.33-.27-3.26-2.1,1.15-1.08.92.31.66.5.12.31,2.93,1.32-.34-1,1.66-.71,1.34.33,1.74.73,1.14.72,2.11.23,1.14-.54,2.49-.29l-.57-.27c.61,0-.64-1.38,2.18-.68,2.06.53,1.32.74,1.32,1a12.28,12.28,0,0,1,3.95,1.08c-.09-.16.06-.25.56-.17,2.82.25,1.5.85,2.53,1.12,4,.89-.31-1.31,4.13-.79-1.71-.29-3.41-.55-5.09-.94.27-.29.46-.78-.63-1-.19.51-2.07.59-3.74.14-.35-.68,4.63.31,1.94-.92,1,.34,2.42.37,3.65.65-1.36.46,4,.68,1.74,1.08,1.4.15,2.49.27,3.43.35s1.73.21,2.5.25,1.53.1,2.42.11,1.91-.06,3.19-.16a7.78,7.78,0,0,1-2.4.78,12.12,12.12,0,0,1-4.09.11l-.19-.37c-1.7.06-1.06.22-.06.43s2.35.39,2,.69a22.34,22.34,0,0,1,3.32-.25c1.15,0,2.34.08,3.57.14a33.57,33.57,0,0,0,7.6-.27c-.94-.24.06-.52.23-.89-2,.31-1.67.39-3.2.14.24-.47,1.47-.43,2.08-.81.47-.54-1.53.15-2.27,0a8.33,8.33,0,0,0,2.79-1c1.09.25,1,.49,1.86.81,4.75-.64,4-1.44,7.8-2.11-2.08.41,1.09.27-1.2.63.42-.07.84-.14,1.26-.24a38.85,38.85,0,0,1-5.42,1.89c-1.72.54-3,1-2.62,1.51.68-.12,1.31-.27,1.92-.43l1.81-.59c1.21-.38,2.47-.86,4.1-1.22l-.08.25c2.35-.55-.1-.27.4-.61,2.5-1,3.68.18,5.23-1.15l-2.69.61c1.86-1.05-.61.09-.34-.8,3.35-1.5,9.46-3.23,13.58-6.21a14.07,14.07,0,0,0-3.55,1.27c.33-1.32,1.05-1.5-.15-1.93-.67.32-1.36.61-2.06.88l-.41-.88a12,12,0,0,1,1.63-.59c0-.34.77-.66,1.52-1s1.45-.65,1.37-.94c-.53.3-1,.63-1.58.92-.52,0-.28-.26.21-.59s1.21-.77,1.73-1.14c-1.36,0-3.42,1.91-5.88,2.94.33.26-1.9,1.93.56,1,.13.4-1.26,1.17-2.24,1.55.43-.38-2.26-.29-.1-1.42-2,1.24-1,.36-3.34,1.41.13-.18-1,.14-2.07.4s-2.28.37-2.24-.06c-.72.53.37,1.24-2.63,1.92a7.89,7.89,0,0,0,2.17.17c.69,0,1,.11,0,.7l1.37-.75c2.16-.28-.42.77,2.38.24-.8.22-2.38.92-2.84.62,1,1.05-4,1.55-4,2.41-.7-.26-1.53-.11-3.09.21.16-.36-.75-.57.43-1a17.11,17.11,0,0,1,2.86-.25c-.42-.55-1.43-.47-2.67-.23a25.56,25.56,0,0,1-4,.56c.37.06.49.17-.21.42-1.62,0-5.14,0-4.16-.66a78.67,78.67,0,0,1-8,.19c0-.29,1.14,0,1.63-.15-1.48-.06-3-.12-4.44-.26-1-.47,1.53-.25,2-.64-1.06,0-2.11-.12-3.17-.21l.48-.34c-.8.22-4.46-.11-5.22-.87a17.25,17.25,0,0,0-3.66.08,9.6,9.6,0,0,1-4.44-.87c.33-.56,2.63.46,3.79.25-.86-.36-3.65-.63-4-1.32-3.3-.58-3.28.59-5,.65-2.66-.89-.12-.61-.17-.81-.75-.32-2.44.35-2.83-.74-1.4-.07-2.33.13-.53,1.08a18.49,18.49,0,0,0-2.32-.74,5.45,5.45,0,0,0-1.61-.29c1.49-.34-1.42-1.05-1.24-1.79-2-1.13-6.22-3.65-8.49-4l1.07-.51c-.75-.45-1.53-.86-2.26-1.33-.63-.82-.07-.61.79-.13s2.06,1.17,2.62,1.5c-1.46-1-2.71-1.77-3.86-2.61l-1.76-1.22-1.79-1.38c.6.74,0,.56.2,1.08-1.13-.35-2.15-1.52-3.08-2.2-.05-.36.2-.44.93.09L303,215.81c.54-.35-.27-1,1.64.06L303,214.7c-1.5-1.66.4-.28,1-.11-.87-.78-1.65-1.64-2.48-2.46-1.14-.62.11.92-1.72-.68-.93-1.37-2.16-2.73-3.31-4.25l-1.8-2.22a17,17,0,0,1-1.69-2.26,21.07,21.07,0,0,0,1.14,2.4c-1.32-1.8-1.78-.88-2.53-1.18-.56-.89-1.26-1.9-1.91-2.89a14.71,14.71,0,0,1-1.61-2.77c.69.75,1.15.8,1.28.49a3.73,3.73,0,0,0-.23-1.94c-2-3.62-2.48-2.18-3.9-4.08,1.87,1.07-.88-2.82-.1-2.74a73.29,73.29,0,0,1-5.89-14.9c-.18.15.09,1.71-.36.83-.65-1.93-.32-3-.15-3.31a23.23,23.23,0,0,0-1-3,8.91,8.91,0,0,0-.75-1.74c.26,1.11.1,1.24-.26,1.08-.45-2.6.47-2-.43-4.39.57-.71.7,2.71,1.3,2.39a20.42,20.42,0,0,0-.53-2.91c-.19-.84-.35-1.61-.57-2.44.4-.41.19,1.53.46.24a83.15,83.15,0,0,1-1-10.59l.61-.69c.06-.86.09-1.57.07-2.18a2.31,2.31,0,0,0-.06-.67,1.34,1.34,0,0,0-.14-.34c.12-.14.21-.13.28,0a.42.42,0,0,1,.08.15,1.88,1.88,0,0,1,0,.28,3.79,3.79,0,0,0,0-.64,4.7,4.7,0,0,0-.05-.63,11.49,11.49,0,0,1-.08-1.15c.29.36,0,.5.2.82a9.16,9.16,0,0,0,0-1.86c0-.73,0-1.47.42-1.19a.92.92,0,0,1,0,.43c.24-.65.35-1.46.58-2.39a15.32,15.32,0,0,1,.89-2.87c.4.28.42-.5.48-1.53,0-.81.08-1.82.35-.71a14.06,14.06,0,0,0,.1,2.61,1.37,1.37,0,0,0,.39.74,1.48,1.48,0,0,1,.35.88v-.7c.2-.18.44.42.57,1.15a12.3,12.3,0,0,1,.17,2.16,14.65,14.65,0,0,0,.76,2.19,8.39,8.39,0,0,0,.62,1l.17.25a2,2,0,0,1,.25.4c.24.43.48.83.71,1.21l-.55-.53a24.22,24.22,0,0,1,1.58,3.45,14.79,14.79,0,0,0,1.72,3.38c-.13,0-.77-.92-.38.14q1.08,2.39,2.21,4.76a51.94,51.94,0,0,0,2.42,4.69l2.71,4.55c.93,1.5,1.77,3.06,2.85,4.47l3.08,4.32c1,1.42,2,2.92,3.15,4.25l3.32,4.09c1.12,1.35,2.14,2.79,3.35,4.05l3.41,3.78,1.75,1.93c.29.32.58.65.89,1l1,.91,3.88,3.67a51.86,51.86,0,0,0,4.05,3.63l4.3,3.46,2.17,1.74c.72.58,1.52,1.07,2.28,1.6l4.62,3.16,2.33,1.56,2.43,1.4a147.93,147.93,0,0,0,39.43,16.14,61,61,0,0,0,6.58-1.75C391.49,230.71,394.41,229.25,393.85,227.8Z"/><path class="cls-3" d="M326.36,236.85l-.34-.15A2.37,2.37,0,0,0,326.36,236.85Z"/><path class="cls-3" d="M281.41,198.41c.13.24.29.48.44.72A5.33,5.33,0,0,0,281.41,198.41Z"/><path class="cls-3" d="M268.57,148.75l0,1.1A9.23,9.23,0,0,0,268.57,148.75Z"/><path class="cls-3" d="M299.62,159.18c.17-.54,1.87.86,1.31-.84-.38-.67-.72-1.18-1-1.61a8.55,8.55,0,0,0-.69-1,4.09,4.09,0,0,0-1.08-.92c-.66-.43-1.33-.89-2.69-3.8l1,3.15c.61-.5,1.94,1.38,3.14,3.55l-.1.92a10.6,10.6,0,0,1-1-1C298.89,158.49,299.19,158.12,299.62,159.18Z"/><path class="cls-3" d="M298.4,157.41l0,.16.05.06C298.46,157.56,298.43,157.5,298.4,157.41Z"/><path class="cls-3" d="M411.23,193.32c-.16-.07-.19-.13-.19-.19l-.42,0Z"/><path class="cls-3" d="M429.73,175.8a.11.11,0,0,0,0-.06c-.07,0-.14.12-.21.12C429.63,176,429.63,176,429.73,175.8Z"/><path class="cls-3" d="M428.17,184.92a2.33,2.33,0,0,1-.34.36C427.9,185.3,428,185.14,428.17,184.92Z"/><path class="cls-3" d="M416.44,194.73l-1.27-.51A1.75,1.75,0,0,0,416.44,194.73Z"/><path class="cls-3" d="M428.84,183.84c-.2.27-.45.74-.67,1.08A5.48,5.48,0,0,0,428.84,183.84Z"/><path class="cls-3" d="M432,158.63c-.07.25-.14.52-.2.82,0,0,.06.07.11.07Z"/><path class="cls-3" d="M445.63,152c-.16-.91-.31-1.05-.46-.9A3.18,3.18,0,0,1,445.63,152Z"/><path class="cls-3" d="M441.46,129.22a3.18,3.18,0,0,0,.28.43C441.58,129.33,441.44,129.11,441.46,129.22Z"/><path class="cls-3" d="M442,142.82a.43.43,0,0,0-.17.2C441.87,143.09,441.93,143.05,442,142.82Z"/><path class="cls-3" d="M324.24,83.15h.53A.87.87,0,0,0,324.24,83.15Z"/><path class="cls-3" d="M322.25,99.89a2,2,0,0,1,.05.24A2,2,0,0,0,322.25,99.89Z"/><path class="cls-3" d="M322.43,100.69c-.05-.2-.09-.38-.13-.56A3.38,3.38,0,0,0,322.43,100.69Z"/><path class="cls-3" d="M433.08,157.8c-.28-.67-.37-2.31-.76-2.35-.08,1.06-.16,2.12-.28,3.18C432.39,157.51,432.84,156.94,433.08,157.8Z"/><path class="cls-3" d="M387.73,69.29a10.69,10.69,0,0,0-2.05-.58l2.1.61Z"/><path class="cls-3" d="M360.43,67l.1,0h-.16Z"/><path class="cls-3" d="M389.91,69.69a1.17,1.17,0,0,0,.43,0C389.91,69.48,389.85,69.55,389.91,69.69Z"/><path class="cls-3" d="M405.42,193.47l-.48-.05A2.5,2.5,0,0,0,405.42,193.47Z"/><path class="cls-3" d="M362.15,67.75,360.43,67l-.81.24C359.27,67.69,361.29,67.82,362.15,67.75Z"/><path class="cls-3" d="M389.91,69.69a8.63,8.63,0,0,1-2.13-.37l.83.64C390.9,70.82,390,70.05,389.91,69.69Z"/><path class="cls-3" d="M444.13,154.12c.24-1.07,1.06,2.51,1,.34l-.91-2.12c.37.33.66-.94.94-1.22-.74-.81-.86,2.89-2,.42-.46-.55-.55-2.49-.54-3.48.06,2.2-.62,0-.94-.83.19-1.37-.22-3.52.1-4.21a5.36,5.36,0,0,1-.49-2l.21-.11c-.49-1.6-.11.59-.42.21-.28-1.15-.16-3.09-.68-5,.51,1.91,1.13,3.45,1.62,4.8-.27-3.62,1.26.41,1.94,1.14a36.37,36.37,0,0,0-2.33-6.15c-.33-2.89,1.68-.23,1.91.55a28.24,28.24,0,0,0-1.7-3.61c-.58-1.08-1.1-2-1.42-2.64,1.39,1.61,1.56,1.21,2.74,2.72-.11-2.2-.82-2.44-1.44-3.31a3.63,3.63,0,0,1,.46,1.66c-.62-2.45-1.86-1.6-2.82-2.64-.13-.93-.45-2.24-.63-3.33s-.32-1.92.09-2l-.77.34c-1-1.92,0-1.21.09-1.63-.42-.26-.72-.08-1.13-.24s-.85-.68-1.75-2.25c1.48-.08-1.3-3-.14-3.43-.83-1.51-1.87-1.84-2.58-3.46-.35-2.09,2.79,1.54,3.11,2.61,1.12,2.23-.65,0-.2.86l1.37,2c-.34-1.31-1.21-3.81-.58-3.78-1.42-2,.42,2-1.16-.2l-.5-1.56c-1.58-2.18-.55.94-2.4-2,1.74,1.65-2-3.18-1.11-3.49-.26.12-.6-.14-1-.6s-.88-1.09-1.35-1.75c-.94-1.32-1.9-2.73-2.51-2.71.32.52.59,1.07.88,1.61l.17-.63c.59.81,1.18,1.5,1.76,2.22.29.36.57.73.85,1.12a13.16,13.16,0,0,1,.73,1.29c-1.21-1.14-.51,1-1.81-.4-2.56-2.46,0-1.1-.32-1.5l-2.1-1.92.69,1.81c-1.36-1.66-3.2-3.93-5-6.26-2.41-3.72.84,0-.78-2.79a9.58,9.58,0,0,1-2.42-2c.54,1,1.43,1.3,1.9,1.9.05.6-.61,0-1.32-.7s-1.57-1.37-1.74-1.06c-.38-.77-.07-.86.6-.61-2.52-2.26-4.91-4.41-5.27-6L411.34,88c-4.31-3.89,3.59,1.88.14-1.62a23.8,23.8,0,0,0-2.25-1.81,7,7,0,0,0-1.83-.94l1.4,1.05c-1.37-.4-1.49-.07-3.39-1.05-1.17-1-.2-1-2-1.56-3.61-2.91-.49-1.91.6-2.17-2.67-2.25,2.37-.45.2-1.41l.43.51c-1.23-.31-2.41-.67-3.65-.91,2.35,2.54,1.6-.07,2.21,1.45l1.63,1.14a8.82,8.82,0,0,1-2.6-1.29,5.69,5.69,0,0,0-2.54-1.06c.1-.26.88-.63,2.68.42-.16-.54-.33-1-.52-1.57-1-.69-2.05-.46-2.39-1.21-1.25-1.51,2.87.34-.92-2.1a11.6,11.6,0,0,0-4.2-1.61,8.55,8.55,0,0,1-3.21-.89A5.31,5.31,0,0,0,393,72.45c-1.11-.08.45.92-1.27.47a6.41,6.41,0,0,0-2.42-1.7c-1.18-.55-2.6-1-3.82-1.49.78-.14-.67-1.08.18-1a7.77,7.77,0,0,0-3.14-.45c4.88,2.08-5.06-.93-1.36,1a30.72,30.72,0,0,1-4-1.54,26.52,26.52,0,0,0-2.9-1.38c.22-.24,4.74.7,1.24-.51-4.3-.11.5,1.16-2.88,1.42.84.27,1.68.49,2.5.8.13.91-4.45-.65-5.15-.59-1.53-.53,2.24.16.81-.75-2.34-.64-3.63-.15-5.11-.72a13.27,13.27,0,0,1,2.37-.64c-2.83-.38-2.74-.55-2.47-.75s.72-.48-1.46-.87c-1.41,0-.57.63-2.8.3,1.26.81,1.08.95,4.65,1.37a5.61,5.61,0,0,1-3.16,0,11,11,0,0,0-4.07-.23,19.69,19.69,0,0,0,2.79.21c.23.84,1,1-1,1.64a20.63,20.63,0,0,0,3-.37,9.11,9.11,0,0,1,3.67.17c.4.47-.63.5-1.76.54s-2.39.2-2.45.73a11.87,11.87,0,0,1-3.59-.07,29.51,29.51,0,0,1-3.71-.61c-1.57.3-3.31.58-4.95.82a16,16,0,0,0-4.3,1.27,24.14,24.14,0,0,0-5.2.82c-1.08.21-2.19.57-3.31.81s-2.23.47-3.26.68c-.73-.31-5.09,1-2.71-.18-.33.19-3.65,1.32-2.65,1.48.3-.26.71-.26,1.42-.51l-.47.78c-2,.38-3.92,1.73-5.82,2.11-.38-.11.44-.51,1.18-.88s1.43-.67.72-.75a23.74,23.74,0,0,1-5.05,2.89c-1.13.59-2.28,1.15-3.31,1.6-.52.23-1,.42-1.45.61s-.89.36-1.23.49c-1.71.77-2.47.47-3.17.94a5,5,0,0,0-1,1.31,4.89,4.89,0,0,0-.43,1.58c-.27.3-.57.24-.9.8a6.94,6.94,0,0,0,.09,2.26A12.15,12.15,0,0,0,310.3,88c.15,3.73-.8,1.81-1.65-.2l0-.64,0-.73c0-.48,0-1,0-1.43a9.53,9.53,0,0,1,0-3.11c.13-.77.16-1.14-.47-.43a2.92,2.92,0,0,0,.15,2.06,11.28,11.28,0,0,0-.42,1.62c.1.46.2,1.11.36,1.82l.12.55.12.4c.08.26.16.53.23.78.32,1,.63,1.8.86,1.59a28,28,0,0,0,.55,4.07c.12.68.24,1.35.33,2a13.93,13.93,0,0,1,.2,1.73c0-1.51.63.27.94-.24-.14-.84-.28-1.69-.37-2.63.24,1.12.68,2.26,1,3.47a14.88,14.88,0,0,1,.67,3.36c-.38-.15-.51-.2-.6.84.13-1.46,1.39,3.36,1.28.29a16.14,16.14,0,0,1-1-3.41c.51-1.07,1.09,1.1,1.76,2.22.45,1.5,1.56,4.37,2.38,6.31.22,1.32-.52,2,.66,4-.29-2.94,2,2.22,2.91,2.67.42,2.16,1.69,3.11,1.84,4.91a14,14,0,0,1-1.19-2.26,7.35,7.35,0,0,0-1.3-2.22c-.52.06-1,1.16-2.38-1.91,1.08,3.88,1.19,2.08,2,3.75l-.51-1.27c.39.52.38-.72.78.42.65,2.25,1,3.58,1.27,4.76s.34,2.23.66,3.83c.07-.8.93.41,1.27,1.08.91,2.94-1,.41-.88,2.43.9.77,1.7,2.72,1.72,1.91.54,1.09.08.62.33,1.47a7.75,7.75,0,0,1,2.17,2.69c-.26,0-.7-.06-1.35-1.55.69,1.69.37,2.63-.41,2.15l-.6-1.38-.53-1.41c-1.07-1,1,2.61.59,2.72-.79-1.09-.88-2.16-1.39-2.85a4,4,0,0,0,.8,2.1c.53.79,1.16,1.62,1.56,2.27,1.11,2.15.21,1.65,0,1.82,2.78,3.14-1.47-4.61,1.13-1.69a11,11,0,0,1,2.12,2.67c.75,1.19,1.65,2.44,2.38,3.48-.58-2.22,1-.35,2.61,1.68-1.83-2.84.22-1.18-2.33-4.24l.45-.37c.9,1.41,1.78,3.21,2.68,4.63-.32-.21-.21.19-.59-.22l.74,1,.79,1,1.6,1.93-.61-.18c.91,1.25,1.8,2.74,2.72,4a27.75,27.75,0,0,0,2.49,3c-1-1.11-1.4-2.45-.26-1.37a14.67,14.67,0,0,1,2.9,2.7c0,1,3.7,4.82.88,2.85a29.09,29.09,0,0,0,2.73,2.26c.56.38,1.05.8,2.73,2-.72-.58-1.45-1.16-2.12-1.81.14-.62,2.34.4.76-1.73,2.37,2,1.67-.09,4.73,2.62,1,1.36-1.09.45-2.89-1a9.66,9.66,0,0,0,2.54,2.3c.35.93-2.14-.93-2.18-.72,1.55,1.47.17-.24,1.74,1,1.5,1,1.76,1.51,2,2.07s.44,1.11,1.87,2c-.59-.45-1.49-1.41-.64-1,3.49,2.88,2.28,1.19,5,3.06.95,1.78-.16,1.89,2.13,3.82l-1.34-1a11.69,11.69,0,0,0,2.67,2.63c5.46,3.12,10.45,4.8,16.26,7.38l-2.06-1c-.54-.61,1.8.66,1.9.39l1.06,1c.6-.3-2.5-2.05-1.5-2.1a2.37,2.37,0,0,0,.78.49l-1.05-.8c2.47,1.65,4.95,1.85,6.53,3.6-2.58-1.2-2.94-1-3.33-.7s-.78.64-3.31-.66c2.72,1.3.18.78.33,1.15,1.32.9.87,0,2.37,1-.11.16-1.07-.1-1.81-.32s-1.29-.35-.61.21c.45-.43,1.8.43,2.69.4,1.1.77-.21.34.22.79.66.32,1.18.26,1.73.63l-.62.12c3.09,2.13,1.26,0,5,1.9.31-.41-.91-.83-2.53-1.48-.16-.69,1.19-.4,2.59-.1s2.89.55,3-.08c3.67,1.29-1.14.05,1.82,1.59,1.43,1.39-2.59-.14-3.58,0,1,.62,2,1.2,3.05,1.79-1.46.48-3.37-.65-4.3-.1,2.41,1.1,2.23.73,4.84,1.4-3.73-2.28,2,.11,0-1.68,1.76.92,1.1.94,3.81,1.89-1.79-.41-.34.76-2.63-.08,3.71,1.27,2.78.72,6.51,1.85,1.36-.3-3.45-2,1.13-1.13,1,.28.7.48.14.31,3.1,1.2-.41-1,1.68-.78,1.4.32,1.83.7,1.21.71,2.19.19,1.15-.56,2.57-.36l-.6-.24c.63,0-.72-1.4,2.25-.71,2.16.52,1.4.73,1.4,1a13.26,13.26,0,0,1,4.13,1.09c-.09-.16.07-.27.59-.17,2.95.3,1.57.88,2.64,1.17,2.07.5,2,.16,2-.22a.42.42,0,0,1,.3-.49,4.7,4.7,0,0,1,1.83,0l-2.45-.47c-.88-.18-1.77-.35-2.65-.56.28-.29.48-.77-.66-1-.2.5-2.17.56-3.93.11-.38-.66,4.87.32,2-.91,1,.33,2.54.42,3.85.71-1.44.42,4.22.79,1.82,1.12l1.77.23,1.31.18a11.52,11.52,0,0,0,1.56.15,2,2,0,0,0,1.41-.47,4,4,0,0,0,1-1.73,3.3,3.3,0,0,1-.24,1.91,2,2,0,0,1-1,1.07,2.48,2.48,0,0,1-1.5.13l-.23-.37c-1.12.12-.7.26.06.45.38.08.84.16,1.2.21s.6.11.54.29a5.08,5.08,0,0,0,1.75-1.87q.35-.56.69-1.14l.79-1.35.43-.73.46-.85c.3-.57.62-1.15.89-1.74a23.16,23.16,0,0,0,1.44-3.71c-.63.77-.43-.28-.68-.61-.66,2-.39,1.73-1.35,3-.29-.43.31-1.55.24-2.28-.28-.69-.54,1.48-1.09,2.06a8.16,8.16,0,0,0,.38-3c.72-.9.88-.69,1.57-1.35a14.82,14.82,0,0,0,1-4.43,17.48,17.48,0,0,1,.61-3.76c-.55,2.13.72-.9,0,1.4.13-.43.24-.85.35-1.28a40.74,40.74,0,0,1-.71,5.89c-.3,1.83-.48,3.19.18,3.09.79-2.75.74-4.91,1.47-8.28l.19.19c.56-2.44-.29,0-.37-.65a7.35,7.35,0,0,1,.9-3,3.06,3.06,0,0,0,.37-2.43c-.19.94-.4,1.87-.64,2.8-.09-2.21-.19.61-.87,0,.15-3.81,1.26-10.31.71-15.77a14.91,14.91,0,0,0-.59,4c-1-1-.82-1.76-1.77-.83,0,.81-.11,1.62-.18,2.42l-1,0a12,12,0,0,1,.25-1.88c-.3-.18-.22-1.09-.13-2s.14-1.77-.15-1.86l0,2c-.53,1-.41-1.41-.56-2.85-.66,1.35,0,4.44-.23,7.3.38-.19.84,2.75,1.16-.05.41.07.46,1.77.36,2.88-.14-.59-1.32,2-1.31-.57.17,2.5-.08,1.09-.25,3.84-.17-.41-.79,4.71-1.59,4.21.16.91,1.27.22.56,3.31a7.6,7.6,0,0,0,1.11-2c.31-.64.55-.9.61.35l-.06-1.61c.7-2.15.49.73,1.26-2.13-.18.85-.2,2.64-.7,2.94,1.41-.48-.38,4.42.4,4.79a6.21,6.21,0,0,0-1.19,3c-.26-.31-.83.44-.68-.83a24,24,0,0,1,1.05-2.76c-1.32.3-1.5,3.92-2.7,6.35.22-.32.37-.38.27.38-.35.74-1,1.91-1.47,2.76s-1,1.34-1,.75l-.4.94-.28.64-.43,1a1.89,1.89,0,0,1-.74,1c-.15-.27.24-.27.27-.49a1.29,1.29,0,0,1-1.19.31c-.31-.42.35-.37.27-.79a1.51,1.51,0,0,1-.3,0h-.23l-.15,0c.14-.11.12-.24.14-.37,0,0,0,.07-.12.08H423a8.7,8.7,0,0,1-1.07-.1l-.38-.07-.43-.09-.8-.2a3.14,3.14,0,0,1-1.1-.51,17.7,17.7,0,0,0-3.9,0,11.24,11.24,0,0,1-4.74-.88c.32-.55,2.81.43,4,.26-.91-.39-3.91-.63-4.25-1.34-3.55-.54-3.46.62-5.32.72-2.86-.8-.16-.6-.23-.8-.82-.27-2.52.38-3-.67-1.49,0-2.44.23-.48,1.11a15.59,15.59,0,0,0-4.19-.87c1.52-.42-1.57-1-1.46-1.75-2.19-1-6.87-3.33-9.3-3.49l1.05-.6c-.85-.37-1.69-.77-2.52-1.17-1.55-1.5,2.45.58,3.72,1.11l-4.37-2.31L380.13,176c.76.68.14.56.4,1.07-1.23-.24-2.51-1.3-3.62-1.83-.12-.38.1-.45,1,0-.72-.34-1.37-.77-2.07-1.15.49-.43-.47-1,1.69-.14l-1.92-1c-1.92-1.43.37-.37,1-.23l-3.1-2.13c-1.33-.45.34.88-1.95-.39-2.48-2.5-6.23-4.87-9.09-7.57l1.78,2.21c-1.74-1.64-2-.56-2.84-.7-.82-.75-1.85-1.55-2.75-2.42s-1.75-1.74-2.36-2.47c1.89,1.09,1.73-.05.59-1.69A13.48,13.48,0,0,0,355,156a4,4,0,0,0-1.11-.6,4.92,4.92,0,0,1-2.1-1c2.22.54-1.84-2.52-1.05-2.66-.5-.49-1-1-1.42-1.55l-1.41-1.57c-.93-1.06-1.93-2.07-2.84-3.16l-2.67-3.34L341,140.4l-1.19-1.82c-.09.2.67,1.7,0,.95-1.34-1.69-1.47-2.82-1.43-3.2-.4-.56-.77-1.05-1.12-1.48s-.63-.84-.91-1.17a10.17,10.17,0,0,0-1.42-1.44c.7,1,.6,1.18.2,1.15-1.47-2.37-.36-2.1-2.17-4.12.24-.91,1.74,2.39,2.18,1.85a27.26,27.26,0,0,0-1.66-2.65c-.49-.78-1-1.45-1.52-2.19.2-.55.81,1.43.53.06L331,123.8l-.78-1.31-.7-1.33-2.44-4.71c.07-.31.14-.61.23-.92a15.43,15.43,0,0,0-1.66-3.54c-.13-1,.26-.32.64.55a36.3,36.3,0,0,0-1.44-3.56c-.45-1.16-.87-2.2-1.09-2.86.38.12.44,1.33.81,1.65a34.64,34.64,0,0,0-1.69-4.64,9,9,0,0,1-.89-4,2.73,2.73,0,0,1,.29.8c-.25-1.13-.51-2.21-.79-3.28s-.61-2.18-.79-3.06-.44-1.89-.66-2.88c-.11-.49-.22-1-.33-1.51s-.19-1-.29-1.48c.21-.79,0-.92-.3-1.19a1.25,1.25,0,0,1-.41-.51.69.69,0,0,1,.42-.86,1.18,1.18,0,0,0,.92.24,1.49,1.49,0,0,0,.4-.15l.2-.11a2.88,2.88,0,0,1,.28-.18,20.69,20.69,0,0,1,3.34-1.77h-.54a4.89,4.89,0,0,1,1.46-.85,15.92,15.92,0,0,1,1.76-.61,15.56,15.56,0,0,1,1.7-.38c.54-.06,1-.1,1.42-.12,3.15-1,7.91-2.14,11.06-3.32l-.59.44a14.15,14.15,0,0,1,3.51-.72c1.1-.13,2.19-.3,3.54-.58-.07.12-1.06.39,0,.4a105.81,105.81,0,0,1,19.72.54,67.76,67.76,0,0,1,19,5.21,82.26,82.26,0,0,1,16.91,10.15A85,85,0,0,1,428.46,126c.35.78.69,1.56,1,2.34s.61,1.58.92,2.36l.89,2.34c.28.79.52,1.59.78,2.37s.51,1.56.76,2.34.44,1.51.64,2.27c.39,1.52.73,3.05,1,4.58l1.23,1.7c.72,1,1.69,2.42,2.74,3.75C440.57,152.67,443,155.17,444.13,154.12Z"/><path class="cls-3" d="M402.53,193.54l-.36-.14Z"/><path class="cls-3" d="M349.69,161.05a7.45,7.45,0,0,0,.65.6C350.14,161.44,349.91,161.25,349.69,161.05Z"/><path class="cls-3" d="M319.25,117.22l.43,1A8.79,8.79,0,0,0,319.25,117.22Z"/><path class="cls-3" d="M357.87,67.22c-.44-.43,1.94-1.13-.07-1.55-3.56-.15-4.31.38-5.08.79a5.12,5.12,0,0,1-1.51.59,31,31,0,0,1-3.62.44c1.22.07,2.44.09,3.66.25-.11-.38.47-.68,1.44-.92a14.81,14.81,0,0,1,3.73-.38l.85.57a13.87,13.87,0,0,1-1.54.37C356.79,67.48,356.6,67,357.87,67.22Z"/><path class="cls-3" d="M355.47,67.35l.17.05.09,0Z"/><path class="cls-3" d="M270.77,312.72c.43-.33.57-.38.64-.36l1-.88Z"/><path class="cls-3" d="M180.74,395.78l-.17.14a2,2,0,0,1,.57-.24C181.24,395.45,181.24,395.45,180.74,395.78Z"/><path class="cls-3" d="M203.44,374.89c.44-.31.89-.61,1.3-.87A6,6,0,0,0,203.44,374.89Z"/><path class="cls-3" d="M257.71,323.33l3.37-2.5A16.15,16.15,0,0,0,257.71,323.33Z"/><path class="cls-3" d="M200.12,377.39c.89-.64,2.27-1.72,3.32-2.5C202.4,375.61,201.28,376.46,200.12,377.39Z"/><path class="cls-3" d="M122.5,417.35c.38.31.73.6,1.21,1s1.14.8,1.77,1.19c.1,0,.32.09.32,0-.63-.34-1.24-.76-1.85-1.15-.34-.22-.54-.37-.77-.54Z"/><path class="cls-3" d="M108,404.16c-1.87,2-2.09,2.41-1.69,2.25A21.26,21.26,0,0,1,108,404.16Z"/><path class="cls-3" d="M64,448.33v.07a.33.33,0,0,0,0-.14C64,448.6,64,448.22,64,448.33Z"/><path class="cls-3" d="M89.67,426.19a1.1,1.1,0,0,0,.5-.21C90.31,425.77,90.19,425.79,89.67,426.19Z"/><path class="cls-3" d="M264.31,105l-1,1.4A8.53,8.53,0,0,0,264.31,105Z"/><path class="cls-3" d="M338.52,53l.83-.11Z"/><path class="cls-3" d="M341.28,52.61l-1.93.25C340.18,52.75,340.92,52.67,341.28,52.61Z"/><path class="cls-3" d="M120.62,414.68c-1-.59-2.59-1.75-3.92-2.7a8.66,8.66,0,0,0-2.59-1.58c2.56,2.18,5.25,4.59,8.39,7a21.07,21.07,0,0,1-3-3C119.1,413.86,119.38,413.87,120.62,414.68Z"/><path class="cls-3" d="M181.18,277.76c2.17-2.6,3.22-3.94,3.71-4.64l-3.83,4.76Z"/><path class="cls-3" d="M228.67,216.29l-.17.25.3-.38Z"/><path class="cls-3" d="M177.56,282.64a6.49,6.49,0,0,0-.53.94C177.85,282.59,177.83,282.48,177.56,282.64Z"/><path class="cls-3" d="M283,300.3l1.09-1C283.62,299.72,283.3,300,283,300.3Z"/><path class="cls-3" d="M224.9,219.85l3.77-3.56,1.27-2C230.22,213.31,226.41,217.86,224.9,219.85Z"/><path class="cls-3" d="M177.56,282.64a57.47,57.47,0,0,1,3.5-4.76L179,279.82C174.6,285.07,176.91,283,177.56,282.64Z"/><path class="cls-3" d="M113.31,401.17c-2.47,2,5-6.21.21-1.58l-4.1,5.15c.53-1-2.37,1.36-3.1,1.67-1.38,2.34,6.68-5.19,1.9.94-1,1.56-5.16,5.67-7.31,7.71,4.75-4.61.32.56-1.38,2.62-3.12,2.65-7.7,7.29-9.36,8.3A40.82,40.82,0,0,1,86,430.25h-.3c-3.36,3.54,1.33-1,.6,0-2.47,2.51-6.76,6-10.85,10,4.09-4,7.3-7.59,10.07-10.63-7.78,7,.53-2.11,1.8-4.15-5.84,6.06-7.86,8.61-12.52,13.68-6.32,5.5-.68-1.64.78-3.17-2.62,2.79-5.24,5.71-7.55,8.31l-3.16,3.56a4.67,4.67,0,0,1-.84.85c.13-.25.33-.6.47-.92l.09-.24.25-.39c.17-.26.32-.51.47-.75a40.15,40.15,0,0,1,2.77-3.91c-1.18,1-2.1,1.79-2.84,2.5-.37.36-.7.68-1,1a7.31,7.31,0,0,0-.6.68.6.6,0,0,0-.11.42c0-.1.17.41.22.54s.08.27.1.32a1.87,1.87,0,0,1,0,.25,2,2,0,0,0-.06-.32,5.43,5.43,0,0,0-.18-.52c0-.16,0,0,0-.1s0,0,.09-.06a.6.6,0,0,1,.13-.09.83.83,0,0,1,.16-.12,3.54,3.54,0,0,0,.3-.23,1.51,1.51,0,0,1,.26-.19l-.46.45-.16.14-.19.19a.22.22,0,0,0-.07.1v.05s.06.15.09.23a5,5,0,0,1,.12.59.38.38,0,0,1,0-.1s0,.1,0,.12a.68.68,0,0,1-.18.27c-.15.17-.42.25-.84.1a6.34,6.34,0,0,1-.7-.95,1.5,1.5,0,0,1-.18-.41s0-.09,0-.11,0,0,0,0h-.08a1.23,1.23,0,0,1-.41.05l.2.05a1.41,1.41,0,0,1,.22.06l.18.08s.06,0,.16-.12l.72-.79c2.14-2.33,3.81-3.93,3.9-3.42l-.69-.5c1.9-2.4,2.51-2.87,2.73-2.87s.07.52.48.27c.53-1,.18-1.15.53-2s1.51-2.36,5.18-6.21c-.18,2.12,6.78-6.65,7.46-5.56,3.45-3.58,4.55-5.67,8.31-9.25,4.54-3.56-4.33,6.75-6.66,8.79-5,5.12.26-1.07-1.76,1L77.91,432c2.89-2.54,8.4-7.65,8.16-6.6,4.75-5.14-4.39,3.57.79-2.09l3.48-3.05c5.17-5.65-1.81.46,5.11-6.73-4.28,5.16,7.64-7.67,7.86-6.6-.13-.28.58-1.21,1.74-2.49l1-1.1,1.75-1.8c1.23-1.23,2.51-2.58,3.78-3.92.64-.67,1.29-1.35,1.92-2l1-1,.47-.51.23-.25c.07,0,0-.08,0-.12l-.11-.13-3.38-3.85a38.09,38.09,0,0,0-4.42-4.53l5,6.24-.61-1.47,2.21,2.53,1.09,1.23c.08,0,0,.1,0,.15l-.14.15-.27.29-.53.59-4.26,4.61c-.72.78-1.48,1.53-2.23,2.31l-2,2.08c-1,1-2,2-3.06,3,3-3.61-1.8.46,1.76-3.65l.6-.68.76-.83,1.31-1.41,1.69-1.75c.77-.77.94-.8.86-.55-.16.51-1.44,2.3-.69,1.52,1.32-1.53,2.6-3,3.85-4.47l.93-1.1.11-.14s.12-.09,0-.14l-.27-.28-.53-.56-2.12-2.23,2.29,3s.06.06,0,.09l-.1.09-.18.18-.38.35-.74.7-1.47,1.38,2.28-2.51c.38-.22-.09-.45-.23-.68l-.62-.69-1.26-1.42L105,385.08a18.64,18.64,0,0,1-4.8-9.53,12.17,12.17,0,0,1,.26-4.37c.14-.48.2-.22.25.13s.08.79.19.68a18.43,18.43,0,0,0,.71-2.54,19.06,19.06,0,0,1,.52-2.88,6.77,6.77,0,0,1,.52-1.26,7.51,7.51,0,0,1,.51-.83c.12-.16.2-.27.38-.49l.65-.78c-.28.28-.55.57-.79.83a5.33,5.33,0,0,0-.46.58,6.72,6.72,0,0,0-.68,1.3,26.18,26.18,0,0,0-.79,2.57c-.3.47-.37.23-.27-.42a10.83,10.83,0,0,1,.92-2.69,11.93,11.93,0,0,1,.8-1.38c.08-.1.15-.21.22-.31s.21-.27.3-.4.38-.5.54-.73c.66-.91,1-1.53.81-1.52,1.74-1.69,1.67-1.15.7.5,6.05-7.79,12.17-15,15.2-17.32l2-3.84c11-12.83-6.72,9.41,2.73-1.19a129,129,0,0,0,8.77-11.13L131,332c2.1-3.3,1.65-3.29,5.35-8.28,2.91-3.32,1.84-1.13,4.91-5.51,9.09-10,3.7-2.29,2.92-.13,6.71-7.19-1.94,4.87,2.07-.43l-1.31,1.23,5.71-8.51c-6.92,6.67-1.76,3.47-4.95,5.73l-3.74,4.29c.78-1.68,9.56-11.49,9.9-12.76.29.1-.11,1.62-3.92,6.16l3.12-2c2.3-2.55,3.22-4.74,4.81-5.86,3.84-3.45-4,6.4,4.34-3,8.86-10.08,7.32-10.32,13.35-17.15a40.54,40.54,0,0,0-4.11,4.45c1.65-2.5-2,1.28,1.06-2.7,2.39-1.69,8.57-9.05,13.31-14.66-.94,1.72,2.4-1.62,1.09.28a68.29,68.29,0,0,0,5.24-7c-10.08,11,8.9-11.42.83-3,7.56-8.85,9.51-10.13,14.48-15.39-.14.51-8.33,10.51-1.41,2.85,7.09-9.54-2.19.93,3.09-6.7l-5,5.52c-1.32.11,8.18-10,9.27-11.6,3.15-3.36-4,5.06-.56,2,4.6-5.1,6.39-8.12,9.49-11.24-2.28,3.67-.71,1.43-3.43,5.5,10.42-12.3,0,1.11,8.29-8,2.44-3.06.42-1.52,4.6-6.23-2.9,2.36-2.77,1.86-9.37,9.61,1.55-3.35,8.85-10.06,13-15.87-3.75,4.3-1.31,1.23-5.19,6-1.16.11-2.74,1.77.31-3-4.11,5.19-5.29,8-11.61,15-2.33,1.44,7-9.29,6.28-10.08,2.63-4,10.41-12.4,14.1-16.13,5.44-7.45,12.73-16.07,16.54-22.08a22,22,0,0,0,4.23-6,16,16,0,0,0,1.29-5,21.8,21.8,0,0,0,.06-2.68c0-.45-.06-.9-.11-1.34s-.09-.84-.14-1.27a83.51,83.51,0,0,1-.42-19.63,9.25,9.25,0,0,0,.24-1.16c.11-.51.22-1.14.33-1.82.25-1.36.42-2.93.72-4.18.54-2.53.87-3.88.48-.16,0-.27.12-1.09.27-2.13.07-.52.14-1.1.25-1.69s.23-1.18.34-1.75c.22-1.14.41-2.17.47-2.77s0-.75-.24-.14c-.09,1.06-.48,2.14-.95,4.28l-.14-2c1.56-5.69,3.05-12.24,5.79-17.27.33-.37.18.05-.11.85s-.73,2-1.16,3.13a20.8,20.8,0,0,0-.93,2.81c-.13.6-.06.69.39-.15.06-.34.15-.74.25-1.2s.29-.94.47-1.48c.37-1.08.78-2.37,1.33-3.74s1.23-2.86,1.94-4.4,1.59-3.09,2.46-4.66,1.85-3.08,2.81-4.55,2-2.85,2.92-4.14l2.75-3.41c.82-1,1.64-1.81,2.25-2.46.81-.88,1.48-1.54,2-2A17.1,17.1,0,0,1,285.17,90a13.55,13.55,0,0,0,2.14-1.57l2.85-2.78c1-.91,2-1.78,2.94-2.67.86-.44,1.16-.28,2.48-1,.79-.57,1.48-1.14,2.14-1.64s1.28-1,1.84-1.43c1.11-.93,2.12-1.69,3.08-2.42l1.5-.9,1.25-.65c.73-.37,1.28-.63,1.68-.79.79-.33.95-.27.71,0-.48.65-2.67,2.18-4.65,3.88-1.65,1-3.2,2.07-4.8,3.13-3.11,2.82-7.61,6.77-4.54,4.93a17.24,17.24,0,0,0,2.57-2.87c1-.59,1.88-1.24,2.87-1.78.63-.56,1.56-1.34,2.6-2.18l3.29-2.44c2.17-1.49,3.88-2.72,3.32-2.68,6.13-3.07,13.26-6.59,19.28-7.79-4.1.87.92-.87-.38-.91-2.37.66-4.74,1.36-7,2.22l2.16-.89c.76-.29,1.55-.56,2.37-.86,1.61-.62,3.35-1.11,5.07-1.63s3.47-.87,5.12-1.22,3.24-.55,4.64-.65c-.63.42-.83.56,2,.51-2,.06.54-.5,2.54-.84s3.43-.64-1-.56c-1.59.31-3.12.56-4.76.85s-3.41.58-5.42,1.06c-1.41-.06-.53-.46,1.16-1,.84-.27,1.9-.51,3-.78l1.58-.41,1.47-.33c2.29-.43,5.71-.86,9.35-1.17s7.5-.39,10.66-.36c4,.46,5,1.23,11.77,1.83-4.19-1.07-2.16-1,1.27-.71l1.34.12,1.4.2,2.78.39a38.48,38.48,0,0,0,3.83.52l4.35,1.4c1.34.42,2.6.76,3.79,1.2s2.37.81,3.52,1.29a34.88,34.88,0,0,1,3.41,1.78c-.65-.23-1.71-.66-3-1.19s-2.8-1.06-4.31-1.62-3.05-1-4.36-1.35a14.9,14.9,0,0,0-3.07-.63c-.25.19.19.67-.52.79s-2.51-.2-7.35-1.1l3.6.87c1,.23,1.74.48,2.37.62a15.36,15.36,0,0,0,2.39.48,12.49,12.49,0,0,1,3.78.73c-1.3-.4-2.57-.87-3.89-1.2.92.15.57-.1.42-.27s-.08-.3,1.65.29a85.61,85.61,0,0,1,8,3.2l2.88,1.47,1.28.68,1.17.7c1.51.93,2.92,1.75,4.35,2.81l2.3,1.6,2.58,2c-1.55-1.45,2.26.57,4,1.91a16.26,16.26,0,0,1,2.86,2.67c.3.41.12.45-.16.42-.56,0-1.46-.33.43,1.68a38.34,38.34,0,0,1,4.4,3.31c1.25,1.08,2,1.76,1.39.9,2.53,2.49,1.12,1.3,2.75,3.24A29.81,29.81,0,0,1,426.8,93c.55.56,1.14,1.2,1.8,1.93.32.37.66.76,1,1.17s.69.9,1.07,1.39c-.45-.22-1.08-.6-4.06-4.26,3.32,4.14,3.75,6.21,2.07,4.66-1.69-2.27-3.46-4.49-5.35-6.61-1.5-1.24-.2.25,1.41,2.06s3.34,4.09,3,4.12c-1.26-1.38-2.24-2.69-3.19-3.8s-1.81-2.1-2.67-2.92a15.05,15.05,0,0,0,1.59,2.06c.36.4.75.83,1.18,1.28L426,95.54c1.8,1.95,3.66,4.19,5,5.9,1.89,2.81,2.37,3.78,2.32,4.09s-.51-.09-.6,0c3.38,4.61,1.89,1.68.22-1.34s-3.62-6-.17-1.81a25.06,25.06,0,0,1,2.56,3.24l1.5,2.21c.48.81,1,1.66,1.5,2.52l.77,1.33c.24.45.48.92.72,1.38.47.93,1,1.86,1.43,2.78s.85,1.88,1.26,2.79l.61,1.33.53,1.31a9.43,9.43,0,0,1-.49-2.43c.07-.15.41.27.86,1.13s1,2.14,1.68,3.64,1.28,3.29,1.89,5.11a46.67,46.67,0,0,1-1.74-6.28c-.21-.84-.38-2-3-7.23l.43-.46a101,101,0,0,1,5.36,15.12c-.44-1-.25.2-.78-1.36a97.63,97.63,0,0,1,3.42,14.55l-.57-1.46a103.7,103.7,0,0,1,.87,14.34c-.11,2.32-.1,4.53-.29,6.49-.07,1-.13,1.9-.18,2.75s-.15,1.62-.21,2.3c.27-2.2.48-4.25.7-5.17s.39-.71.32,1.62a48.94,48.94,0,0,1-.19,5.36c0,1.06-.24,2.14-.37,3.23a32.34,32.34,0,0,1-.56,3.2,23.8,23.8,0,0,0-1.13,3.46c-.53,1.57-1.05,3.38-1.55,4.79-1.05,2.81-1.63,4.13-.47-.73-.43,1.55-.79,2.84-1.1,3.92s-.62,2-.84,2.7c-.47,1.49-.76,2.45-1.1,3.37s-.63,1.85-1.15,3.25c-.3.69-.64,1.5-1.06,2.5-.21.5-.45,1-.71,1.63l-.94,1.92.94-1.85c.3-.63.57-1.26.86-1.89.57-1.27,1.16-2.52,1.64-3.82.9-.78-1,6,2.43-1.28a39.18,39.18,0,0,0-2.1,6.63,11.73,11.73,0,0,1-.89,2.64,47.67,47.67,0,0,1-3.07,5.89c-.73,1.09-1.13,1.49-1.23,1.42s.13-.63.51-1.53,1-2.11,1.69-3.51,1.46-3,2.2-4.62c-.8,1.61-1.73,3.07-2.56,4.59s-1.77,3-2.61,4.67c-1.79,2.07,2.9-6.16,2.43-6-1.57,2.84-1.57,2.81-1.42,2.8s.29-.06-1.24,2.61a28.26,28.26,0,0,1-5.14,7.1c-.61.58-1.23,1.13-2.07,2.05-.43.46-.88,1-1.47,1.7s-1.29,1.48-2.1,2.47c.73-.85,1.79-2,2.47-2.66s.93-.87.17.26l-2.85,3.26-1.95,2.11L423.27,228a38,38,0,0,1-5.26,5.37c-5,2.89-3.39.91-11,5.75l2.12-1.34,2.05-1.44c-3.06,1.75-6.54,3.64-9.69,5.43a105.18,105.18,0,0,1-24.3,10.65,87.09,87.09,0,0,1-27,3.73c2.35,0,4.7,0,7-.11,1.2.11-.27.24-2,.32a24.53,24.53,0,0,0-3.74.26c-1.47-.16-2.93-.36-4.39-.58-.62.24,1.84.56,4.15.77s4.44.32,3.11.6a28.28,28.28,0,0,0-2.89-.1c1.36.1,2.73.17,4.11.23-4.66-.07-8.83-.15-12.7-.44l-1.41-.11c-.4,0-.79,0-1.17,0a10.58,10.58,0,0,0-2.15.22,13.44,13.44,0,0,0-4,1.58,10.94,10.94,0,0,1,3.9-2,13.68,13.68,0,0,1,2.46-.43,4.59,4.59,0,0,0,1.93-.43,3.94,3.94,0,0,1,2-.41c1.33-.07,3.66,0,8,.08-4.62-.05-5-.3-4.38-.45s2.3-.34,1.84-.49a21.1,21.1,0,0,0-3.68-.09,17.46,17.46,0,0,1-4.12-.3c.09-.19,3,0,5.33-.08s3.89-.13,1.33-.41c-.31.3-1.66.34-3.24.31a44.93,44.93,0,0,0-4.6-.05c-2.11-.14-2.12-.1-1.79-.27s1-.26,0-.31a10.09,10.09,0,0,0-3.08.8,25.18,25.18,0,0,0-2.6,1.36,12.91,12.91,0,0,1,1.28-1.15,14.5,14.5,0,0,0-3.22,1.93c-.74.58-1.21,1-1.62,1.35a11.21,11.21,0,0,0-1.43,1.48c-.67.83-1.46,1.81-6.4,5.88.05.62,3-2,7-5.52,2.79-.89-11.8,11.58-10.2,11.82-9.12,8,2.13-2.43-5.94,4-4.83,3.09,5.27-5.53,6.92-7.63l-8.47,6.53c2.09-3.05,7.36-7.1,8.23-9-6.1,5.1-5.22,4.67-11.15,10.15,10.44-7.85-3.94,4.14,2.37.05-4.77,3.71-3.45,2.33-10.15,8,4.11-3.76-.35-.76,5.27-5.53-9,7.71-6.42,5.81-15.42,13.52-2.37,2.91,9.73-7.05-.83,2.54-2.35,2-2.06,1.4-.68.24-7.94,6.36,2.16-.7-2.49,3.71-3.34,2.94-4.74,3.76-3.45,2.45-4.84,4.6-1.72,2.57-5,5.56l1.6-1.24c-1.32,1.37,3.29-1.23-4,5-5.35,4.53-3.92,2.81-4.2,2.74a115.56,115.56,0,0,1-10.33,8.47c.37-.13.14.24-1.12,1.31-6.91,6.15-4.44,3-7.13,5.13-10.28,8.25,2.08-.08-9.11,9.44l13.18-10.85c-.33.71-.28,1.34,2.52-1-.06-.62,4.28-4.86,8.68-8.49,1.64-.61-11.26,10.39-3.51,4.68-2.69,2.14-6.22,5.34-9.5,8.05,2.85-3.25-10.49,8.71-5.33,3.42-14.11,12.15-16.47,13.57-29.21,24.95a136.77,136.77,0,0,1,15.58-14.62l.79-.2c8.22-7.52-6.88,5.3-5.73,3.53-9.87,9.62-23.55,19.33-36.17,30.46,2.47-1.66,0,.64-.29,1.35,5.11-4.43,4.12-3.76,8.18-6.66-.43.95-3.62,3.43-5,5-1,1.52,3.89-3.29,5.89-4.63a87.41,87.41,0,0,0-6.88,6.78c-3,2-2.74,1.51-5.11,2.94-12.19,10.19-10.22,9.75-20.24,17.78,5.55-4.46-2.89,1.74,3.17-3.06l-3.33,2.68c2-1.89,4.44-4.07,6.91-6.27l7.11-6.44c4.35-4,7.42-6.95,6.32-6.79C184.88,385.22,180.4,390,171.88,397l.22-.47c-6.17,5,.27.15-1,1.51-6.61,6-9.6,6.47-13.82,11l7.15-5.67c-5,4.75,1.61-1.23.83.43-2.26,2.06-5,4.43-8,7l-2.32,2-1.2,1-.31.25-.38.3-.8.61a22.5,22.5,0,0,1-7.31,3.43,24.41,24.41,0,0,1-16.42-1.27,20.94,20.94,0,0,1-1.93-1l-.93-.57c-.3-.19-.52-.36-.79-.53-1-.71-2-1.42-2.93-2.13l-5.33-4.14c1.76,1.72,2.94,2.85,4.37,4.07.71.6,1.48,1.23,2.45,2,.48.37,1,.76,1.62,1.18a22.7,22.7,0,0,0,2.49,1.5,13.59,13.59,0,0,1-2.68-.89c-.67-.28-1.16-.51-1.51-.63-.67-.24-.68,0,.52,1.41l.23.16.29.2.6.38c.4.24.8.52,1.21.73a23.22,23.22,0,0,0,2.53,1.19,25.43,25.43,0,0,0,5.24,1.52v1a23.39,23.39,0,0,1-8.41-3.05,4.49,4.49,0,0,1-1.15-.5c-.27-.14-.57-.32-.89-.51l-.81-.54c-1.12-.77-2.42-1.8-3.63-2.8-2.43-2-4.52-3.86-4.92-3.79,1.71,1.37,3.49,2.83,5.42,4.32,1.28,1.32.17.62-1.67-.77s-4.26-3.41-6-4.72a67.81,67.81,0,0,0,7.93,6.73c1,.71,2,1.45,3.11,2.19.7.44,1.5.94,2.28,1.36s1.6.82,2.44,1.12a29.09,29.09,0,0,0,10.26,2.06c-.25-.09.43-.2,1.35-.33a26.1,26.1,0,0,0,2.85-.57c.77-.23,1.16-.4.56-.4l-1.71.1a35.2,35.2,0,0,1-3.66,0c0-.1.55-.15,1.36-.24s1.92-.19,3.16-.37a30.84,30.84,0,0,0,7.8-2.31c-.58.29-.28.28.34.13s1.55-.48,2.21-.71,1.07-.33.65.08a7.24,7.24,0,0,1-1.36,1c-.36.21-.8.47-1.33.73s-1.15.53-1.87.82a29.64,29.64,0,0,0,5.38-2.89c1.06-.72,1.66-1.22,2.23-1.63.82-.65,1.76-1.34,5.26-4.38-.83,1,12.47-10.33,12.18-9,2.05-2.16-.91-.86,7.35-7.75-2.39,1.22-11.68,8.79-5.89,3.19l-3.78,3.63c-5.94,4.56,1.19-1.77-6.5,4.27,2.24-1.8,6.52-5.76,7.79-6.26-2.73.64,10.79-9.7,10.52-10.74,1.88-1.1,4.07-2.9,8.1-6.44-.35.73,2.12-.94-.9,1.92-2.69,2.14-4.5,3.86-7.58,6.1,2.41-.43,10.83-8.66,17.79-14.2-1,.73-1.37.87.4-.86,4.27-3.37,13.55-10.94,11.31-8.27l20.8-17.81c.29.14-2.9,2.61-4.11,3.76l11.69-9.85c3-2-3.72,3.66-4.65,4.94l8.4-7.14-.93,1.29c1.91-1.95,11.52-10.24,14.27-11.76,9.11-7.95,8.12-8.77,21-18.91,0,.87-6.92,6.15-9.55,8.91,2.58-1.9,9.72-8.53,11.36-9.14,8.73-7.86,7-7.87,11-12,7.29-6.23,1.15-.28,1.55-.39,2.19-1.8,5-5.67,7.51-6.7,3.24-3.34,4.88-5.44-.5-1.15a133,133,0,0,0,10-9.24c-2.55,3.37,4.69-3.48,5.61-3.27,3-2.44,7.8-6.37,12.45-10.37,2.33-2,4.62-4,6.63-5.88l1.46-1.36c.39-.38.65-.63.94-.89a17,17,0,0,1,1.39-1.1,9.51,9.51,0,0,0-.54,1.37,5,5,0,0,1,1.82-.72,6.53,6.53,0,0,1,1.13-.06c.23,0,.4,0,.73.05l1.17.11c1.74.33,2.1.47,1.57.51a11.48,11.48,0,0,1-1.4,0l-1.07-.07-.3,0H341l-.35,0a4.75,4.75,0,0,0-2.26.44,7.29,7.29,0,0,0-1.09.68c-.19.14-.37.29-.54.44l-.67.58c.67-.57.94-.78,1.3-1a6.44,6.44,0,0,1,.89-.52,4.07,4.07,0,0,1,1.45-.39c.27,0,.58,0,.92,0l1.66.17c1.33.15,2.65.26,3.95.36a110,110,0,0,0,16.26,0c-3.46,0-1.42-.32-3.07-.55,4-.56,9.58-.82,13.65-1.78,1,0,.59.39-2.64,1,1.34-.22,2.63-.53,4-.79l2-.41,1.95-.49c-.24.37.6.33.54.48s-.29.19-1,.44-1.94.59-3.89,1.05c2.45-.48,4.86-1.17,7.27-1.81,4-1,3.95-.92,2.66-.39-.65.25-1.6.62-2.53.92s-1.81.56-2.3.73a114.08,114.08,0,0,0,12.64-3.68c2.13-1,1.46-.91,1.3-1s.22-.26,4.33-2.11A87.79,87.79,0,0,0,415,244.36a111.6,111.6,0,0,0,16.33-13.67l-1.79,1.64-1.86,1.56-1.86,1.55c-.64.5-1.29,1-1.93,1.47a27.75,27.75,0,0,0,3.35-3.1,9.28,9.28,0,0,0,1.33-1.73,15.9,15.9,0,0,1,1.09-2.32l2.07-2.09c.68-.76,1.37-1.54,2.08-2.32,1.44-1.55,2.74-3.31,4.12-4.95,2.59-3.42,5-6.82,6.71-9.52-.81,1.64-1.37,2.69-1.6,3.3s-.16.78.15.57a10.29,10.29,0,0,0,1.62-1.67c.7-.91,1.57-2.12,2.55-3.55,1-1.7,1.71-3.17,2.36-4.42s1.06-2.34,1.45-3.25a26.21,26.21,0,0,0,1.37-4.05c.24-1,.44-1.82.69-2.9s.59-2.43,1.24-4.48c-.58,3.35.53.89,1.52-2.33.25-.8.54-1.63.77-2.44s.43-1.57.61-2.21c.37-1.27.65-2,.72-1.64a108.48,108.48,0,0,0-3-59.13c0,.22.39,1.72.63,2.76s.28,1.6-.31-.07-1.14-3.29-1.58-4.61-.85-2.42-1.14-3.35c-.56-1.88-.93-3-1-3.49a67.81,67.81,0,0,0-9.54-15.67c2.35,3.44,2.37,3.87,1.69,3.39-.63-1-1.17-1.86-1.62-2.59L441,97.21c-.66-1-1.08-1.78-1.51-2.51s-.92-1.37-1.64-2.31c-.36-.46-.78-1-1.3-1.62s-1.2-1.3-2-2.12c-.54-1.11,1.22.71,2.94,2.82.86,1,1.75,2.14,2.41,2.91s1.07,1.24,1.08,1c-.59-.89-1.2-1.71-1.8-2.47l-1.72-2.21c-1.13-1.39-2.26-2.61-3.32-3.79a85.29,85.29,0,0,0-6.61-6.32c-.71-1.28,4.14,3.91,1,.38a104.12,104.12,0,0,0-16.4-12.52A109.08,109.08,0,0,0,396,60.29l-2.25-1.48L391.65,58l-2-.65c-1.26-.4-2.41-.78-3.47-1.07-2.13-.52-3.85-.94-5.28-1.17-1.63-.48-1.8-.61-1.15-.53.33,0,.85.12,1.5.24s1.4.34,2.2.54c-2-.63-4.23-1.05-6.42-1.52s-4.41-.71-6.51-1-4.11-.4-5.87-.51l-4.5-.21c.77-.26,4.77.21,6.18.16a86.57,86.57,0,0,0-16.74-.12c-1.37.06-2.7.23-4,.37l-3.72.37c-2.36.32-4.48.5-6.21.66a19.42,19.42,0,0,1,2.83-.56,93.13,93.13,0,0,0-21.88,5.89,102.06,102.06,0,0,0-20.76,11.33c-1.64,1.06-2.89,2-3.9,2.67s-1.69,1.34-2.24,1.8a9.86,9.86,0,0,0-1.85,1.94,15.86,15.86,0,0,1-1.68,2.05l-1.95,2c-.83.87-1.94,1.87-3.24,3.24-.28-.24-1.32.57-2.79,2-.71.74-1.51,1.64-2.38,2.63s-1.8,2.09-2.68,3.3-1.85,2.4-2.71,3.66L268,99.15,264.31,105c.38-.57.81-1.1,1.24-1.64-.46.82-.89,1.7-1.35,2.61s-.94,1.82-1.44,2.74c-1,1.88-1.93,3.81-2.88,5.67s-1.77,3.72-2.51,5.4l-1.91,4.41a92.92,92.92,0,0,0-4.19,19.48,90.63,90.63,0,0,0,.1,19.77c-.18-.73-.31-1.47-.44-2.22.07,1.17.22,2.27.33,3.33s.21,2.08.31,3.08l.12,1.28a9.56,9.56,0,0,1,.05,1.05,9,9,0,0,1-.13,1.85,8.84,8.84,0,0,1-1.25,3.26,16.14,16.14,0,0,1-1.27,1.83l-1.94,2.47c.07-.26,2.08-2.91-.23-.35C218.8,211.49,191.21,245.49,163.4,278l-20.53,24-10.62,12.43c-3.6,4.16-7.08,8.5-10.67,12.8L99.94,353.41l-2.72,3.31-.68.83c-.24.28-.43.5-.78,1A18.44,18.44,0,0,0,94.17,361a22.21,22.21,0,0,0-2,5.18,28.77,28.77,0,0,0-.82,5.23A25,25,0,0,0,93,382a29.52,29.52,0,0,0,5.48,8.81l1.14,1.29.6.68.3.34c.07.11.31.23.11.34-.4.44-.82.87-1.25,1.3l-1.47,1.49-12,12.15L74,420.49l-5.9,6c-2,2-3.89,3.88-5.94,6.12s-3.78,4.38-5.53,6.54l-1.3,1.62a12.63,12.63,0,0,0-1.79,2.71,8.94,8.94,0,0,0-.84,4.33,9.49,9.49,0,0,0,1.11,3.93,10.72,10.72,0,0,0,.91,1.46c.32.45.63.8,1,1.19a13,13,0,0,0,2.44,2.13A10.85,10.85,0,0,0,61.4,458a10.29,10.29,0,0,0,3.87.22,11.09,11.09,0,0,0,3.49-1.13,12.82,12.82,0,0,0,2.61-1.87c.44-.39.58-.56.84-.81l.72-.71,1.42-1.41,22.08-22,3.52-4.82c1-1.45,2.24-3.11,3.47-4.91s2.5-3.74,3.73-5.64C112.07,407.3,116.22,400,113.31,401.17Z"/><path class="cls-3" d="M289,294.14l.91-.73C289.53,293.68,289.24,293.91,289,294.14Z"/><path class="cls-3" d="M444.82,198.17l-1.16,2.48C444.06,199.84,444.45,199,444.82,198.17Z"/><path class="cls-3" d="M387.27,65.08l1.61.52,1.58.59c-.68-.26-1.26-.5-1.79-.68Z"/><path class="cls-3" d="M233.25,210.45c1.16-.72-2.64,4.94,1.4.75,13.22-15.51,4.35-7.69,18-23.62l-7.27,7.81c1,.06-3.56,6-8.81,12.29l-2,1.55c.78-1.17,1.65-2.4,2.57-3.66C235.06,207.88,235.77,207.72,233.25,210.45Z"/><path class="cls-3" d="M237.62,205l-.35.36-.16.21Z"/><path class="cls-3" d="M244.18,278.14c-.16.1-.39-.08-.35-.2-.27.37-.37.06-.27.6-.18.32-.52,0-.3-.27-.2.16-.42.3-.62.45h.43c0,.24-.2.24-.37.24s-.11,0-.12,0,0,.05,0,0-.07-.38-.12-.62l-.1-.41c0-.06,0-.11,0-.17l0-.08v0h0l.41,1.55-.41-1.55h0v0l0,.07,0,.12.06.26.11.51.08.43,0,.11h0l.09,0,.39-.08v.15a.81.81,0,0,1,.66-.17c0,.08.05.2-.1.24,1-.22,0-.81.72-1.2A.25.25,0,0,1,244.18,278.14Z"/><path class="cls-3" d="M245.38,278.82c0-.23,0-.46,0-.68l.11,0L246,278c-.08-.18.08-.47-.19-.51a.26.26,0,0,1-.15.18c-.13-.42.39-.49.06-.79-.22.27-.32.22-.37.66l-.12.06a1,1,0,0,1-.73.09c-.07.11,0,.35-.1.46l.08-.05.27.58c.06-.17.2-.17.32-.25a6.56,6.56,0,0,1-.34,1c.45.49,1-.16,1.34-.11C245.5,279,246.17,278.87,245.38,278.82Z"/><path class="cls-3" d="M244.39,278.1h0Z"/><path class="cls-3" d="M244.18,260.27c-.06.08,0,.21.06.28l.83-.77c-.14-.1-.52,0-.43-.26-.2-.07-.31.25-.19.44l-.11-.24c0,.42-.54.06-.54-.2l0,0,.32,1.42C244.35,260.83,244,260.5,244.18,260.27Z"/><path class="cls-3" d="M240.59,275.38c-.13,0-.16.09-.16.15A.55.55,0,0,0,240.59,275.38Z"/><path class="cls-3" d="M244.18,261.29l.11.44A1.42,1.42,0,0,0,244.18,261.29Z"/><path class="cls-3" d="M241.31,255.77l-.05-.05.06.22h0Z"/><path class="cls-3" d="M241.73,265.82l0,.07S241.72,265.84,241.73,265.82Z"/><path class="cls-3" d="M243.78,251.12c-.24.26-.46.53-.68.79,0-.22-.34.06-.27-.23-.05.07-.3.32-.17.35l.15-.12c-.14.74.19.74-.21,1.53.54,0,.55-.36.65-.72a.77.77,0,0,1,.16-.19,10.16,10.16,0,0,1,.34-1Z"/><path class="cls-3" d="M233.37,272.85h0Z"/><path class="cls-3" d="M233.16,272.88l.17,0C233.24,272.85,233.11,272.75,233.16,272.88Z"/><path class="cls-3" d="M244,261a1.49,1.49,0,0,1,.17.31l-.08-.33Z"/><path class="cls-3" d="M243.52,259.88l.26-.34-.06-.31A4.25,4.25,0,0,0,243.52,259.88Z"/><path class="cls-3" d="M242.38,265.57c-.51.65-.31-.57-.68-.39-.11.21.05.47,0,.64.25-.65.64.72,1,.14.32.43.11.73-.14.79-.55-.16-.13-.41-.46-.79-.12.25,0,.28.12.55-.37.22-.08,1-.78.74-.1.3.1.44.2.74.4.38.49-.13.88.07a.35.35,0,0,1-.19-.1l.24-.11c-.29,0-.39-.38-.33-.5s.15-.23.25-.11v.18c.25,0,0-.56.32-.5.1.08.09.17.14.23-.13-.41,0-.55.05-1l.27.51c-.27-.6.26-.9.77-1-.1,0-.2,0-.24-.12.07-.27.46-.13.59.15-.16-.48.89-.35.71-1-.29-1-.55-2-.8-3a.54.54,0,0,1,0,.23c-.43-.25-.45-.15-.57-.65,0,.35.32.56.07.83-.06-.27-.41-.7-.7-.5-.31.95.23,2.32.18,3.35-.28-.23-.64.27-.9.43a.74.74,0,0,1,0-.81c-.12.08-.3.26-.44.38Z"/><path class="cls-3" d="M242.87,263.32h-.1A.11.11,0,0,0,242.87,263.32Z"/><path class="cls-3" d="M242.36,264.56l0,0,0,.07Z"/><path class="cls-3" d="M243.3,260.52a2.3,2.3,0,0,0-.06-.28c0,.05,0,.1,0,.15A.13.13,0,0,0,243.3,260.52Z"/><path class="cls-3" d="M243.87,260.87l.08.13.06,0C244,260.92,243.91,260.87,243.87,260.87Z"/><path class="cls-3" d="M237.77,265.78v.11A.08.08,0,0,0,237.77,265.78Z"/><path class="cls-3" d="M241.3,265.82c.17-.24-.38-.4-.11-.7l-.1.07c0-.38.46-.69.69-.95.13.18.34,0,.56.3a.8.8,0,0,0,.06-.79c.19,0,.13-.4.37-.44-.2-.08-.29-.68-.45-.17,0-.05,0-.07,0-.11-.42,0-.17.44-.34.62-.25,0,0-.41-.21-.36-.1.36-.89.56-.33,1.08-.12.2-.26.11-.41.06.33.82-1.19.78-.41,1.47a.87.87,0,0,0,.18-.57Z"/><path class="cls-3" d="M243,260.9l-.05,0A.1.1,0,0,0,243,260.9Z"/><path class="cls-3" d="M247.5,260.84l.38.56c0,.06,0,.08,0,.11a2,2,0,0,1-.29.24,3.69,3.69,0,0,0-.6.47c-.1,0-.08-.13-.07-.18-.28.35-.85.68-.87,1.12-.1.09-.51.17-.54-.06a.27.27,0,0,1-.1.22c-.18-.17.08-.17,0-.32-.06,0-.11,0-.07.08-.07-.23-.64-.53-.28-.85.53.29-.2.27.31.66.12-.11-.06-.27-.1-.34.16-.12.26,0,.35.11-.08-.2.3-.17.18-.46.26-.3.3.36.48.18l-.31-.57.4-.2c.31-.59-.81-.76-.51-1.51a1,1,0,0,0,1.08.41c-.13.15-.14.71-.45.74.6.13-.34.38.19.68a.5.5,0,0,1,.42-.6l0,.1c.11-.06.1-.25.1-.42s.06-.36.16-.27c0-.06.13.09.22.21C247.46,260.85,247.41,260.72,247.5,260.84Zm0,.17s0,0-.1,0C247.51,261.06,247.51,261.06,247.5,261Z"/><path class="cls-3" d="M248.52,276.63h-.1A.17.17,0,0,0,248.52,276.63Z"/><path class="cls-3" d="M254.66,255.23l.12.13A.51.51,0,0,0,254.66,255.23Z"/><path class="cls-3" d="M259.33,257.48l.31.25A.55.55,0,0,0,259.33,257.48Z"/><path class="cls-3" d="M249.94,275.59h0v0Z"/><path class="cls-3" d="M258,267.43a.48.48,0,0,0-.2.07C257.82,267.52,257.88,267.49,258,267.43Z"/><path class="cls-3" d="M259.27,257.43v0l.06,0Z"/><path class="cls-3" d="M254,252.53l-.17,0A.38.38,0,0,0,254,252.53Z"/><path class="cls-3" d="M253.39,254.24h0Z"/><path class="cls-3" d="M246.36,251.6l-.28.15A.61.61,0,0,0,246.36,251.6Z"/><path class="cls-3" d="M252.94,253.5a.24.24,0,0,0-.08.06S252.94,253.53,252.94,253.5Z"/><polygon class="cls-3" points="246.42 275.8 246.43 275.79 246.39 275.73 246.42 275.8"/><path class="cls-3" d="M246.56,276.83l-.11.14A.36.36,0,0,0,246.56,276.83Z"/><path class="cls-3" d="M255.4,269.56c-.11,0-.27,0-.32-.08C255.13,269.64,255.39,269.82,255.4,269.56Z"/><path class="cls-3" d="M244.83,272.05a1.2,1.2,0,0,1,0,.23C244.88,272.17,244.88,272.08,244.83,272.05Z"/><path class="cls-3" d="M244.88,272.28v.17A1,1,0,0,0,244.88,272.28Z"/><path class="cls-3" d="M251.74,265.57a.19.19,0,0,0,.1,0C251.76,265.54,251.74,265.54,251.74,265.57Z"/><path class="cls-3" d="M246.28,277c.06.14-.38.82.18.54.24.41-.21.41-.29.59.16,0,.11.29.23.41,0-.09,0-.26.19-.3a.22.22,0,0,1-.11.4c.15,0,.15.16.15.27s0,.2.18.19a2.07,2.07,0,0,0,.67-1.68c-.23.3-.48.63-.82.63l-.12-.41c.46.12.48-.21.76-.36l-.71.22c-.46-.1-.32-.29-.14-.49A.14.14,0,0,1,246.28,277Z"/><path class="cls-3" d="M244.65,273.74h0s0,0,0,0Z"/><path class="cls-3" d="M248,259.84V260A.76.76,0,0,0,248,259.84Z"/><path class="cls-3" d="M246.09,275.14Z"/><path class="cls-3" d="M248.57,259.85v0Z"/><path class="cls-3" d="M249.49,251a.13.13,0,0,0,0-.06S249.45,251,249.49,251Z"/><path class="cls-3" d="M248.57,259.81v0Z"/><path class="cls-3" d="M252.41,260.72l.1-.11A.22.22,0,0,0,252.41,260.72Z"/><path class="cls-3" d="M252.26,259.62v0Z"/><path class="cls-3" d="M257.11,270.32a.4.4,0,0,0,.09-.17A.39.39,0,0,0,257.11,270.32Z"/><path class="cls-3" d="M248.57,259.88l0,.15Z"/><polygon class="cls-3" points="255.06 261.35 255 261.33 254.99 261.36 255.06 261.35"/><path class="cls-3" d="M254.9,262.06l-.14,0c.21.21,0,.64.48.68,0-.07.24-.53.49-.48-.13-.17.14-.48,0-.57-.17.34-.36.09-.55-.06.09-.2.36,0,.4-.21l-.18-.4.06.37h-.44l.05,0C255.44,261.91,254.51,261.55,254.9,262.06Z"/><path class="cls-3" d="M254.76,262a.23.23,0,0,0-.12-.06S254.7,262,254.76,262Z"/><path class="cls-3" d="M253.88,264a.22.22,0,0,0,0,.1A.62.62,0,0,1,253.88,264Z"/><path class="cls-3" d="M244,259.08c.09.08.52,0,.3-.2l-.3.14Z"/><path class="cls-3" d="M251.9,270.34a.34.34,0,0,0,.08-.09l0-.05C251.91,270.19,251.9,270.29,251.9,270.34Z"/><path class="cls-3" d="M255.89,262.33a.32.32,0,0,0-.16-.1A.25.25,0,0,0,255.89,262.33Z"/><path class="cls-3" d="M251.31,269.85a.86.86,0,0,1-.35-.14c-.07.07,0,.24,0,.36C251,270,251.1,269.87,251.31,269.85Z"/><path class="cls-3" d="M250.94,270.08h0Z"/><path class="cls-3" d="M243.74,259.12l0,.11,0-.09-.24.09a.42.42,0,0,1,0,.1.16.16,0,0,0,0-.08l-.08,0a8.56,8.56,0,0,1-.07,1.12.78.78,0,0,1-.27.51c.1-.08.18-.25,0-.35-.33,0-.8-.27-.8.39l.19-.19.06.93c-.36-.07,0-.47-.15-.71-.1.57-1,.17-.75.76-.28-.24-.74-.64-.94-.39.46.14.06.32.51.51.07.22-.34.14-.16.35l-.08-.13c-.79,0-.26.73-.2,1.09-.31.55-.68.59-1,1-.2-.15-.79-.5-.91-.33.18.29,0,.73.28,1.05.37-.15-.07-.46,0-.69.45.17.34.29.7.29-.26,0-.41.81-.87.69v-.09c-.42.09-1.27-.54-1.15.32l0,.38a.87.87,0,0,0-.08-.1c-.32.32-.63-.07-.63.56,0-.05-.06-.06-.05-.11-.37.08-.17.6-.21.83-.36-.11-.26-.23-.42-.45a.64.64,0,0,0-.21.35,1.66,1.66,0,0,0,.31,1.13,1.48,1.48,0,0,0-.31.15c-.09-.21-.3-.55-.53-.6,0,.18.15.21,0,.4a2.46,2.46,0,0,1-.55-.53c-.58.36.69.42-.1.5-.07.16.21.35.47.45a2.52,2.52,0,0,0-.44.17c.33.13.27.46.27.69.15,0,.42-.11.3-.21a.4.4,0,0,1,.32.43c-.74,0,0,.91-.81.73a3.77,3.77,0,0,0,1,1.84c-.15.2,0,.46-.4.45a1,1,0,0,0,.63.43c.26.08.48.14.54.4-.05.1-.13-.17-.32,0,.4.1.17.69.7,1-.08-.05-.21,0-.27.09s.35,0,.53,0c0,.09-.14,0-.16.09a1.57,1.57,0,0,0,1.3.69c.25,0,.5,0,.74,0a2.14,2.14,0,0,1,.71.1c-.26-.1-.52.33-.6.51l.29.11c.18-.2.39-.12.61-.28,0,.1.07.21-.05.3.24.29.52.14.79-.09s.52-.5.84-.35a8.74,8.74,0,0,1-.91.92l.2.35a6.12,6.12,0,0,1-.48.41c.23.3.52-.32.52.06-.06.1-.2.06-.22.25.25.16.3-.11.49-.17-.55.75-1.67.57-2.28.55-.1,0,.13-.15.17-.21-.24-.05-.3-.32-.62-.29-.29.24.05.26.18.34-.1.26-.17.22-.35.2.08-.33-.83-.49-.81-1-.84-.33-.34.92-1,.31v-.5a2.49,2.49,0,0,1-1-.19,1.64,1.64,0,0,1-.78-.58l.1.09c.19-.06.16-.25.19-.36-.17-.44-.85-.42-.68-.92a4.07,4.07,0,0,1-1.93-1.35c.43-.35.8.6,1.23.65l-.26-.5c.16.31.42.33.78.34-.12-.45-.64-.35-1-.72.15,0,.22-.12.15-.31l-.37.07s0-.05,0-.12a5,5,0,0,1-.47-.73c-.11.21-.43.3-.35.52.18-.13.28,0,.36.25-.3-.11-.12.28-.3.34-.08-.22-.18-.47-.28-.69a4.54,4.54,0,0,0-.25-.59l.31-.16c0-.44-.24-.89-.16-1.2l.18.08c0-.51-.11-1,.26-1.46-.33-.49-.49-1.15-.77-1.67-.17-.17.1-.49.37-.84s.59-.67.46-1.08c.06,0,.08.5.14.74.24-.28-.07-.81.38-.68-.56.63.34.15.27.52a2.1,2.1,0,0,0,.28-.82.45.45,0,0,0,0-.11l-.06.07c-.3.32-.36-.58-.53,0a1.2,1.2,0,0,1,0-.38,1.43,1.43,0,0,1,.09-.37.88.88,0,0,1,.1-.27,1.12,1.12,0,0,1,.36-.42.34.34,0,0,0,.43.06l-.14-.28c.16-.13,0,.52.35.26-.12-.64,1-.81.45-1.53.48,0-.12.7.53.61.07.42-.46.49-.17.85.07-.3.36.16.47,0l0-.41-.06,0c0-.67.69-1.15,1.07-1.68,0-.71-.18-1.45.32-1.9,0,.33.57-.21.63.43a.37.37,0,0,0,.25-.61c-.23.15-.11,0-.34.12a.44.44,0,0,1,.41-.51c-.06,0,0,0,0,.11.34-.11-.06-.28,0-.51.29.18.42-.3.7-.32l-.12-.56c.1.35.29-.12.53.06,0-.31-.13-.72.17-.89,0,.21.38,0,.61.19.62-.16.09-1.27.8-1.3,0,.07.1.3.27.25s.21-.26.29-.38h0a.14.14,0,0,0,0-.17,2.37,2.37,0,0,1,0-1.19c-.27-.25-.45.1-.49.3l.13.36c-.47-.32-.23.34-.43.27-.24-.66.44-1,.52-1.65a1.34,1.34,0,0,0-1.42.56h.33l-.21.2.46.1c-.24.13-.34.36-.53.5.2-.19.62.11.45.16-.48-.06-.09.39-.28.53.12-.06.26-.17.31.06-.64,0-.54.29-1.18.24.46.41-.35.42-.06.83l.19-.11-.06.57c-.63-.09-.1-.61-.77-.45-.45.34,0,.79-.27,1.13a1,1,0,0,1,.14-1.06l-.27,0c-.07-.23.32-.54.51-.69,0,.58.23,0,.58.07-.21-.28-.36-.06-.33-.47a1.45,1.45,0,0,1-.57.41c.68-.43-.32-1.38.39-1.63-.12.33.43.29.57.39a2.77,2.77,0,0,0,.28-.54l-.43-.3c.15-.43,1,.27,1-.42-.16-.27-.37.19-.34.09.26-.67.93-.16,1.65-.3a1.07,1.07,0,0,1-.17-.82c.11.3.4.26.25.68.32-.11.48-.53.63-.82-.63.31,0-.53,0-.78.33-.16.07.32,0,.54.27-.13.78.07.67-.41a1,1,0,0,1-.07.72,2.64,2.64,0,0,1-.42.84l.29-.17c-.08.28-.14.26-.42.44a.58.58,0,0,1,.62.45c-.06,0,0-.08-.09-.09-.24.1-.33.29-.17.38.11.47.42,0,.67.06l.22-.3a10.26,10.26,0,0,1,.34-1.94c.44-.44.82-.27,1.28-.23l0-.4c.49-.17,1-.17.81.37,0-.12-.11-.07-.21-.05a.28.28,0,0,1,0,.13v.07c.44-.28.74-.45.77-.46-.7.76.13.65.15,1.32.23-.13.48-.26.73-.38-.52-.11-.07-.32.1-.43.1.36.66-.09,1,0l0,.07a2.13,2.13,0,0,0,1.07,0,4.49,4.49,0,0,1,.75-1c-.63-.22-.24-.32-.27-.55.07,0,.19,0,.21,0s-.11-.15-.12-.28c-.74.07-1.49.12-1.73.65.21.23.35-.24.59-.07-.34.34-.76.27-1.32.33l-.22-.28a3.36,3.36,0,0,0-.54.26c.2-.21,0-.51.61-.66-.12-.28-.61.15-1,.15l-.09.44c0-.25-.78-.05-.3-.52.28-.19.58-.37.89-.54l-.33-.22A7.93,7.93,0,0,1,247,250l-.17.23c.66-.23.79,0,.9.17s.21.3.87.08c.42-.48.93-.5,1.75-.23-.62,0-.11.33-.37.58.55.31.81,0,1.17-.15.09.31.14.53-.36.36-.18.51.69.09.6.66a2.45,2.45,0,0,0,1.78-.18c.51-.16,1.09-.19,1.84.7l-.19.15a4.25,4.25,0,0,1,1.33.81,10,10,0,0,0,1,.84c.06.32.12.66.16,1-.19-.07-.82-.1-.87.25.15-.69-.27-.77-.35-1.27-.13.08-.09.27-.1.39-.16-.16-.09-.44-.41-.57-.06.1.12.44-.13.32l-.13-.56c-.6-.23-.71.54-1.26,0a1.6,1.6,0,0,1,1.09-.29c-.23-.25.48.11.35-.23-.66.12-.69-.39-1.49-.51a.45.45,0,0,1,.35,0c-.28-.25-.57-.5-.88-.73.13.37-.94-.13-1,.32.93.64.77.25,1.74,1.11a1.69,1.69,0,0,0-1.3.28.07.07,0,0,0,0-.06c-.34.28-.23.46-.55,1.1.64-.22.73.3,1.33.38.32-.25,0-.61-.29-.68l.58.08-.19.09a11.79,11.79,0,0,1,.88.82c-.19-.12-.39,0-.58.08a.94.94,0,0,1,.2.45c.21-.3.4-.49.5-.4a1.57,1.57,0,0,1,.4,1.55l.08,0c.1-.18.31-.21.56-.2a4.35,4.35,0,0,0,.79.09c-.31.24.1.49.07.8a1.59,1.59,0,0,0,1-1.13c-.74-.25-.56,0-1.2.13a5.11,5.11,0,0,0-.88-.36l.39-.13c-.18-.41-.78-.32-.44-.64.37-.1.49.31.88.25l-.08-.33c.7.06-.16.45.54.75.12-.46.06,0,.47.1,0-.19-.21-.42-.37-.63s-.21-.35.1-.52c.11,0,.18.1.23.22a3.52,3.52,0,0,1,.17.52c.12.36.25.69.68.71l-.08,0a1.79,1.79,0,0,0,1.21.85c0,.38.46.67.65,1l-.19.07.28.45c-.43-.11-.22-.56-.47-1l-.31.21c.17-.65-.62-.64-1.08-.78.59.29.66,1.35,1.38,1.2l-.22.45.19.1c-.18.33-.68.22-.93-.16.05-.11.07-.16.15-.17-.25-.13-.58-.19-.76-.67l.31.15c-.29-.58-.75-1-1.18-1,.4.81.79,1.56,1.1,2.32.89,0,1.43.14,2.22.08a2.77,2.77,0,0,1,.36,2.11l-.15,0a1.2,1.2,0,0,0,.08.74c-.2.3-.41-.19-.52,0a7.09,7.09,0,0,1,.22.91c-.34-.08-.29-.82-.34-1.18,0,.06.09.2.14.15.15-.44-.55-1.13-.08-1.38-.12-.19.46.37.34-.34.1-.52-.39-.57-.56-.58s-.1.76-.38.56c.09.33.38.43.24.9-.06-.35-.55-.72-.29-1-.52-.57-1.4-.21-1.37.05.28-.14.58,1,.79.16.46.29.57,1,.8,1.51l-.07,0c0,.21.07.42.09.64-.09-.1-.19-.29-.38-.29a9.51,9.51,0,0,1,.48.9c-.31-.53-.27.29-.48.49.28.13.44.52.67.2s-.12-.24-.1-.59c.14.18.27.36.4.55l-.05,0,.33.37c-.19.7-.82-.46-.66.49h.55a5.73,5.73,0,0,1-.87,1.53c-.17.24-.34.46-.46.67a1.3,1.3,0,0,0-.23.52,1,1,0,0,0-1-.5,1.67,1.67,0,0,0,.3-.44,3.74,3.74,0,0,0,.26-.64c.13-.06.36.76.05,1.07.44.12.45-.2.45-.52s0-.58.41-.46c.72-1.1-.51-1.07.24-1.95-.39-.07-.15-.31-.48-.41-.67.19-.24,1.26-.7,1.8,0-.07,0-.2-.09-.24a1.25,1.25,0,0,0-.24.89l.06,0c.12.65-.42.2-.7.36,0,.12-.28.4,0,.48l-.57.24.39.2c-.12.27-.39.15-.27.47l.33.21.21-.21.24-.28c-.06.37.27.3.15.65-.17-.54-.32.11-.66-.05l.06.32-.05-.1c-.28.05,0,.27-.16.43.32-.1.65-.11.59-.54a2.48,2.48,0,0,1-.05,1c0,.31-.36.29-.54.47.13-.48-1.07-.54-.33-1.14.06.05,0,.11-.05.1.49.18.27-.48.2-.75-.27-.11-.22-.32-.54-.11.22,0,.39.6,0,.74l-.49-.39-.32.35v-.05c-.43-.08-.21.46-.6.58,0,.32-.63.93.11,1-.48,0-.25.49-.39.8l.45-.16c0,.66-.09.37.21,1.12-.16-.08-.32-.1-.41-.28-.44.49-1.19,1-1.09,1.67-.34.31-.91-.16-1.15.5,0,.15.48.34.05.5-.05,0,0-.6-.33-.25.08.58-.74.34-.79.93-.28,0-.53.33-.72,0,.32-.17.65-.57.58-.75.12.2.34,0,.26.3.6-.16.1-.41.59-.6-.08-.13-.47-.13-.45,0-.36-.37.51-.82-.23-1-.39.31.23,1.21-.46,1.1-.08-.34.3-.34.09-.89l-.4.09.06.45,0-.06c-.79.06-.08.78-.35,1.35.49.06.52.74.86.74-.26.3-.53.44-.86,0,.29-.79-.31-.45-.14-1.27-.2-.07-.38-.67-.71-.47-.09.56.38.25.16.66a.24.24,0,0,1-.14-.11c0,.33-.24.07-.24.46l0-.12c-.43-.06,0,.48-.45.37.32.24.06.35.08.64.3,0,.75.3,1.15-.05-.15-.28-.28-.38-.21-.63l-.24.24a2.19,2.19,0,0,0,0-.27l.35-.09c-.18.44.17.57.23.93-.39.13-.2.26-.45.33-.26-.36-1.05-.15-1.56-.13.06,0,.12-.08.17-.1.08-.41-.4-.17-.48-.27l-.05.32c0-.05,0-.17-.11-.16-.2.24.07.59-.13.83-.16-.18-.16-.64-.39-.63s-.67-.49-.87-.09a.37.37,0,0,1-.1.3s0,0,0-.06l-.36-.08c-.05-.47.48-.08.43-.56l-.21-.34a.66.66,0,0,0,.19-.6c-.25.09-.23.21-.42.45a.56.56,0,0,1-.11-.5l.1.21c.47.07.2-.6.58-.79.07,0,0,0,.08.09.05-.52.65-.29.6-.9l0,.23c.07-.28.19-.85.28-1.42l-.1-.12c-.1-.05,0-.14.14-.15h0c.05-.28.09-.55.13-.75a.35.35,0,0,0-.28,0c.07.18-.33.31,0,.59-.3-.07-.29.39-.5.35.36.06.11.41.22.62-.23-.16-.28.24-.47-.06-.09,0,.24.11.19-.12,0-.41-.54.06-.48-.38-.16.45-.66.67-.81,1.18l.28,0c-.18.07-.5.38-.62.26a3,3,0,0,0,.32-.36c-.22-.32-.34.25-.5.06l-.05.83.2-.11c0,.29-.54.31-.86.46-.13-.57.43-.31.62-.7s-.43-.33-.3-.58c-.13-.07-.25,0-.24.19l-.14,0c-.09-.52.37-.72.39-1.25a.48.48,0,0,0,.05.17.63.63,0,0,0,.63-.39c-.2-.05-.18.06-.2.15-.08-.09.07-.27.06-.43-.27,0-.21-.2-.37-.19.05-.18.16-.22.33-.28s.1.25.26.43c0-.23.47.18.51-.2-.34.13-.25-.48-.26-.68l-.05,0c-.1-.29,0-.35.19-.2,0,.18-.2.2,0,.4a.5.5,0,0,0,.16-.27l.06.23.32-.35a7.44,7.44,0,0,0-.44-.93c.24.11.22-.14.24-.28l0,.12c.29,0,.5-.4.38-.6.25.05.19,1.76.83.91.29-.27-.32-.7-.33-1a.24.24,0,0,0,.09.08c.16-.07,0-.28,0-.46-.15,0-.25.08-.22.19-.17-.25.28-.22.19-.48.22.45.35-.1.43.16.45,0,.43-.53.29-.89.58.23.21-.33.64-.42-.05,0-.05.16-.14.18.14.4.38-.16.43.31,0-.09-.14-.14-.14-.05a.35.35,0,0,0,.14.41h.44v.14l.65,0a.38.38,0,0,0-.2-.1c.51-.28.7-.93,1-1.27-.79-.69.3-1.2,0-1.86a2.41,2.41,0,0,0,.84.64c0,.1.25.47.06.59-.16-.07-.45,0-.52-.21-.2.5.42.2.65.55.27-.56-.08-1.2-.09-1.63l.11.05a2.29,2.29,0,0,0-.09-.31c-.15.12-.65-.2-.37-.27l0,0c.27,0,.17-.38.25-.46l-.29-.2c.09-.09.7.1,1.09.17.15-.24-.34-.51-.63-.68.31,0,.41-.38.74-.17-.24-.26-1.78-.16-.94-.48l.28.06c-.07-.34-.74-.53-.52-.73,1-.25.72-.76,1.47-1.34-.18.13-.34,0-.45.07.07-.09.12-.2-.08-.14-.06.24-.87.49-.38.5-.65.22-1.1.47-1.24.27l.29-.27a1.39,1.39,0,0,1,.05.23c.21-.2.26-.11.4-.15,0-.22.14-.37.3-.48s.31-.2.09-.4c-.23.13-.13.09-.32,0,.06.05.27-.13.18-.23l-.3.14c.29-.64.57,0,.76-.5.43,0,.83.21,1.18-.16-.18-.49-1,.32-1.14-.18l.11-.19c-.24,0-.49.22-.7.32a.25.25,0,0,0,0-.3,5.6,5.6,0,0,0-1.25.49c.72,0,.14.6.85.75-.17,0-.6-.16-1,.23l.26-.29c-.28,0-.53.08-.62-.14l.24-.1c-.21,0-.19-.15-.21-.29s-.06-.22-.29,0a.09.09,0,0,0,.14,0c-.18.09-.26,0-.34-.11-.15.17-.29.35-.42.53.07-.19-.05-.24.1-.53-.07-.35-.29.21-.37.3-.08-.46.15-.16.29-.7-.21-.26-.53-.14-.65.23a.47.47,0,0,1,0,.26c0-.13-.09-.11-.13-.11l0,.27a.72.72,0,0,1,0-.54c-.09-.05-.13.46-.26.09.11-.34.32-.06.39-.25-.28.26-.4-.83-.82-.4,0-.12,0-.38-.11-.36s.09.55.1.85c.09-.2.21-.05.34.26v.22c0-.11-.1-.09-.15-.2l.09.44c-.1-.49-.33-.8-.38-.59a2.39,2.39,0,0,1,.35.82c.07.53-.29-.44-.2.13-.06-.15,0-.31-.13-.37s.08.36.09.49c-.12-.39-.26-.66-.37-1.14.16-.13.06,0,.19-.28l-.28-.25c.16-.15,0-.5,0-.65-.51-.23-.05.68-.27.7,0,.3.19-.06.18.29-.18,0,.07.26,0,.52l-.07-.18c-.16-.17-.06.12-.09.2s.76,1.13.66,1.26l-.12-.19a17,17,0,0,1-1.56-3,8.24,8.24,0,0,1-.69.5,9.15,9.15,0,0,1-1,.54c-.56-.36,0-.75-.18-.94l.34-.13c.17.22-.48.54.07.7.35-.57.68-.45.77-1.27-.5-.43-.48.57-1.08.43a.52.52,0,0,0,.25-.37l-1,.55,0,.18a2.73,2.73,0,0,1,.46-.21c-.31.2-.29.67,0,1l0,0v.2Zm-3.93,16.7a.5.5,0,0,0-.1.14C239.74,275.9,239.74,275.85,239.81,275.82Zm9.73-20.76a6.15,6.15,0,0,0-1.63-.39c1.05.93,1.39,1.71.15,1.64l-.08.07a1.13,1.13,0,0,0,.72.08,7.54,7.54,0,0,1,.65-.84,7.54,7.54,0,0,0,.56-.63c0-.28-.24,0-.41-.15Zm.07,1.64c.21.17.2,0,.29-.22h-.28A.24.24,0,0,1,249.61,256.7Zm.32-.41a.09.09,0,0,1-.06-.06ZM245,257l0,0-.18.1S244.92,257.08,245,257Zm.66.06-.12-.35-.16.08A.78.78,0,0,0,245.65,257.08Zm1.76.43c0-.44.28-.52.23-1,0-.13-.07-.16-.16-.19l-.3,0a.38.38,0,0,1,0,.21c.11,0,.2.14.23.45-.39-.59-.1.49-.36.41C247.07,257.77,247.37,257.65,247.41,257.51Zm1.87,14.4-.25-.15v-.31c.33-.18,1,.1.87-.56a1.82,1.82,0,0,1,.73.27.64.64,0,0,1-.21.09C250.32,272.55,249.43,271,249.28,271.91Zm3.63-2.67a.22.22,0,0,0,.05.11,3.17,3.17,0,0,1,.33-2.28,1.69,1.69,0,0,0-1,.13l-.23-.36.31.09-.13-.44c-.27-.08-.35.14-.6.15.06.05.14.71.25,1l.45-.17c-.15,0-.39.51-.44.74.15.13.61,0,.3-.28.26.13,0,.48.42.45,0,.45-.49.7-.75.79l-.4-.28c-.31.07.34.51-.08.57.18-.35-.45-.31-.28-.56-.2,0-.4-.33-.56-.08.33.61-.5,0-.23.51-.25,0-.18-.38-.44-.22,0,.48.2.63.53,1,.33-.15-.2-.69.07-.8l.23.94c.15,0,.21-.05.23-.11a.62.62,0,0,0,.05.43l.08.26c.22-.23.42-.43.61-.33l.14.18c.23.06.23-.19.16-.37.17-.23.12-.66.38-.51l.09.22A4.07,4.07,0,0,1,252.91,269.24Zm1.71-11.19c-.47.76-.89,1.33-.27,2l-.09,0c-.1.32.14.43.42.58s.53.36.32.72a2,2,0,0,0-1.17-.19l.33.16c-.47.07-.16.23-.13.41h-.59c.14-.13.09-.4,0-.35.09,0,.51-.57.24-.73-.32.2,0,.54-.63.59.32.06,0,.22.16.33-.31-.07-.5.12-.8.11l.21.18c-.11,0-.39-.21-.76.1.23,0,0,.27.44.18l-.12,0c-.05.16.59,0,.4.2.2,0,.34-.09.28-.16s-.38,0-.47-.12c.3-.13,0,.16.5,0,.26-.12-.34-.31.28-.37l0,.22c.4-.1.42.07.74,0,.18.12-.25.32.12.42s.74-.12.56.17a.88.88,0,0,0-.48,1c.07.08.15.16.21.24.26,0,0-.39.34-.22a2.11,2.11,0,0,1,0,.35l-.14-.05c-.07.1.06.24.12.36-.25-.17-.07-.37-.5-.41-.12.13-.28.11-.23.25a.21.21,0,0,0-.12-.08c-.26.21.35.39.46.51.39.48.6-.16,1,0a8.84,8.84,0,0,1-.23,1.09c-.08-.14-.16-.28-.34-.32-.28.15-.29-.12-.44.2.52.22.09.55.24.95-.27,0-.32,0-.19-.25-.33-.16-.39.21-.49.3a2.2,2.2,0,0,1,0,.36.41.41,0,0,1,.39.45l.06.06c.29-.28,1-.59.76-1l.12.16c.54-.29-.09-1.18.64-1.13.25.11.1-.07.47.07l-.15-.46.14.13a4.8,4.8,0,0,0,.12-.64l.07,0a5.1,5.1,0,0,0-.72-.84c-.17,0-.22,0-.33-.11s-.08-.16,0-.22h0c.06-.12.32-.2.43-.38v.54a.75.75,0,0,0,.82-.22c0,.12.23.19.27,0s-.15-.41-.39-.26a5.87,5.87,0,0,1,.16-1.08,1.31,1.31,0,0,0-.42-1.24c.52.51.2-.62.55,0,.27-.63-.59-.28-.73-.75.14-.1.1.25.46.25-.2-.9-1.35-.94-1.69-1.6l.27-.24Zm-1.36-.7-.41-.17,0,0a4.18,4.18,0,0,0-.5,0c.11.26,0,.67-.39.62.11-.11.14-.31.29-.31,0-.31-.35-.78-.54-.24.64-.19-.33.63.16.5-.35.19-.38,0-.6,0a.63.63,0,0,0,.18-.86c-.14,0-.38-.21-.61-.17-.08.34-.29.45-.08.66a.3.3,0,0,1-.38-.21c.09,0,.21,0,.25-.13,0-.34-.13-.38-.16-.54l-.19,0a.53.53,0,0,1,0,.13l-.29.22c.3-.07.07.19,0,.38.13-.38-.14-.1-.22-.12l.06.47c-.14.18-.21-.4-.27,0a.91.91,0,0,0,.77.28v-.36c.45,0,0,.61.33.8.3-.18.51.31.88-.15-.14.11-.09.59.2.48.49-.31,1,.05,1-.26-.12-.11-.47,0-.34-.38a2.85,2.85,0,0,1,.31.12l0-.36C252.82,257.94,253,257.72,253.26,257.35Zm-8.54-4.71h0Z"/><path class="cls-3" d="M246.23,275.87c0,.17-.21.28,0,.49C246,276.1,246.54,276.09,246.23,275.87Z"/><path class="cls-3" d="M245.82,275.77c0,.07.11.17,0,.23l.2-.22Z"/><path class="cls-3" d="M244.37,274.11c0,.28,0,.44-.19.55-.49-.61.19-.39-.13-1.05-.36.15-.15.82-.32,1C244,274.86,244.7,274.6,244.37,274.11Z"/><polygon class="cls-3" points="243.97 273.19 243.88 273.46 243.93 273.49 244.01 273.22 243.97 273.19"/><path class="cls-3" d="M252.25,275.32c.18.17.15-.13.17-.23S252.24,275.15,252.25,275.32Z"/><path class="cls-3" d="M231.65,275.44a14.27,14.27,0,0,0,1,1.21,14.42,14.42,0,0,0,1.07,1c-.31-.28-.6-.55-.94-.89S232.06,276,231.65,275.44Z"/><path class="cls-3" d="M255.52,269.26c-.12.56.07,1-.18,1.52.83-.3,0-1.22.71-1.44Z"/><path class="cls-3" d="M257,270.54c-.42-.19-.19-.67-.51-.8-.12.38.26.4,0,.66Z"/><polygon class="cls-3" points="249.63 267.66 249.53 267.41 249.53 267.54 249.63 267.66"/><polygon class="cls-3" points="258.09 268.07 258.14 268.19 258.44 267.95 258.09 268.07"/><path class="cls-3" d="M258.2,268.31l-.06-.12Z"/><polygon class="cls-3" points="248.98 266.9 248.78 266.98 248.88 267.18 248.98 266.9"/><path class="cls-3" d="M252,267.06v.23S252.28,267.15,252,267.06Z"/><polygon class="cls-3" points="259.28 266.06 259.25 265.63 259.19 265.66 259.23 266.08 259.28 266.06"/><path class="cls-3" d="M251.69,265.2c-.36-.08.1-.34-.3-.29C251.33,265.11,251.53,265.14,251.69,265.2Z"/><path class="cls-3" d="M254.93,264.05a.11.11,0,0,0,0-.1Z"/><path class="cls-3" d="M254.93,264.05c0,.09-.19.15-.11.24C255,264.21,255,264.15,254.93,264.05Z"/><path class="cls-3" d="M255,263l0,.09c-.17-.1-.14-.06,0,0s.12.09.2.11l.13.06-.12-.08C255.22,263,255.21,262.93,255,263Z"/><path class="cls-3" d="M258.29,255.57c.3.58.33.76.09.89.27.52.62.19.91.45A8.75,8.75,0,0,0,258.29,255.57Z"/><path class="cls-3" d="M259.29,256.91l.15.2A.86.86,0,0,0,259.29,256.91Z"/><path class="cls-3" d="M251.84,263.48l-.39-.18.05,0Z"/><path class="cls-3" d="M257.76,254.77c.05.07.2.22.19.35.12-.08.05-.2,0-.28S257.74,254.73,257.76,254.77Z"/><path class="cls-3" d="M254.71,259.5c-.13.12.08.26.08.37C254.75,259.74,255.13,259.39,254.71,259.5Z"/><path class="cls-3" d="M255.94,254.57a.36.36,0,0,1-.17.42C256,255,256.41,254.74,255.94,254.57Z"/><polygon class="cls-3" points="254.36 258.95 254.31 259.04 254.61 259.14 254.36 258.95"/><path class="cls-3" d="M251.3,261.64c.36-.05.58-.57,1-.5.11-.45-.39.25-.47,0C251.77,261.34,251.43,261.59,251.3,261.64Z"/><path class="cls-3" d="M251.79,261.17a.07.07,0,0,0,0-.06A.08.08,0,0,0,251.79,261.17Z"/><path class="cls-3" d="M251.18,257.84l.12,0Z"/><path class="cls-3" d="M251.11,260.8a4.64,4.64,0,0,0,.53-.16c-.34.12-.66-.24-1,.15.05.17.23.19.44.09Z"/><path class="cls-3" d="M250.75,250.65l.35-.11-.38-.15C250.82,250.49,250.54,250.79,250.75,250.65Z"/><path class="cls-3" d="M250.64,250.36l.08,0A.1.1,0,0,0,250.64,250.36Z"/><path class="cls-3" d="M251.85,258a.32.32,0,0,0,.29.15C252.17,258.07,252,257.82,251.85,258Z"/><polygon class="cls-3" points="248.51 251.07 249.01 251.01 248.47 251.02 248.51 251.07"/><polygon class="cls-3" points="246.05 250.45 245.94 250.38 245.55 250.66 245.66 250.72 246.05 250.45"/><path class="cls-3" d="M248.65,260c.06.07.16-.37.16-.47h-.16c0,.4,0,0,.12.11Z"/><path class="cls-3" d="M236.16,258.69c-.12-.24.29-.46.48-.3s-.06.36.16.36l-.21-.69c.61-.05.34.83.35,1.15.38-.28.18-.67.54-1a.76.76,0,0,1-.47,0c-.33-.3.14-.49.35-.75-.28,0-.31-.19-.32-.42a.14.14,0,0,0,0-.09v-.08l0,0a.44.44,0,0,0-.16-.12c-.11.29-.52.18-.66.3.64.39-.32.56-.32.88l-.14.24-.07.07c-.07,0-.12-.13-.11-.33,0,.19-.32.46-.13.59l-.66.71a.24.24,0,0,1-.14,0,.15.15,0,0,0,.06.11c-.95,1-1.88,2.16-2.76,3.34.17-.14.42-.18.62-.31.17.56.29-.23.58.13a.34.34,0,0,1-.3.39c.15.18.42.16.63.34.55-.24-.25-1,.22-1.29.19.19.28.47.46.18v.11c.12-.62.75.08.4-.67l.29.26c-.06-.38.25-.73.39-1l.05.06c.17-.86.21-.38.64-1.12l.08.59c.33-.08,0-.47.19-.58,0,.06.29.23.21.41l.19-1.21C236.5,258.57,236.31,258.78,236.16,258.69Z"/><path class="cls-3" d="M237.48,258.2a.39.39,0,0,0,.14-.12A.87.87,0,0,0,237.48,258.2Z"/><path class="cls-3" d="M231.72,262.88l.19-.25A.54.54,0,0,0,231.72,262.88Z"/><path class="cls-3" d="M237.91,256.57c-.27,0-.11-.29-.19-.42l-.45.44c.11.1.18.27.29.36Z"/><path class="cls-3" d="M236.94,256.51a.66.66,0,0,1,.09.32l.24-.24A.28.28,0,0,0,236.94,256.51Z"/><polygon class="cls-3" points="242.65 262.3 242.58 262.38 242.56 262.57 242.65 262.3"/><path class="cls-3" d="M241.06,262.93c.25.08.28-.21.29-.3C241.17,262.82,241.19,262.68,241.06,262.93Z"/><polygon class="cls-3" points="243.04 264.45 242.96 264.71 243.01 264.73 243.04 264.45"/><path class="cls-3" d="M231.39,266.48a1.46,1.46,0,0,1,0,.2A.48.48,0,0,0,231.39,266.48Z"/><path class="cls-3" d="M232.83,263.37c-.78.29,0-.59-.6-.76l-.08.42-.11-.12-.24.41c.27.08.32,0,.53.21a1,1,0,0,1-.39.27c-.1,0-.16,0-.28,0a.59.59,0,0,0-.41.15c-.19.33-.37.67-.55,1l0-.12a.17.17,0,0,0,0,.19,11.26,11.26,0,0,0-.68,1.78,13,13,0,0,0-.34,1.86c.15.69.52-.3.88.23.09-.74.64-1.69.16-1.91.07.05.19.14.31,0a5.6,5.6,0,0,1-.27-.55l-.29.35a1.59,1.59,0,0,1,.15-1.19,1.5,1.5,0,0,1,.7-.79c-.26.8.37.63-.33,1.54.15,0,.45-.09.43.16a10,10,0,0,1,1.07-2.17A2.24,2.24,0,0,0,232.83,263.37Z"/><path class="cls-3" d="M231.92,275.06h0S231.93,275.08,231.92,275.06Z"/><path class="cls-3" d="M231.78,274.65l-.77-.33c.16.29.33.58.5.87l.37-.12c-.13,0-.46-.25-.39-.43Z"/><path class="cls-3" d="M230.44,273.72c.34.45.73.25.83-.07.35.34-.36.4.19.51.28-.13-.08-.57-.18-.67Z"/><polygon class="cls-3" points="230.01 269.88 230.18 270.02 230.25 269.67 230.01 269.88"/><path class="cls-3" d="M230.18,270l0,.36a1.09,1.09,0,0,0,.36-.12Z"/><path class="cls-3" d="M230.09,271.32a2,2,0,0,0,0,.53A4.78,4.78,0,0,1,230.09,271.32Z"/><path class="cls-3" d="M230.17,270.9l-.06,0,0,.4C230.11,271.17,230.14,271,230.17,270.9Z"/><path class="cls-3" d="M230.15,270.38c-.3.06-.63.14-.5.68l.46-.14Z"/><polygon class="cls-3" points="241.48 265.39 241.46 265.67 241.51 265.69 241.53 265.41 241.48 265.39"/><path class="cls-3" d="M240.42,266.14a1.29,1.29,0,0,0,.05.21A.3.3,0,0,0,240.42,266.14Z"/><path class="cls-3" d="M241.44,268.2c-.39,0-.1-.52-.49-.26-.25-.15-.41-.56-.15-.63.19.19,0,.27.29.35-.15-.31,0-.21-.29-.44a4.49,4.49,0,0,0-.33-.87c-.06.34-.8.55-.62,1.18.25.47.86.8,1.41,1.25C241.41,268.86,241.79,268.52,241.44,268.2Z"/><path class="cls-3" d="M242.23,268.38c.1-.06.1-.11.1-.2C242.13,268,242.28,268.31,242.23,268.38Z"/><path class="cls-3" d="M236.36,267.12c.07.07.08.31.25.36a2.56,2.56,0,0,1,0-.27v0l0,0A.71.71,0,0,1,236.36,267.12Z"/><path class="cls-3" d="M236.7,267l0,.13A.15.15,0,0,0,236.7,267Z"/><path class="cls-3" d="M236.3,267.1l.06,0A0,0,0,0,0,236.3,267.1Z"/><path class="cls-3" d="M230.21,272.82c-.2,0,0,.28.09.39A1,1,0,0,0,230.21,272.82Z"/><path class="cls-3" d="M236.89,279.58l.13.24A.35.35,0,0,0,236.89,279.58Z"/><path class="cls-3" d="M240.87,275.27a.36.36,0,0,1,0-.09A.19.19,0,0,0,240.87,275.27Z"/><path class="cls-3" d="M240.91,275.18c.1-.15.3.15.41-.1v.07l.17-.14C241.32,275,241,275,240.91,275.18Z"/></svg>