<svg id="Layer_1" data-name="Layer 1" xmlns="http://www.w3.org/2000/svg" viewBox="0 0 512 512"><defs><style>.cls-1{fill:#212529;}.cls-2{fill:#fff;}</style></defs><rect class="cls-1" x="-11" y="-11" width="535" height="535"/><path class="cls-2" d="M115.37,312.61c-2.38,1.13-5.58,2.76-9.13,4.61s-7.56,4-11.07,5.84l4.35-2.17,4.81-2.46C107.66,316.71,111.27,314.81,115.37,312.61Z"/><path class="cls-2" d="M95,323.14l-.11.06.25-.14Z"/><path class="cls-2" d="M116,316.28l-3.83,6C113.4,320.23,114.71,318.21,116,316.28Z"/><path class="cls-2" d="M307.41,52.17l.32-.33.16-.17c.07-.06,0-.08,0-.12.23-.08.45-.08.55,0a.39.39,0,0,1,.09.32.3.3,0,0,1,0,.1v.28a7,7,0,0,1,0,.71c0,.51-.09,1-.2,2.25a22.9,22.9,0,0,1-.42,2.53,19.63,19.63,0,0,1-1.38,4.1,15.83,15.83,0,0,1-2.16,3.91c-.26.37-.61.78-.89,1.13a5,5,0,0,1-.64.65c-.11.09-.17.12-.17.13l-.07,0a.41.41,0,0,1-.16,0,11.17,11.17,0,0,0-3.26.46,10.09,10.09,0,0,0-3.45,1.8,12,12,0,0,0-2.32,2.48,18.37,18.37,0,0,0-1.3,2.15l-3.21,6.26c-2,3.88-3.73,7.16-4.59,9,0,0-.25.44-.66,1.16s-.93,1.71-1.47,2.67a24.87,24.87,0,0,1-2.07,3.49c-1.06,2.62-4.46,8.32-7.23,13.41-1,1.87.84-1.3,1.68-2.63q-3.18,5.83-6.45,11.61c-2.67,4.46-3.47,5.48-.68.57-4.33,7.51-12.94,22.14-23.78,40.3s-24.18,39.62-37.89,61l-7.84,12.17c-1.77,2.69-3.24,5.18-4.83,7.75s-3.23,5.21-4.42,7.35-2.6,4.52-3.9,6.77c-.72,1.27-1.45,2.53-2.17,3.78l-.55.95-.27.47c.11,0,.3-.14.45-.2l1.88-.91L199,252.39l7.37-3.57,7.62-4,10.39-5.52,14.83-8,42.59-22.93c-4.36,2-14.49,7.66-18.54,9.43,8.64-4.88,12.9-6.84,16.66-9.09,3.6-1.32,19.29-10.12,26.2-13.09l2.38-1.58,4.45-2.11c19.29-10.13,21.52-11.25,23.19-12.1l20.09-10c20-10,29.42-14.85,40.74-20-1.68.77-6.22,2.68-1,.17,1-.2,13.9-6.61,16.59-7.5,2.57-1.19,8.06-3.6,12.18-5.45s6.88-3.11,4-2.05c1.46-.54,6-2.38,9-3.59,1.51-.61,2.66-1.06,2.89-1.12a22.6,22.6,0,0,1-2.77,1.28c2.5-1.06,5.18-2.13,7.57-3.11l1.76-.73.86-.36.42-.17.69-.31a9.64,9.64,0,0,0,4.43-3.9,10.13,10.13,0,0,1-5,4.07l-3.43,1.36,3.24-1.35.62-.27c.23-.1.46-.22.68-.34a11.8,11.8,0,0,0,1.28-.78,9.24,9.24,0,0,0,2.07-2,9,9,0,0,0,1.27-2.51,10.23,10.23,0,0,0,.33-1.35q.06-.34.09-.69l.06-.56c0-.21,0-.2,0-.23l0-.11a1.54,1.54,0,0,1,.15-.27,2.89,2.89,0,0,1,.68-.67c.59-.41,1.24-.85,1.85-1.22a24.89,24.89,0,0,1,3.66-1.82,19.78,19.78,0,0,1,7-1.45c.58,0,1.16,0,1.75,0,.29,0,.58,0,.88.07l.61.06.24,0h.15a.94.94,0,0,1,.32.11.91.91,0,0,0-.43-.27l-.19-.05-.1,0-.07,0-.17,0c-.46-.06-.92-.15-1.38-.18a8,8,0,0,1,.84.08l.76.09a2.88,2.88,0,0,1,.45.08.91.91,0,0,1,.56.34.73.73,0,0,1,.07.61,2.33,2.33,0,0,1-.11.28l-.24.45a18.29,18.29,0,0,1-5.13,6.21,20.69,20.69,0,0,0,3-3.44c.45-.64.86-1.31,1.26-2l.56-1.06c.07-.12.05-.08.06-.11l0,0,.05-.11-.07.15-.31.56c-.26.5-.55,1-.83,1.42a21.83,21.83,0,0,1-1.81,2.49,19.43,19.43,0,0,1-4.09,3.72,20.05,20.05,0,0,1-4.62,2.28c-.18.06-.44.16-.56.19l-.38.11a4.74,4.74,0,0,1-.5.08.61.61,0,0,1-.33-.06,10.39,10.39,0,0,0-3.94-1.27,9.71,9.71,0,0,0-4.45.55,21,21,0,0,0-4.88,2.82l-7.32,5.06,4.55-3c-4,2.82-12.31,8.5-23,15.31S395.69,159.15,382.62,167s-26.14,15.57-36.95,21.84l-23.25,13.47,7.43-3.82-13.51,7.78c1.62-.89,6.14-4.44,7.53-5.12-7.29,4.08-22.26,12.37-41.22,22.48l-64.47,34.56-33.55,18L168.8,284.6a17.36,17.36,0,0,0-4.55,3.38,14.67,14.67,0,0,0-1.78,2.39c-.25.41-.48.83-.68,1.24l-.28.61-.23.52a41.8,41.8,0,0,1-3.65,6.42c-1.4,2.11-2.92,4.2-4.37,6.35-.36.54-.72,1.08-1.07,1.62s-.66,1-1,1.53l-1.94,3-7,10.8c-4.24,6.52-7.56,11.64-9.66,14.88-6.9,10.39-1.6,1.64-1.56,1.49-8.14,12.81-3.3,5.67-10.32,16.49-2,2.93.21-.73,1.25-2.42-3,4.77-6,9.12-6.08,9.56,3.92-5.89,2.59-3.18,4.4-5.57l-9,13.92.22-.74c-2,3.1-4.61,8.2-13.6,21.8L86.41,409.45l-5.77,8.88q-2.82,4.37-5.63,8.75l-2.81,4.38-.7,1.09-.23.35a2.43,2.43,0,0,1-.14.2,1.37,1.37,0,0,1-.79.52,1.89,1.89,0,0,1-.94-.15c-.27-.11-.66-.26-1.44-.64a27.79,27.79,0,0,1-4.08-2.36,26.32,26.32,0,0,1-3.58-3c-.54-.54-1.07-1.13-1.56-1.7l-.3-.36-.15-.18-.08-.1a3.42,3.42,0,0,1-.26-.4,1.67,1.67,0,0,1,.16-1.78q1.39-2.13,2.76-4.24c-.06.22-.86,1.55-2,3.43l-.45.74-.08.13,0,.06-.07.14a2,2,0,0,0-.18.6,1.69,1.69,0,0,0,.5,1.22,1.92,1.92,0,0,1-.43-.84,1.52,1.52,0,0,1,.23-1L60,420.72l1.62-2.41c-3.83,5.47,6.16-9.78,3.24-5.46C75.34,395.62,89.94,374,99.37,358.79c.22-.79,3.67-10,7-19,1.66-4.51,3.3-9,4.49-12.34a38.58,38.58,0,0,0,1.82-5.69l3.81-5.85,1.54-2.36c.37-.62.67-1.14.91-1.53l.11,5.55-.47-.78c.08.15.23.42.45.79l-.12-5.58-.64,1.05c-.14.21-.24.41-.41.67s-.36.52-.55.81l-2.52,3.82c-1.8,2.75-3.72,5.73-5.08,7.89l-.29,1c-7.16,11.25-1.85,2.52-8.92,13.46-.59.45,5.89-9.64,11.61-18.51-5.2,7.95-10.5,15.8-12.38,19.2-4.94,7.44.28-1-5.66,8-4.11,6.48-9.35,15-14.31,22.38l0-.16c-11.94,17.93-17.59,27.83-28.51,44.2L52.39,414l-1.61,2.42-.92,1.38-.12.19-.16.27c-.15.24-.29.5-.43.75a12.31,12.31,0,0,0-.72,1.61,10,10,0,0,0,.16,7.31,12.09,12.09,0,0,0,.93,1.78c.18.29.37.57.57.85l.3.4.24.29.48.6.25.29.21.24c.28.32.56.65.86,1a37.46,37.46,0,0,0,8.47,6.75c.8.47,1.62.9,2.44,1.31l1.32.63.84.37.44.18.54.2a9.83,9.83,0,0,0,8.65-.09,8.78,8.78,0,0,1-4.38,1,8.27,8.27,0,0,1-2.42-.4c-.25-.11.13,0,1.44.18a9.46,9.46,0,0,0,2.68-.11,8.71,8.71,0,0,0,3.86-1.79,9.72,9.72,0,0,0,1.75-1.76c.12-.14.3-.36.36-.45l.19-.29.37-.57,1.46-2.22,2.75-4.23,5-7.73,4.49-6.89,4.33-6.5,5.28-8.57c6.81-10.46,18.66-28.63,32.87-50.75L158.07,316l3-4.64c1-1.47,2.05-3,3.14-4.57s2.23-3.25,3.32-5.05c.54-.9,1.07-1.83,1.57-2.81.25-.48.49-1,.73-1.49l.6-1.35a6,6,0,0,1,.77-1.3,4.46,4.46,0,0,1,1-.92,9,9,0,0,1,.78-.5l.47-.26.62-.34,2.55-1.36L186.8,286l77.64-41.67,31.25-16.78c9.09-4.88,16.61-9,22.12-12l-1.71,1c17.76-9.77,40.36-22.56,65-37.11,12.31-7.25,25.18-14.91,38.18-23,6.49-4,13-8.2,19.51-12.46q4.86-3.21,9.7-6.49l2.42-1.64,1.2-.82c.34-.24.65-.43.91-.59a4,4,0,0,1,.51-.26l0,0h0l0-.23a4.6,4.6,0,0,1-.1-.59c0-.18,0,0-.12.53l-.06.23c0,.1,0,0,0,.05s0,0,0,0l.17.08a10.39,10.39,0,0,0,4.58,1.34,13.25,13.25,0,0,0,4.26-.5c.65-.18,1.09-.35,1.58-.51s1-.35,1.45-.55a27.74,27.74,0,0,0,2.82-1.32,29.74,29.74,0,0,0,9.46-7.95,35.68,35.68,0,0,0,3.29-5l.36-.68.49-1,.49-1c.16-.35.26-.73.39-1.09a10.76,10.76,0,0,0,.5-4.44,8.38,8.38,0,0,0-1.54-4.06,9.5,9.5,0,0,0-3.29-2.87,13.74,13.74,0,0,0-4.29-1.39l-1.1-.22-.77-.09c-.5-.06-1-.13-1.51-.15a29.14,29.14,0,0,0-11.93,1.59,33.89,33.89,0,0,0-5.33,2.42c-.84.46-1.64,1-2.44,1.49l-1.15.8a8.93,8.93,0,0,0-.72.54c-.26.21-.51.42-.75.65a12.52,12.52,0,0,0-2.51,3.23,12.08,12.08,0,0,0-.84,2,11.68,11.68,0,0,0-.41,1.83.61.61,0,0,1-.35.61L436.41,121c-23.28,9.77-44.11,19.5-60.87,27.61-11.15,5.06-26.28,12.59-37.7,18.28,6.39-3.09,4.3-1.85-.66.64-17.35,8.77-17.89,9.15-18.5,9.52s-1.27.75-18.69,9.89c-10,5.29-27.06,14.37-47.49,25.39l-32.78,17.64-6.31,3.38-2.35,1.22-1.09.57-.54.27-.27.14-.07,0s0,0,0-.06l.08-.14c.4-.73.9-1.4,1.34-2.1q3.12-4.86,6.21-9.65l10.56-16.66c6.88-10.93,13.37-21.46,19.25-31.12s11.1-18.49,15.52-25.93L272.67,132c5-9,10.75-19.11,16.27-29.31,2.77-5.1,5.49-10.22,8.06-15.26,1.3-2.51,2.53-5,3.75-7.45a8.74,8.74,0,0,1,1.2-2c.07-.06,0,0,.05,0a1.43,1.43,0,0,1,.53-.07,9.46,9.46,0,0,0,4.72-1.2,9.51,9.51,0,0,1-3.51,1.2,9.38,9.38,0,0,0,3.21-1,10.67,10.67,0,0,0,1.64-1A13.57,13.57,0,0,0,310,74.73a13.71,13.71,0,0,0,1.23-1.3c.33-.39.66-.8,1-1.22l1-1.37c.32-.49.66-1,1-1.51a30.16,30.16,0,0,0,3.32-7.48,30.72,30.72,0,0,0,1.16-9.44c0-.48-.05-1-.08-1.44s-.15-1.23-.23-1.85a9.73,9.73,0,0,0-1.1-3.61,8.09,8.09,0,0,0-2.42-2.85,8.26,8.26,0,0,0-3.56-1.44,11.22,11.22,0,0,0-4,.14,19.76,19.76,0,0,0-2.06.57c-.38.11-.58.19-.84.28l-.76.28a29.81,29.81,0,0,0-5.3,2.78,32.53,32.53,0,0,0-8.68,8.63,20.63,20.63,0,0,0-3.08,6.31,14.08,14.08,0,0,0-.48,4.09,13.62,13.62,0,0,0,.23,2.11l.23,1,.15.5,0,.14a2.41,2.41,0,0,1,.16.45.62.62,0,0,1-.16.45L285,71.15l-5.33,6.65c-3.55,4.46-7.24,8.88-10.61,13.45-6.85,9.07-13.47,18-19.49,26.37-12,16.64-21.73,30.56-26.21,37l2.07-2.88c-6.5,9.49-9.35,13.56-11.91,17.11s-4.78,6.58-9.89,14.09c1.65-1.77-9.12,14.78-13.19,21.1l.08-.28c-6.19,9.51-19.82,31.27-30,47l.21-.74c-2.08,3.33-4.61,7.26-7.44,11.64-.72,1.14-1.45,2.35-2.13,3.68l-.5,1-.4.87a1.82,1.82,0,0,1-.38.58,2,2,0,0,1-.27.22l-.15.09-.37.2-1.77,1-3.54,1.9-23.23,12.47L79.26,305.47l-5.83,3.1-2.94,1.56-1.48.78-.37.2-.58.34a11.76,11.76,0,0,0-1.15.8,8.14,8.14,0,0,0-3,4.52,8.82,8.82,0,0,0-.22,2.76c0,.46.14.93.2,1.4s.17,1,.23,1.22a38.52,38.52,0,0,0,2.25,7.15A37.59,37.59,0,0,0,70,335.88c.19.27.33.48.56.79l.76,1c.23.32.59.7.88,1a8.26,8.26,0,0,0,.94,1,8.64,8.64,0,0,0,2.24,1.46,7,7,0,0,0,2.59.56,8.36,8.36,0,0,0,2.62-.43,9.24,9.24,0,0,0,1.21-.48l.75-.41,3-1.64,5.92-3.24,10.28-5.18,10-5,2.83-1.59s27.89-23.53-12.85-3.63l.54-.54-7.67,4.16c-9,4.77-13.13,7.27-12.59,6.72l12.35-6.64c-9.08,4.83-2.8,1.3.59-.67-3.78,2-7.44,4-10.46,5.52-1.75,1,1.33-.61,2.75-1.33l-8,4.53a.66.66,0,0,1-.47.13.67.67,0,0,1-.42-.26l-.17-.21-.17-.23-.26-.36c-.45-.64-.85-1.3-1.23-1.95a22,22,0,0,1-1.82-3.83,3.48,3.48,0,0,1-.23-.94,6.86,6.86,0,0,0-.29-1.23c-.11-.41-.27-1-.46-1.79-.1-.38-.2-.92-.29-1.34a1.9,1.9,0,0,1,0-.25.48.48,0,0,1,.15-.33.56.56,0,0,1,.15-.1l.94-.5,5.58-3,11.12-5.91,22.16-11.77,22.28-11.87,11.14-5.94,5.57-3,1.4-.74.37-.2.65-.39a10.65,10.65,0,0,0,1.22-.9,10.41,10.41,0,0,0,2-2.27,15.46,15.46,0,0,0,1.13-2.18,38.85,38.85,0,0,1,2.76-4.73l3.46-5.26q3.45-5.28,6.91-10.57l13.8-21.21c9.21-14.16,18.5-28.38,28.06-42.6.95-1.23-.1.3-1.16,2,5.72-8.61,11.21-16.62,16.66-24.46l16.16-23.16c3.11-4.21,4.05-5.29,5-6.5-.65.84,6.1-8.79,15.55-21.71,4.74-6.44,10.09-13.77,15.66-20.89L290.41,81c1.37-1.71,2.71-3.4,4-5l.86-1.06a13.24,13.24,0,0,0,.93-1.23,8.91,8.91,0,0,0,1.2-2.65,8.15,8.15,0,0,0,.19-2.86c0-.23-.07-.46-.11-.69l-.22-.7a12.48,12.48,0,0,0-.47-1.38,4.16,4.16,0,0,1-.22-.57l-.05-.14c0-.08,0-.16-.05-.25a2.5,2.5,0,0,1-.05-.47,3.09,3.09,0,0,1,.11-1,9.41,9.41,0,0,1,1.3-2.72,23.79,23.79,0,0,1,4.38-5A18.1,18.1,0,0,1,307.41,52.17Z"/><path class="cls-2" d="M62.28,342.73a.6.6,0,0,1-.12.11l0,0h0a1.13,1.13,0,0,0,.22-.08,6.74,6.74,0,0,1,.88-.24,3.91,3.91,0,0,1,.72-.13,7.79,7.79,0,0,0-1.28.27l-.36.12s0,0,0,0S62.31,342.78,62.28,342.73Z"/><polygon class="cls-2" points="63.95 342.43 63.96 342.43 63.93 342.43 63.95 342.43"/><path class="cls-2" d="M70.27,336.18l-.3-.28A2,2,0,0,0,70.27,336.18Z"/><path class="cls-2" d="M46,348v.4c-.6.05-.21-.44-.71-.32-.09.27-.31.25-.5.19s-.34-.18-.45-.07c0,0-.2-.13-.13-.29-.16.28-.24,0-.39,0s0,.1,0,.2l-.36,0c-.08-.15,0-.33.11-.29a7.7,7.7,0,0,1-2.45-2.73,13.32,13.32,0,0,1-1.08-2.46,8.23,8.23,0,0,1-.21-.88,4.07,4.07,0,0,1-.11-.56c-.24.15,0,.47-.36.68-.27-.29,0-.47-.22-.58.27-.08.28-.24.31-.41a.46.46,0,0,1,.35-.41l-.3-.09.21-.1a1.75,1.75,0,0,1-.07-.66,2.12,2.12,0,0,0,.27-.48,2.59,2.59,0,0,0,.11-.69c0-.22.05-.4.24-.49,0,0-.28.05-.23-.14.23.15.14-.5.43-.38.05-.07.18-.22.26-.35s.12-.27-.09-.33c.21.06.69-.26.53.09.14-.12.35-.18.41-.33l-.27.06c.52-.45,1-.4,1.27-.94l-.31,0a2.68,2.68,0,0,1,.28-.18,2,2,0,0,1,.36-.17.79.79,0,0,1,.64,0l-.52.41a11.64,11.64,0,0,0,2.17-1.42l-.28.14c.81-.84,6-3.89,6.75-4.81l-.56,0,.7-.64c-.1.05,0,1-.09,1l1-.52.59-.34.21-.12.11-.07c.32-.19.7-.43,1.07-.67a.83.83,0,0,1,.64-.13.71.71,0,0,1,.31.49,3.73,3.73,0,0,1,.08.82c-.1.3-.4.31-.43.35.13.11.28-.09.3.1s-.21.09-.25.09,0,.15.09.1.41-.23.61-.37l.05.33a1.66,1.66,0,0,0-.22,0c0,.08.2.18.38.35a1.52,1.52,0,0,1,.47,1,24.33,24.33,0,0,0,2,5.35c-.13,0-.39-.28-.64-.62a3.37,3.37,0,0,1,.34.84c0-.53.52.64.44.27,1.13,1,1.79,2.76,2.93,3.48a39,39,0,0,0,4.09-2.11c1.88-1.11,3.75-2.23,4-2.44a2.72,2.72,0,0,1,.47.57c0-.16-.36-.64-.65-.83l-.26.18c-.31-.23-.31-.29-.3-.36a.25.25,0,0,0,0-.14,1.33,1.33,0,0,0-.17-.23c.09-.08.17-.1.4.06a5.24,5.24,0,0,1,.67.55c-.35-.39-.67-1-.91-.82-.15-.32.25-.19.06-.56-.24-.16-.69-.29-.77-.67l0,0c-.27-.8-1-.84-1.2-1.69l.11,0c0-.32-.43-.74-.49-1.31,0,.17-.11.37-.26.07-.09-.63-.38-1-.34-1.53l-.38-.37c-.09-.33-.21-.77-.35-1.31l-.06-.24-.08-.31c-.07-.3-.13-.62-.21-.95-.15-.65-.28-1.35-.42-2.09a21.63,21.63,0,0,0-.56-2.17c-.12-.35-.28-.64-.42-1a5.18,5.18,0,0,0-.47-.91,6.89,6.89,0,0,0-2.79-2.6,6.09,6.09,0,0,0-2-.59,7.32,7.32,0,0,0-1.87,0,13.13,13.13,0,0,0-1.94.49,5.6,5.6,0,0,0-1,.43l-1,.47-3.4,1.94-1.5.85.08-.09c-1.89,1.09-4.87,2.65-7.91,4.31l-2.27,1.26-1.39.86c-.46.32-.89.65-1.31,1a15.35,15.35,0,0,0-3.84,4.47,9.39,9.39,0,0,0-1.78,3.19c.31-.56.4-.29.23.16-.48,1.62-.4,1.7-.37,1.77s.08.15,0,1.8a20.38,20.38,0,0,0,.42,4.36,21.49,21.49,0,0,0,2,5.44,20.78,20.78,0,0,0,3.39,4.7,17.94,17.94,0,0,0,3.33,2.63l1.39.47c.48.18,1,.35,1.47.49a9,9,0,0,0,1.5.34,6.43,6.43,0,0,0,1.43.09l-.19.07,1.11,0c.48,0,1.06,0,1.71-.07a18,18,0,0,0,4.17-.91,18.76,18.76,0,0,0,2-.8c.59-.26,1-.48,1.46-.7.87-.44,1.55-.8,1.88-1l-.21.06c1.1-.84,1.13-.41,2.12-.8-.31-.3.6-1.05,1-1.28l0,.08c.55-.37,1.69-1.39,2.61-1.94l.07.21a15.18,15.18,0,0,1,2.75-1.62c.33-.14.71-.29,1.13-.44l.64-.25a9.51,9.51,0,0,0,1-.46,7.59,7.59,0,0,0,2.32-1.87,6.53,6.53,0,0,0,1-1.76,5.94,5.94,0,0,0,.38-2.07,9.72,9.72,0,0,0,.2-3l-.18-.31a6.24,6.24,0,0,0-1.31,0,11.23,11.23,0,0,0-2.77.68,13.47,13.47,0,0,0-2.75,1.44c-.41.26-.76.52-1.06.74l-.42.27a.77.77,0,0,1-.19.08h0l.14,0,.31-.07-.11,0c.25-.05.35-.1.54-.12l.47-.07a3.43,3.43,0,0,1,.51,0,1.37,1.37,0,0,1,.21,0h.08a1.83,1.83,0,0,0-.26,0h-.21a1.56,1.56,0,0,0-.31,0c.48,0,.44,0,.4,0a2.27,2.27,0,0,0-.47,0,2.72,2.72,0,0,1,.77,0l-.12,0c.29,0,.27.12-.15-.16l-.31-.24-.08-.07c0-.05,0,0-.62-.63-.18-.22-.45-.51-.63-.78l-.15-.22h0l-.21.07-1.27.55c-.94.42-1.86.85-2.77,1.28q-2.73,1.31-5.31,2.74c-.12,0,0-.08.05-.18-1,.65-1.94,1.12-2.83,1.69a.91.91,0,0,1-.56-.08,9.31,9.31,0,0,1-2.05,1.18l-.64.23-.53.13A3.6,3.6,0,0,1,46,348Z"/><path class="cls-2" d="M50.88,443.81a3.53,3.53,0,0,0,1,1.43A4.17,4.17,0,0,0,50.88,443.81Z"/><polygon class="cls-2" points="51.87 445.25 51.87 445.26 51.86 445.24 51.87 445.25"/><path class="cls-2" d="M56.65,435.19l-.09,0A.08.08,0,0,0,56.65,435.19Z"/><path class="cls-2" d="M54.3,455.29l.29.28c-.63,1-.56,0-1.07,1,.24.66-1,1.44-1,1.91,0,0-.34.38-.47.25.17.31-.24.48-.36.79,0,.15.13,0,.25,0l-.33.67c-.25.18-.44.13-.29-.15l-.64.82-.2.26-.16.17c-.11.11-.22.26-.34.37a4.6,4.6,0,0,1-1.51,1.05,3.8,3.8,0,0,1-1.5.22,11,11,0,0,1-1.37-.17c.09.25.49.22.55.57-.34.16-.45-.18-.64,0,0-.54-.72-.35-.79-1l-.21.24-.1-.25a7.8,7.8,0,0,1-1-.27,5.07,5.07,0,0,0-.78-.57c-.75-.41-1.27-.31-1.51-.72,0,.05.05.3-.16.23.17-.23-.52-.24-.4-.5-.15-.13-.53-.61-.68-.22.08-.21-.18-.67.14-.51-.1-.15-.14-.32-.27-.38l0,.25c-.35-.49-.23-.86-.65-1.06l-.07.24c-.13-.3-.27-.56.07-.78a1.71,1.71,0,0,0,.2.27,6.6,6.6,0,0,0-.45-1.14v.15a3.1,3.1,0,0,1-.24-2.1,5.23,5.23,0,0,1,.18-.76l.1-.37.21-.51a7.83,7.83,0,0,0,.49-1.47l-.49.27.25-.89c-.06.09.57.84.45.87.46-.83,1.93-3.37,3.53-5.88.8-1.26,1.61-2.51,2.3-3.54.86-1.3.78-1.14.94-1.29s.32.33.36.36c0-.24-.15-.32,0-.45s.13.21.14.27a.06.06,0,0,1,0-.05s.06,0,0-.13-.27-.37-.42-.55l0,0h0l.19-.23.1.25s-.19-.82.06-1,.33-.51.66-.48a1.37,1.37,0,0,1,.65.61c0,.16-.12.17-.21.2a.36.36,0,0,1,.13.27c0-.4.18,0,.15-.23.2-.16.38.06.53.26s.28.42.56.44c0-.29,2.15-1.14,3.85-2.5a13.94,13.94,0,0,0,3.13-3.29c.06.05.12.08.13.13l-6.11,8.62a.09.09,0,0,1,0-.05.2.2,0,0,0,0,.07l6.14-8.66a.17.17,0,0,0-.18-.2l-.19.25c-.29-.08.06-.18-.18-.35.16-.2.4-.07.53,0-.1-.09-.12-.35-.37-.2-.09-.23.23-.21.11-.47a1.79,1.79,0,0,1-.42-.33l-.56-.54a6.33,6.33,0,0,1-1-1.28l0,0a7.38,7.38,0,0,0-2-2.25c-.64-.48-1.26-.81-2-1.34h.18a6.41,6.41,0,0,0-2.5-.93c.29.09.52.32-.07.26a4.29,4.29,0,0,0-1.7-.06c-.49.07-.86.18-1.25.2a4.49,4.49,0,0,0-.65.6l-1.14.71a1.75,1.75,0,0,0-.42.38l-.5.52a8.25,8.25,0,0,0-1.21,1.46l-3.31,5.2-2.28,3.67c-1.55,2.5-3,5-3.63,6.08l0-.13-1,1.72-.57,1c-.23.49-.49,1-.72,1.51a15.3,15.3,0,0,0-1.11,7.45,15.47,15.47,0,0,0,2.65,7,16.3,16.3,0,0,0,4.13,4.06,6.89,6.89,0,0,0,1.22,1.09c.45.31.91.57,1.29.84-.39-.35-.15-.41.19-.2,1.24.67,1.32.64,1.39.62s.14-.06,1.52.45a22.19,22.19,0,0,0,4.1,1,14.87,14.87,0,0,0,6.56-.56,15.2,15.2,0,0,0,5.53-3.41,19.07,19.07,0,0,0,1.64-1.77l.86-1c.47-1.29,1.61-2.48,2.12-3.67v.15c.33-.6,1.61-2.47,2.86-4.34l1.82-2.74c.84-1.31,1.62-2.48,1.94-3.06a3.31,3.31,0,0,1-.25.3,7.58,7.58,0,0,1,1.06-1.82,7.64,7.64,0,0,0,.82-1.46c-.44.17-.34-1.34-.43-1.95h.09a4.33,4.33,0,0,0-.74-2,7.68,7.68,0,0,0-1.78-1.7l.25-.09c-.3-.16-.66-.37-1-.6s-.84-.47-1.33-.67c-.94-.44-1.89-.8-2.36-1a12.57,12.57,0,0,1-2.21-1.48,20.54,20.54,0,0,0-2-1.45c-.11-.39-.21-.77-.28-1.15l-.14-.05-1,.67c-.63.41-1.48,1-2.34,1.59-1.69,1.26-3.44,2.84-2.83,4.62l-.2.12.5.44c.5.62,1,.65.77.79-.27-.24-.53-.49-.79-.74.54.59.06.3-.26.18a6.41,6.41,0,0,1,.62.71c.17,0,0-.15-.09-.27a5.09,5.09,0,0,1,1.3.85c.63.51-.18.32.57.91.5.38,1,.74,1.51,1.08l.76.5.72.44c.54.31.35.24.42.3l0,.09a.61.61,0,0,1,.07.14.53.53,0,0,1,0,.15h-.16c.09,0,0,0,.07.19a1.15,1.15,0,0,1-.33-.09s0,0,0,.05,0,0,0,0l-.08.14-.18.33c-.29.5-.69,1.16-1.1,1.82l-1.14,1.82C54.55,454.94,54.32,455.27,54.3,455.29Z"/><path class="cls-2" d="M58.62,438.3a2.35,2.35,0,0,0-.31-1.37A2.86,2.86,0,0,0,58.62,438.3Z"/><polygon class="cls-2" points="58.31 436.92 58.3 436.92 58.31 436.93 58.31 436.92"/><path class="cls-2" d="M48.75,439.48l.22.24A1.6,1.6,0,0,0,48.75,439.48Z"/><path class="cls-2" d="M51.36,428.73v0c0-.13,0,.05,0,.06a.36.36,0,0,1,0,.07.71.71,0,0,1,0,.16l-.15.31a7.49,7.49,0,0,1-1.2,1.5c-.4.44-.76.71-1.21,1.13l-.15.13-.07.06h0s0,0,.08,0,.18.32,0,.41c.31-.1.29.25.5.38s0-.11.07-.21l.41.34c.06.22,0,.37-.21.22a34,34,0,0,0,3.12,3.62A23.9,23.9,0,0,0,56.25,440c0-.3-.49-.46-.41-.86.44.08.43.41.69.35-.19.53.65.61.58,1.24l.27-.19s0,.05,0,0,0,0-.05,0l0,.08c.25-.22.12-.1.1,0s.43-.21.4-.15l0,0,.08,0,.14-.08.06,0c-.29.14.28-.06,0,.08,0,0,.08,0,.52-.13a1.8,1.8,0,0,1-.49.2s-.05,0,.07,0l.12-.05c.16,0-.24.12.32,0l.19-.06c.1,0,.21,0-.38.14h-.22a1.61,1.61,0,0,0,.56,0h0a2.84,2.84,0,0,1,1.37.22c.43.26.56.55,1,.75l.61,0a3.27,3.27,0,0,1,.37.28s-1.76-.48-1.57-.45c0,.07-.06.23-.14.42a.66.66,0,0,1-.47.46,2.36,2.36,0,0,1-1.19-.37,4.42,4.42,0,0,1-.44-.34s.2.18.08.11a1.47,1.47,0,0,1-.17-.15s-.12-.08,0,0l.55.45-.19-.1-.13-.13s.29.31,0,.13-.63-.38-.93-.59c0,0,0,0,.07,0s-.08,0-.12-.09-.09,0,0,0a.94.94,0,0,1-.34-.18,1.67,1.67,0,0,0-.39-.23,2.3,2.3,0,0,1-.49,0l-.54-.06-.17,0a1.44,1.44,0,0,0-.25,0l-.89-.09c-2.41-.28-4.78-.88-5.06-.92l-.21-.24-.07-.09s0,0,0,0a5.63,5.63,0,0,1,.3-1,5.22,5.22,0,0,1,1-1.62,5.44,5.44,0,0,1,2.44-1.53,5.35,5.35,0,0,1,4.16.48,5.2,5.2,0,0,1,1.16.89,4.93,4.93,0,0,0-1.23-1,5.36,5.36,0,0,0-2.11-.64,5.39,5.39,0,0,0-5.43,3.25,4.85,4.85,0,0,0-.28.8l-.07.31,0,.07h0v0l.09.15a3.46,3.46,0,0,0,.33.35l.34.07c.25.23.23.27.2.29s-.09,0,.12.35c-.23,0-.65-.57-1-.89.25.29.35.7.75.94.08.25,0,.25-.08.25s-.08,0-.09,0a.23.23,0,0,0,0,.12c0,.06.24.1-.38.29l-.46.18-.23.09-.11,0s0,0,0,.05.09.24.13.37a5.34,5.34,0,0,0,.48,1,3,3,0,0,0,.39.56l.22.29c.12.09.26.16.38.24.5.32,1,.64,1.43,1h-.07a67.08,67.08,0,0,0,5.76,3.59c.77.34,1.5.64,2.28,1l1.19.58c.33.13.69.28,1.08.46h-.27c.29.14.63.28,1,.43l.59.21.32.1.22,0c.31.05.64.1,1,.17s.76.18,1,.21a1.18,1.18,0,0,1-.45-.22c-.08-.09,0-.15.21-.18,1.31.28,1.55,0,2.29.16l.07-.42a6,6,0,0,0,1.65-.56,9.72,9.72,0,0,0,1.48-.93,8.14,8.14,0,0,0,.91-.83,9.27,9.27,0,0,0,1.1-1.46c.34-.54.6-1.08.84-1.54s.5-.82.63-1.1V445a8.06,8.06,0,0,0,.58-1.36,6.62,6.62,0,0,0,.35-1.6,5.3,5.3,0,0,0-.13-1.73,5.08,5.08,0,0,0-.46-1.13,9.28,9.28,0,0,0-1.79-2.25l-.71-.63a2.09,2.09,0,0,0-.44-.29l-.5-.28-1-.53a10.19,10.19,0,0,0-1.06-.43L68,434.35a18.59,18.59,0,0,0-2.31-1.4c.34.29,0,.34-.25.16-1-.64-1.11-.63-1.19-.61s-.08,0-.25,0l-.36-.16-.27-.14a2,2,0,0,0-.26-.16,13.6,13.6,0,0,1-3.1-2.41,17.82,17.82,0,0,1-2.47-3,2,2,0,0,1-.84-.68l-.19-.23-.37-.42c-.15-.15-.3-.3-.45-.43a5.34,5.34,0,0,0-.56-.41l.19.05-.43-.31-.3-.21-.43-.25a6.64,6.64,0,0,0-1.26-.51,8,8,0,0,0-.9-.18,6,6,0,0,0-1,0,5.88,5.88,0,0,0-2,.51,7,7,0,0,0-1.38.86A8.85,8.85,0,0,0,46.07,426a11.12,11.12,0,0,0-1.56,2.71,7.46,7.46,0,0,0-.54,2.61c0-.1.05-.19.07-.28a8.08,8.08,0,0,1,0,1.66,3.63,3.63,0,0,0,0,1.38c.32-.24,1,1,1.24,1.37l-.09,0a6.35,6.35,0,0,0,1,1.13c.39.39.77.71,1.06,1l-.19.12a11.86,11.86,0,0,1,1.62,1.52c.27.35.54.81.78,1.2a2.57,2.57,0,0,0,.72.86,2.78,2.78,0,0,1-.41.57h.07l1.14-.42c.7-.24,1.66-.54,2.67-.86,2-.64,4.25-1.4,4.4-3l.22-.06a4.68,4.68,0,0,0-.27-.44c-.2-.59-.57-.67-.36-.76.13.22.27.48.4.72-.25-.56.06-.25.29-.11a3.43,3.43,0,0,1-.27-.68c-.13-.05,0,.13,0,.24-.24-.25-.65-.5-.78-.85-.33-.46.26-.25-.12-.78-1-1.38-1.87-2.33-2.39-3a6.54,6.54,0,0,1-.53-.8s0-.06,0-.06h0s0,0-.09,0-.25.14-.39.2l-.38.17-.29.12a4.5,4.5,0,0,1-.51.16l.08,0a2.43,2.43,0,0,1-.39.08s-.12,0,0,0a2.91,2.91,0,0,1,.73.14,3.12,3.12,0,0,1,.42.14l.24.08.83.36s0-.1.11-.29.06,0,0-.08c-.5-.4-.87-.66-1.23-1l-.26-.25-.21-.18-.4-.4a5.75,5.75,0,0,1-.55-.64,2.46,2.46,0,0,1-.3-.44,1.46,1.46,0,0,1-.14-.28A.48.48,0,0,1,51.36,428.73Z"/><path class="cls-2" d="M69.79,336.88a.65.65,0,0,0-.09-.41c-.07-.13,0-.09,0-.14a1.06,1.06,0,0,0-.14.21A.91.91,0,0,0,69.79,336.88Z"/><polygon class="cls-2" points="69.67 336.33 69.67 336.33 69.67 336.33 69.67 336.33"/><path class="cls-2" d="M63.09,345l.21.16A.83.83,0,0,0,63.09,345Z"/><path class="cls-2" d="M66.1,325.79h-.4c-.08-.62.43-.24.27-.8-.59-.15,0-.95-.38-1.12,0,0,0-.28.21-.28-.31-.06-.1-.28-.2-.45s-.09.05-.18.11l-.15-.4c.08-.17.25-.22.31-.05v-.44h0l-.8,0h-.07l-.19,0c-.23,0-.58,0-.76,0l-.36,0a2.16,2.16,0,0,1-.27-.05c-.33-.07-.51-.2-.36-.11a4.11,4.11,0,0,1,.89,1.1c.08.15.22.37.32.58l.35.72.06.15h.07l.2,0,.14,0h0l-.45-2,0-.05,0-.22a3.43,3.43,0,0,1-.09-.44,5.76,5.76,0,0,1-.06-1.38,1.12,1.12,0,0,1,0-.36,1.81,1.81,0,0,1,.06-.2c.07-.13,0,0-.24.17a1.41,1.41,0,0,0,.27-.23s0,0,0,0a.59.59,0,0,0,0,.08c.11-.2,0,0-.15.08a1.21,1.21,0,0,1-.23.14,4,4,0,0,1-.61.27l-.53.19c-.2.06-.3.06-.6.16s-.52.13-.75.17l-.7.13-.49.1-.24.05c-.09,0,0,0,0,0l-.18,0a1.66,1.66,0,0,1,.21.51.91.91,0,0,1,.07.28,3,3,0,0,0,0,.32,7.72,7.72,0,0,0,.13,1c.24.86.77,1.16.73,1.67,0-.07.12-.31.25-.11-.25.11.35.54.12.72.09.2.26.91.54.57-.14.16,0,.8-.28.48.05.22.06.44.19.56V327c.27.69.15,1.16.62,1.5l0-.3c.17.41.33.74.05,1l-.27-.39a5,5,0,0,0,.87,1.59l-.07-.21a28,28,0,0,1,1.63,2.33,8.42,8.42,0,0,0,1.83,2.11l.08-.42.51.39c0-.06-.94.22-.89.12.18.31.61,1,1.16,1.76s1.21,1.67,2,2.61a13.82,13.82,0,0,0,1.17,1.2l.23.23s0,0,0,0l.23-.19.25-.21.41-.34.7-.48c.17-.12.42-.22.49-.28a2.19,2.19,0,0,1,.35-.13.48.48,0,0,1,.18-.05c.09,0,0,0,.07,0h0a.25.25,0,0,1-.12,0c-.56-.27-.11,0-.1,0a3.34,3.34,0,0,1-.55-.35l-.15-.13-.13-.14a3.74,3.74,0,0,1-.33-.3,2.75,2.75,0,1,1,.23.21,4.55,4.55,0,0,1-.58-.62l-.1-.12,0,0v0h0l-.78-1h0a.11.11,0,0,0,0,.08l1.18,1.39c-.11-.12-.21-.23-.3-.35l-.06-.1,0,0h0l-.32-.39h0l-.07.05-.27.2-.12-.19c-.11.08.11.71-.35.93l-.73.47-.11.06c.06.13.14.46.18.54a3.21,3.21,0,0,1,.07.36,2.51,2.51,0,0,0-.09-.42,2.53,2.53,0,0,1,.1.43c0-.12,0,.2,0,.11v.05s0,0,0,0a1.74,1.74,0,0,1,.11-.43,1.51,1.51,0,0,1,.13-.29l.07-.18h0s-.06,0-.15.07c-.06.61-6.17,5.78-6.53,6.24-.15-.14-.3-.28-.31-.36,0,.14.22.45.43.52l.23-.21c.44.23,0,.21.35.5-.14.22-.52,0-.83-.25.25.24.4.61.69.49a.18.18,0,0,1,0,.26c0,.07-.16.07.16.38.25.14.57.27.89.42a4.47,4.47,0,0,1,1,.56l0,0a4.85,4.85,0,0,0,1.28.55,6.73,6.73,0,0,0,1.3.17c.87,0,1.69-.08,2.7-.11l-.2.11a4.37,4.37,0,0,0,1.4-.27l.76-.29a6.93,6.93,0,0,1,.72-.26c-.28.08-.57,0-.06-.27,1-.35,1.4-.84,1.94-1,.1-.18.17-.34.24-.5.28-.22.6-.49.9-.75l.19-.17.27-.23.39-.37a7.28,7.28,0,0,0,.91-1.08,6,6,0,0,0,.5-.84,6.07,6.07,0,0,0,.42-1,6.65,6.65,0,0,0,.26-2.65,6.19,6.19,0,0,0-.25-1.21,6.49,6.49,0,0,0-.37-1A7.78,7.78,0,0,0,77.81,334c-.39-.39-.69-.65-.88-.82l-.1-.07,0,0-.35-.4-.36-.45c-.24-.28-.45-.56-.63-.81-.38-.5-.65-.91-.82-1.17l.06,0a25.87,25.87,0,0,1-2.16-4c-.72-1.57-1.28-3.24-1.74-4.36a1.57,1.57,0,0,0,0-.65c0-.22-.09-.49,0-.46s-.27.08-.27,0,0-.25,0-.31,0-.12-.09-.13-.09.11-.35-1.09a8.43,8.43,0,0,0-.76-2,7.66,7.66,0,0,0-.56-.84,5.84,5.84,0,0,0-.9-.89,5.67,5.67,0,0,0-2.44-1.14,5.34,5.34,0,0,0-1.11-.13,6.64,6.64,0,0,0-.93,0l-.79.13-.45.1a11.52,11.52,0,0,0-2.11.7,8.58,8.58,0,0,0-2.46,1.6,7.68,7.68,0,0,0-1.83,2.68,8.47,8.47,0,0,0-.57,2.44c0,.31,0,.59,0,.84s0,.29,0,.41c.46.78.3,1.81.62,2.58l-.1-.07a9.62,9.62,0,0,1,.18,1.25,23.14,23.14,0,0,0,.37,2.31,16.47,16.47,0,0,0,1.13,3.6v-.15c.55.77.14.78.31,1.49.33-.24.85.34,1,.58l-.08,0c.24.35,1,1,1.29,1.59l-.22.07a5.66,5.66,0,0,1,1,1.64c.14.4.25.92.39,1.43,0,.07.14.4.22.63l.28.73.15.36.08.18a.93.93,0,0,0,.15.13c.19.17.4.34.6.49l.22.67a3.24,3.24,0,0,1,.2.64l.12,0s1.56-1.14,3.13-2.55a19.54,19.54,0,0,0,2.16-2.23,6.52,6.52,0,0,0,.72-1.08,2.89,2.89,0,0,0,.21-.49c0-.16.06-.32.14-.39l.16-.15-.07,0c0-.12-.19,0,0-.12l0,.09c0-.1.12-.13.23-.2a.21.21,0,0,1,0-.12.23.23,0,0,0-.1.1c-.08,0-.3.12-.23,0s.31-.2.31-.26,0-.06,0,0l-.16-.47-.34-.92c-.22-.58-.45-1.15-.67-1.72-.45-1.1-.88-2.11-1.31-3,.06-.08.08,0,.14,0-.33-.52-.5-1-.76-1.45a.72.72,0,0,1,.23-.31c-.07.07-.35-.55-.52-1.14A6,6,0,0,1,66.1,325.79Z"/></svg>