<svg id="Layer_1" data-name="Layer 1" xmlns="http://www.w3.org/2000/svg" viewBox="0 0 314 116"><defs><style>.cls-1{fill:#202020;}.cls-2,.cls-5{fill:none;}.cls-2,.cls-3,.cls-4,.cls-5{stroke:#000;stroke-miterlimit:10;}.cls-2,.cls-3{stroke-width:0.75px;}.cls-3,.cls-4{fill:#fff;}</style></defs><path d="M37.91,54.37a22.11,22.11,0,0,1-2.34,1.39,34.16,34.16,0,0,1-7.32,2.39c-1-.29-1.84.12-2.75,0C23,57.74,21.64,55.68,20.36,54c.13-1.32-1.31-2.26-.78-4,0-.08.37-.33.41-.41.13-.41.05-1,.17-1.35.08-.13.33-.21.41-.42s0-.37.21-.57.73-.41.78-.78c.9,0,1.48-.54,2.75-.41a17.59,17.59,0,0,0,4.93-.37c.86-.29,1.4-.91,2.38-1a9,9,0,0,1,1.77-1.15c.53-.21.66-.82,1-1.19.65,0,.57-.87,1.19-1a13.76,13.76,0,0,1,1.56-2.75c.37-1.11.78-2.14,1.19-3.17a4.66,4.66,0,0,0-1-3.73c-.16-.21-.45-.25-.41-.62a10.2,10.2,0,0,0-2.75.82c-.82.37-1.35,1-2.18,1.36a8.32,8.32,0,0,1-1.35,1c-1.32,1.48-2.92,2.59-4.15,4.15-.62-.16-.29.66-.78.58-.33.12-.33.61-.62.78-.25.86.78.45.62,1.19-.33,1-1.4,1.15-2,1.81a21.37,21.37,0,0,1-1.39,1.93c-.13.16-.46.08-.58.21s-.08.45-.2.61c-1.11,1.23-2.84,2.59-4.15,3.95-.25.24-.13.9-.37,1.19-.74.25-.83,1.15-1.61,1.35-.08,1.32-1,1.73-1.56,2.55-.7.66-1,1.65-1.77,2.18a5.63,5.63,0,0,1-.82,1.4c-.12.16-.65.53-.78.78,0,.08.08.33,0,.41a2.5,2.5,0,0,1-2.54,1c-.42-1.32.32-2.31,1-3.17.21-.29.33-.57.58-1a3.4,3.4,0,0,1,.61-.78c.08-.12.21-.53.37-.82,0,0,.37-.12.41-.16a3,3,0,0,1,.37-.78,9.27,9.27,0,0,0,1.4-2c1.15-.53,1.77-1.64,2.75-2.34.5-1.07,1.48-1.68,2-2.75a11.14,11.14,0,0,0,1.19-1.19c.37-.41.45-.95,1.19-1.2a3.16,3.16,0,0,1,1-1.56.48.48,0,0,1,.2-.2c.08-.13.08-.45.17-.58.57-.7,1.39-1.15,1.8-2,1.32-1.11,2.22-2.59,3.54-3.74a10.09,10.09,0,0,1,2-1.77,23.77,23.77,0,0,1,3-2.54c1.07-.79,2.3-1.36,3.37-2.18.7.12.94-.25,1.35-.41a5.4,5.4,0,0,1,2.76,1,8.59,8.59,0,0,1,1.19,5.55,13.76,13.76,0,0,1-.58,2,17.4,17.4,0,0,1-.61,1.77c-.54,1.27-1.4,2.18-1.77,3.16a19.14,19.14,0,0,0-1.56,1.56A9.75,9.75,0,0,0,34,45.74c-1.94.66-3.78,2-6.29,2.34-1.48.21-3-.25-4.73.21,0,.16-.57.32-.61.57s-.29.25-.37.41A7.6,7.6,0,0,0,21.56,51c0,1.4,1.06,2.5,1.39,3.53.5.25.7.74,1.36.82.08.58.94.37,1.19.78h3a16.36,16.36,0,0,1,3.74-1c.82-.49,1.72-.78,2.59-1.19a11.74,11.74,0,0,1,2.54-1.19C37.71,52.27,37.83,54.33,37.91,54.37Z"/><path d="M44,55.89c-.08-.29-1.35.33-1.39.57-1,.54-2.31.74-3.37,1.19-.21.46-.58.09-1,.21-.08,0-.49.37-.57.41-1,.17-2.1,0-3,.17-.13-.54-.83-.5-.78-1.16a3,3,0,0,1,.12-1.8,11,11,0,0,1,2.05-3c1.28-1.07,2.72-3.58,4.07-4.56.12-.46.58-.62,1-.78,0-.58.61-.58.78-1a8.68,8.68,0,0,0,1-.82c.37-.17.25-.78,1-.58.82-.08.54.91,1,1.19-.21,1.24-1.44,1.44-1.77,2.55-1,.37-1.23,1.6-2,2.18-1,.41-2,2.42-2.88,3-.49.86-1.6,1.15-1.77,2.38.82.54,2.06-.16,2.59-.61a9.7,9.7,0,0,0,3.74-1.36c1.07-.58,2.06-1,3.12-1.64.83-.33.83-.91,1.52-1.32.87-.24,1.69-1,2.72-1.07.45,1.28-.29,2.51-2.14,3.45-.29.42-.94.62-1.27,1C46.21,55.15,44.45,55,44,55.89Zm8.26-23.1a7.85,7.85,0,0,1,.62,3c-.54.7-1.93.33-2.59,0C50.24,34.07,50.24,32.42,52.25,32.79Z"/><path d="M74,49.39c-1.27.42-2.18,1.07-3.41,1.57h-.16c-.41,0-.58.32-1,.2-.08.37-.37.29-.62.54-.65.2-1.19.08-1.56.65-.86.5-3.9,1.85-4.64,2.35a17.4,17.4,0,0,0-2.92,1.11,2.83,2.83,0,0,1-1,1.35.55.55,0,0,1,.21.41c0,.41-.29.7-.21,1.19-.41,0-1.15,1.85-1.56,2.35a7.17,7.17,0,0,1-.78,2.17.6.6,0,0,0-.41.62c-.37,1.44-1.27,2.67-1.77,4.11v.16c0,.5-.69.41-.57,1a14,14,0,0,1-1.4,2.59c0,.37-2.63,4.11-3,4.93a9.18,9.18,0,0,0-1.56,2.14c-.9.74-2.09,2.26-3.16,2.59-.25.74-3.13,1.23-3.82,1.23l-.54,0a.57.57,0,0,0-.57-.41c-.7-.91-.74-2.14-1.19-3.17V78.9a16.48,16.48,0,0,0,.2-2,6.86,6.86,0,0,0,.78-2.35c1.4-2.22,2.34-4.76,4.36-6.53,0-.62.57-.82,1-1.15a12.08,12.08,0,0,1,2.55-2.8,4.1,4.1,0,0,1,1.56-1.56c1-1.52,3-2.87,4.36-4l.57-.17a17.17,17.17,0,0,0,1.81-1.4l.33-.41.45-.69a4.36,4.36,0,0,0-2.38.78c-1.11,0-2.22.41-3.33.41-.49,0-.74-.33-1.4-.21-.57-.41-1-1-1.56-1.4v-.16c0-.49-.24-.95-.24-1.44,0-1.35.78-2.46,1.23-3.7A15.39,15.39,0,0,0,51,47.3l5.14-3.12h.57C58.54,43.35,59,43,61.09,43a7,7,0,0,1,3.16.58c.33.7,1.07,1.07,1.36,1.77v1.19c0,.94-1.28,1.6-2,2-.25.45-.37.95-.58,1.4-.41.16-.58,1-.58,1.44v.16l.5.25c.29,0,.53.28.61,0a30.77,30.77,0,0,1,3.87-1.52c.24-.21.37-.21.57-.46a6.27,6.27,0,0,0,1.6-.53c.29-.49,3.91-1.6,4.65-1.6,0,0,.08,0,.08.12C74.44,48.33,73.79,48.78,74,49.39ZM47.86,65.46A15,15,0,0,1,45.31,68c-.74,1.56-2.84,4.15-4,6.12-.45.78-.32,2-1,2.59a1.4,1.4,0,0,1,.16.53V79.8c0,.41.66.08.41.66a.73.73,0,0,0,.41.12,4.58,4.58,0,0,0,1.77-.53l.21-.37c1.27-.82,2.17-1.85,3.37-2.79a24.32,24.32,0,0,1,3.12-4.52c.33-.17,0-1,.61-.79a65.28,65.28,0,0,1,4-7.89,11.46,11.46,0,0,0,1-2.26c0-1.06,1-1.84,1-3,0-.09,0-.17-.08-.17C55.58,58.31,48.1,64.68,47.86,65.46ZM60.68,45a9.27,9.27,0,0,0-3.13,1c-1.19-.12-3.57,1.89-4.76,2.35a4,4,0,0,1-1.36,1.6A5.23,5.23,0,0,1,50,51.65c-.08.74-.57,1.4-.57,2.14a2.67,2.67,0,0,0,.2.82A3.75,3.75,0,0,0,51,55c1.31,0,2.55-.94,3.78-.82a2.1,2.1,0,0,1,1.6-.57,7.75,7.75,0,0,1,2.76-2c.86-1.8,1.6-3.82,3.16-5.13a2,2,0,0,1,1.19,0v-.17C63.47,45.37,61.42,45,60.68,45Z"/><path d="M125.19,49.81c0,.08-.37,1.52-.37,1.76v0a12.48,12.48,0,0,1-3.74,2.67,25.26,25.26,0,0,0-4.19,2.63,6,6,0,0,0-2.46,1.28c-1.16.12-1.89.78-2.92.78a2.2,2.2,0,0,1-.87-.17.42.42,0,0,0,0-.24c0-.41-.46-.62-.46-1a15.59,15.59,0,0,1,.62-2c.7-.45.53-1.68,1.19-2.38a10.4,10.4,0,0,0,1.4-2.88A7.18,7.18,0,0,1,115,48a19.7,19.7,0,0,1,2-4c.17-.25,0-.82.29-.82h.12a.19.19,0,0,0,.17-.21v-.33c.62-1.27,1.64-2.34,2.38-3.57.13-.21,0-.21.17-.37a5.75,5.75,0,0,0,1.19-2.22c0-.08,0-.08-.12-.08a.89.89,0,0,0-.66.33c-.78,0-1.19,1.39-2.26,1.39a.83.83,0,0,1-.29,0c-.37.62-1.19,1-1.19,1.6a9.81,9.81,0,0,0-2.26,1.69,1.17,1.17,0,0,0,.08.29h-.12c-1,0-1.89,2.54-3.62,3a5.66,5.66,0,0,0-.78,1.35c-1.36.78-3.57,2.84-3.57,3.41v.17c-.09,0-.17,0-.25,0-.7,0-.54.9-1.11,1-.41.37-.62.58-1.19,1.15,0,.09-1.24,2.72-3.37,3.58-.25,1.15-1.23,1.72-2.18,2.34a2.22,2.22,0,0,1-2,1c-.33,0-.37-.54-.37-.74,0-.74.57-1.36.78-2,.74-.53.74-1.76,1.56-2.17a14,14,0,0,1,1.4-2.35c.08-.16.33-.08.41-.2a8.72,8.72,0,0,1,.37-1c.16-.24.62-.57.62-1v-.16c1.06-.82,1.27-2.55,2.34-3.33.86-2.38,2.54-3.65,3.16-6.12-.12.33-.94,0-1,.37v.16c0,.54-.65.37-1,.66s-.9.9-1.4,1.36c-.74.7-.7.33-1.15.61-.25.13-.45.74-.82,1-.16.12-.41,0-.58.16s-.24.5-.41.62-.41,0-.57.21c-.62.53-1,1.31-1.77,1.76-1.07.45-1.64,2-2.75,2.34-.78,1.48-2.43,2.22-3.17,3.58-.61.12-.53.9-1.19,1v.12c0,.86-.82.94-1,1.64s-1,.91-1,1.77c-.58,0-.45.62-1,.62,0,.08,0,.12,0,.16,0,.53-.86.74-.86,1.11,0,.12,0,.25,0,.37a2.84,2.84,0,0,1-2.42,1.73c-.62,0-.7-1-.7-1.24a4.54,4.54,0,0,1,.16-1c.09-.33.78-.78.78-1.52v-.25c1-.08.87-1.23,1.57-1.56,0-.08,0-.21,0-.29A1.12,1.12,0,0,1,87,54c.2-.21.33-1.11.57-1.56s.58-.79.82-1.2c1.69-3.78,4.07-6.86,5.51-10.84a11.51,11.51,0,0,0,1.56-5.51c0-1.23-1.48-1.56-2.34-2a7.67,7.67,0,0,1-.82,0c-.21,0-.29,0-.41,0-.33,0-2.06.53-3.21.74-1.31.24-2,.16-3.53.37a15.58,15.58,0,0,1-3.25.78,1.29,1.29,0,0,0-.53-.17c-.13,0-.29,0-.5,0-.57,0-.45-.41-.45-.78s0-.7.45-.7a1.26,1.26,0,0,1,.37,0c0-.69,2.31-1.06,3.54-1.19,1-.08,1.31-.08,2.3-.2C88.41,31.64,89.65,31,91,31c.5,0,1,0,1.52,0A8.79,8.79,0,0,0,94,30.9a4.78,4.78,0,0,1,1.28.41.54.54,0,0,0,.57.42,4.29,4.29,0,0,0,1.4,1.56c.08.9.16,1.64.16,2.38a7.42,7.42,0,0,1-.57,3.12c-.12.21-.45,0-.45.37s.08.37.08.54-.62,1.72-1.19,1.89a7,7,0,0,1-1.4,3.33c-.45.82-2,2.75-2,3.24,0,0,0,.08,0,.13,0,.61-.86.65-.86,1.52,0,.12,0,.37.16.37s.41-.62.86-.7c.09-.58.83-.5,1-1a10.81,10.81,0,0,0,2-2c1.19-.21,2.34-2.47,4.15-3.58.13-.74,1.4-1.19,2.14-1.76.41-.29.57-.66,1-1,.24-.16.57,0,.82-.21s.08-.53.37-.57c1.8-.66,2.59-2.79,4.72-3,.7.12.7.86,1.19,1.19-.16,1.73-1.64,4.69-2.34,4.73a.36.36,0,0,0,0,.2c0,.17,0,.33,0,.46,0,.32-.37.32-.41.53a8.22,8.22,0,0,1-.41,1.15c-.12.29-.58.53-.78.82s-.08.82-.45.82a.18.18,0,0,1-.13,0c-.41,1.65-1.64,2.43-2.17,3.95.74-.08.94-.74,1.39-1.19s1-.62,1.15-1.4c0,0,2-1,2-2,1.15-.29,1.15-1.36,2.17-1.57a10.26,10.26,0,0,1,2.59-2.54c.58-.21.62-.87,1.15-1.19,1-.66,1.94-1.89,3.58-3,.78-.62,1.56-1.36,2.34-2,.54-.41.95-.69,1.6-1.19,1.15-.9.58-.78,1-1.19.12-.12.45-.08.58-.2a11.31,11.31,0,0,1,1.19-1c.57-.33,1.11-1.64,2-1.64.45,0,1,.28,1,1.15a2.25,2.25,0,0,1-.79,1.68v.12c0-.37-.69,1.81-1.39,1.85a38,38,0,0,1-2.55,4.36c-1.64,2.92-4.36,6.78-5.55,10.11-.37,0-.29.45-.65.45-.05,0-.09,0-.13,0-.16.57-.24,1.19-.82,1.35a2.33,2.33,0,0,1-.37,1.4v.08a2.46,2.46,0,0,1-1,1.11c0,.17,0,.29,0,.41,0,.58-.2,1-.24,1.57,1.85-.29,6-3,7.48-3.54.24-.41,1.11-.57,1.64-1.11A27,27,0,0,0,125.19,49.81Z"/><path d="M148.16,51.86c-.7.37-1.48,1.4-2.13,1.73s-.54.61-1.24,1-1.23.91-1.93,1.28a10.85,10.85,0,0,0-1.19.37c-.41.24-.49.45-1,.41-.69.7-2,.49-2.54,1.31-1.44.17-2.43.08-3.78.33,0-.41-.83-.08-1.15-.21,0-.49-.79-.28-.83-.78-.37,0,0-.86-.57-.78-.58-.08-.74.5-1.19.58a9.5,9.5,0,0,0-2,1c-.28.21-1.35.42-2,.83a8.23,8.23,0,0,1-2.55.57,1,1,0,0,0-1-.2,3.77,3.77,0,0,1-1-3.95,4.78,4.78,0,0,0,1-2.18c.61-.53,1-1.35,1.56-2,1-1.23,2.3-2.18,3.37-3.33a5.06,5.06,0,0,0,1.77-1.6c1,0,1.31-.78,2-1.15s1.77-.49,2.18-1.19c1.8-.25,3-1.15,4.72-1.4,1.44.29,2.06,1.73,1.56,3.37-.32.37-.57.82-1.15,1,.09.41-.41.28-.41.57s-.49.17-.78.21c-.74-1,.54-1.48.58-2.39-1-.49-1.69.42-3,.21a12.23,12.23,0,0,1-2,.78c-.58.33-.91.86-1.57,1-1.11.65-1.84,1.72-3.16,2.17a20.79,20.79,0,0,1-1.77,2.18c-.49.17-.61.7-1,1s-.41.9-1,1c-.33,1.28-1.07,2.06-1.19,3.54,1.19.7,2.26-.33,3.37-.37,0-.37.33-.25.57-.41s.37-.25.58-.37c.37-.21,1.23-.21,1.19-.82a1.52,1.52,0,0,0,1.19-.21c.45,0,.37-.66,1-.57.16-.83.7-1.28.78-2.18.41-.45,1-.74,1-1.56,1.6-.54,1.64-2.59,3.94-2.39.49.21.49.87.78,1.19.12,1.24-.94,1.28-1,2.39A4.11,4.11,0,0,0,136,53.34a3.38,3.38,0,0,0-1.19,1c-.29.28-1.07.41-.78,1.19-.21.7.86.2,1,.57a5.69,5.69,0,0,1,1.19-.16c.66-.21,1.16,0,1.77-.37s1.36-.49,2-.78c1.2-.54,2.35-1,3.54-1.56a5.57,5.57,0,0,1,1.64-1.2c.82-.45,1.52-1,2.47-1.56C147.55,50.46,148,51.9,148.16,51.86Z"/><path d="M161.31,55.27c-1,.45-1.43,1-2.09,1.32a11.1,11.1,0,0,1-1.77,1,4,4,0,0,0-.86.37c-.25.08-.29.25-.78.37-.25.09-1,.33-1.36.41-.62.17,0-.12-.82.09a3.31,3.31,0,0,0-1.19.41c-.86-.37-2.34-.17-3.54-.21-.24-.41-.86-.45-1.39-.61-.5-.83-1.56-1.57-1.77-3a7.61,7.61,0,0,1,.41-3.13c.49-1,.78-2.83,1.36-3.37,1-1.6,1.64-3.53,2.79-4.93-.29-.33-1-.28-1.6-.2-.45.08-1.44.28-2.34.41-1.28.12-3,.74-3.37-.62-.09-.78,1-.41,1.39-.78s1.28-.16,1.57-.57c2.05-.13,3.94-.41,5.91-.62a1.37,1.37,0,0,0,.78-.58c.13-.16.09-.41.21-.57.29-.37,1.15-1,1.56-1.6.82-1,1.44-2.1,2.18-3.17.7-.49.61-1.72,2-1.56.82,0,.16,1.4.62,1.77-1,1.93-2.72,3.08-3.37,5.34.08.41,1,.08,1.39.2,4.57-.41,9.41-.61,14-1,.49.25,1.19.57.69,1.19-1,.08-1.89.21-1.84.17-1.15-.05-1.9.32-3.17.2-.86.49-1.64.16-2.75.58a5.55,5.55,0,0,1-2-.17c-1.36.62-1.44,0-2.8.37a1.36,1.36,0,0,1-1.15,0,4.77,4.77,0,0,1-1.19.41c-.49.08-1.48-.82-2.18,0,0,.41-.7.08-1,.21-.45,1.15-1.52,1.72-2,3-1,.69-.9,1.89-2,2.54,0,.54-.53.78-.78,1.2s-.29,1.06-.78,1.35c-.25,1.56-.91,2.84-.21,4.36a4.19,4.19,0,0,0,1.19.78c.17,0,.13.16.17.2,1.31.62,3.12,0,4.56-.2a5.47,5.47,0,0,0,2.26-.91s1.11-.57,1.15-.57c.33-.17.58-.45,1-.62a11.82,11.82,0,0,1,1.19-.2c.2-.46.94-.33,1.52-.41C161.72,54.45,160.94,54.82,161.31,55.27Z"/><path d="M183.17,52.31c-.28.95-2.46,2.43-3.45,2.63-.57.33-1.27.7-1.89,1-.08,0-.33.45-.37.45-.41.12-1.07.16-1.19.74-.82-.25-.78.41-1.4.37-.65.45-1.68.53-2.26,1.11-.32.12-1.15-.25-1.15.2s-.94,0-1,.37a9.41,9.41,0,0,0-3.58.54,28.32,28.32,0,0,1-4.72-.21,5.38,5.38,0,0,0-2-1.19c-.12-.57-.24-1.19-.78-1.4,0-1.31-.24-1.15-.12-2.54.08-.83.78-2,.95-2.8,1.1-1.19,1.89-2.71,3.12-3.74,2.22-2.17,5-4.72,9.49-3.94a17.26,17.26,0,0,1,1.77,4.93c-.41,0-.09.7-.21,1-.53.49-1.52,1.6-2.75.57a8.18,8.18,0,0,1,0-1c.12-.65.86-1.06.78-2.17a3.81,3.81,0,0,0-.37-1.15,2.67,2.67,0,0,0-3-.21c.21.41.21.41-.2.21s-.29.33-.42.37-.41,0-.57,0-.49.57-1,.41c-.12.28-.53.37-.78.57s-.12.95-.78.62c0,.66-.45.86-.82,1.19-.21,1-1.4,1-1.56,2.14-.5.12-.7.49-1,.78-.41,1.6-1.39,1.81-.82,3.78a3.79,3.79,0,0,0,2.55,2c2.18-.12,4.56,0,6.12-.78.62-.25,1.44-.29,2-.58,1.4-.32,2.35-1.39,3.74-1.72a26.7,26.7,0,0,1,3.58-1.69c1.11-.57,2-1.72,3.2-2.17C183.05,50.55,183.71,50.55,183.17,52.31Z"/><path d="M194.56,44.18c-1.77.45-2.26,2.22-4.15,2.54a18.9,18.9,0,0,1-2.18,2.59c-.17.13-.49.13-.78.37a10.76,10.76,0,0,1-1.77,1.6c-.53.91-1.64,1.24-1.77,2.55-1.19.33-1.68,1.52-2.38,2.39-.29.37-1,.78-1,1.19s-1.15,1.35-1.23,1.35c-.66,0-.7.62-1.39.62-.38,0-.54-.82-.54-1.23,0-1.4,1.4-2.18,2-3.33.82-1,1.52-3.12,2.18-3.17.08-.45.21-.82.62-1a56.76,56.76,0,0,1,4.52-5.92c.78-.33.78-1.44,1.56-1.77,1.23-1.43,2.3-2.83,3.94-4.72.17-.17.5-.25.62-.41s0-.41.16-.58c.54-.57,1.28-1,1.81-1.56s1-1.36,1.56-2A45.53,45.53,0,0,1,201.67,29a.62.62,0,0,0,.41.17c.24,0,.49-.13.7-.13s.45,0,.45.33c0,.86-.7,1-1,1.6-1,.46-.78,2.06-2.55,2.18-.53.78-2.46,2.51-2.46,2.67l-.17,0c-.08,0-.37,0-.37.25s.05.2.05.25S194.39,39,193.82,39c-.17,0-.17.49-.25.62s-.62.28-.62.41.05.2.05.28-1,.25-1,.91c0,.08,0,.12,0,.16a1.55,1.55,0,0,0-1,1.19c-1.11.17-1.07,1.52-2.13,1.77a4.91,4.91,0,0,1-1.77,2.75c-.37.17-.62.29-.62.79a.87.87,0,0,0,.25.08,13.25,13.25,0,0,0,3.12-2.84.39.39,0,0,0,.21,0c.57,0,.78-1,1.35-1s1.07-1,1.77-1.2c1.15-.61,1.93-1.64,3.37-2a14.19,14.19,0,0,0,1,1.19c-.05.91-.78,1.4-.78,1.93,0,.7-1.65,2.43-1.81,2.59a5.41,5.41,0,0,0-1.15,2c-.91.45-1.07,2-2.18,2.95-.62,1.11-1.28,2.18-2,3.17a.53.53,0,0,0-.09.2c0,.25.25.42.25.5s0,.08-.16.08a1.62,1.62,0,0,0-.42.62,1.38,1.38,0,0,0,1.32.65c.58,0,1.07-.16,1.73-.16a17.07,17.07,0,0,1,2.21-.9c.95-.29,1.73-1.2,2.8-1.65a6.35,6.35,0,0,0,1.93-1.4,5.33,5.33,0,0,1,2.1-1.39.9.9,0,0,1,.78.9c0,1.19-1.69,2.06-2.55,2.8a6.49,6.49,0,0,1-1.93,1.27c-2.34,1-4.89,2.51-7.77,2.51-1.27,0-2.63-.33-2.63-1.65,0-.86.25-1.35.25-2.38.57-.12.33-1.11,1-1.19a.27.27,0,0,1,0-.17c0-.74.91-1.31,1.24-1.81s0-.94,1.19-2c.29-1.07,1.19-1.56,1.56-2.55C193.08,46.35,194.56,44.63,194.56,44.18Z"/><path d="M256,49.81c0,.08-.37,1.52-.37,1.76v0a12.48,12.48,0,0,1-3.74,2.67,25.26,25.26,0,0,0-4.19,2.63,6.05,6.05,0,0,0-2.47,1.28c-1.15.12-1.89.78-2.91.78a2.2,2.2,0,0,1-.87-.17.42.42,0,0,0,.05-.24c0-.41-.46-.62-.46-1a15.59,15.59,0,0,1,.62-2c.7-.45.53-1.68,1.19-2.38a10.4,10.4,0,0,0,1.4-2.88A7.18,7.18,0,0,1,245.8,48c.16-1,1.56-3.21,2-4,.17-.25,0-.82.29-.82h.12a.19.19,0,0,0,.17-.21v-.33C249,41.3,250,40.23,250.77,39c.12-.21,0-.21.17-.37a5.75,5.75,0,0,0,1.19-2.22c0-.08,0-.08-.13-.08a.88.88,0,0,0-.65.33c-.78,0-1.19,1.39-2.26,1.39a.8.8,0,0,1-.29,0c-.37.62-1.19,1-1.19,1.6a9.81,9.81,0,0,0-2.26,1.69,1.17,1.17,0,0,0,.08.29h-.12c-1,0-1.89,2.54-3.62,3a5.66,5.66,0,0,0-.78,1.35c-1.36.78-3.58,2.84-3.58,3.41v.17c-.08,0-.16,0-.24,0-.7,0-.54.9-1.11,1-.41.37-.62.58-1.19,1.15,0,.09-1.24,2.72-3.37,3.58-.25,1.15-1.24,1.72-2.18,2.34a2.22,2.22,0,0,1-2,1c-.33,0-.37-.54-.37-.74,0-.74.57-1.36.78-2,.74-.53.74-1.76,1.56-2.17a14,14,0,0,1,1.4-2.35c.08-.16.33-.08.41-.2a8.72,8.72,0,0,1,.37-1c.16-.24.61-.57.61-1v-.16c1.07-.82,1.28-2.55,2.35-3.33.86-2.38,2.54-3.65,3.16-6.12-.12.33-.95,0-1,.37v.16c0,.54-.65.37-1,.66s-.91.9-1.4,1.36c-.74.7-.7.33-1.15.61-.25.13-.45.74-.82,1-.17.12-.41,0-.58.16s-.24.5-.41.62-.41,0-.57.21c-.62.53-1,1.31-1.77,1.76-1.07.45-1.64,2-2.75,2.34-.78,1.48-2.43,2.22-3.17,3.58-.61.12-.53.9-1.19,1v.12c0,.86-.82.94-1,1.64s-.94.91-1,1.77c-.58,0-.45.62-1,.62,0,.08,0,.12,0,.16,0,.53-.86.74-.86,1.11,0,.12,0,.25,0,.37a2.84,2.84,0,0,1-2.42,1.73c-.62,0-.7-1-.7-1.24a4.54,4.54,0,0,1,.16-1c.08-.33.78-.78.78-1.52v-.25c1-.08.87-1.23,1.57-1.56,0-.08,0-.21,0-.29a1.13,1.13,0,0,1,.46-.9c.2-.21.32-1.11.57-1.56s.58-.79.82-1.2c1.69-3.78,4.07-6.86,5.51-10.84a11.51,11.51,0,0,0,1.56-5.51c0-1.23-1.48-1.56-2.34-2a7.67,7.67,0,0,1-.82,0c-.21,0-.29,0-.41,0-.33,0-2.06.53-3.21.74-1.31.24-2.05.16-3.53.37a15.58,15.58,0,0,1-3.25.78,1.29,1.29,0,0,0-.53-.17c-.13,0-.29,0-.5,0-.57,0-.45-.41-.45-.78s0-.7.45-.7a1.26,1.26,0,0,1,.37,0c0-.69,2.3-1.06,3.54-1.19,1-.08,1.31-.08,2.3-.2,1.31-.17,2.55-.82,3.86-.82.49,0,1,0,1.52,0a8.79,8.79,0,0,0,1.56-.13,4.89,4.89,0,0,1,1.28.41.54.54,0,0,0,.57.42,4.29,4.29,0,0,0,1.4,1.56c.08.9.16,1.64.16,2.38a7.42,7.42,0,0,1-.57,3.12c-.13.21-.45,0-.45.37s.08.37.08.54-.62,1.72-1.19,1.89a7.09,7.09,0,0,1-1.4,3.33c-.45.82-2,2.75-2,3.24,0,0,0,.08,0,.13,0,.61-.87.65-.87,1.52,0,.12.05.37.17.37s.41-.62.86-.7c.08-.58.82-.5,1-1a10.81,10.81,0,0,0,2-2c1.19-.21,2.34-2.47,4.15-3.58.12-.74,1.4-1.19,2.14-1.76.41-.29.57-.66,1-1,.25-.16.58,0,.83-.21s.08-.53.37-.57c1.8-.66,2.58-2.79,4.72-3,.7.12.7.86,1.19,1.19-.16,1.73-1.64,4.69-2.34,4.73a.36.36,0,0,0,0,.2c0,.17,0,.33,0,.46,0,.32-.37.32-.41.53a9.73,9.73,0,0,1-.41,1.15c-.12.29-.58.53-.78.82s-.08.82-.45.82a.17.17,0,0,1-.13,0c-.41,1.65-1.64,2.43-2.17,3.95.73-.08.94-.74,1.39-1.19s1-.62,1.15-1.4c0,0,2-1,2-2,1.15-.29,1.15-1.36,2.17-1.57a10.26,10.26,0,0,1,2.59-2.54c.58-.21.62-.87,1.15-1.19,1-.66,1.93-1.89,3.58-3,.78-.62,1.56-1.36,2.34-2,.53-.41.94-.69,1.6-1.19,1.15-.9.58-.78,1-1.19.12-.12.45-.08.57-.2a12.88,12.88,0,0,1,1.2-1c.57-.33,1.11-1.64,2-1.64.45,0,1,.28,1,1.15a2.28,2.28,0,0,1-.78,1.68v.12c0-.37-.69,1.81-1.39,1.85a38,38,0,0,1-2.55,4.36c-1.65,2.92-4.36,6.78-5.55,10.11-.37,0-.29.45-.66.45,0,0-.08,0-.12,0-.16.57-.25,1.19-.82,1.35a2.33,2.33,0,0,1-.37,1.4v.08a2.53,2.53,0,0,1-1,1.11c0,.17,0,.29,0,.41,0,.58-.2,1-.24,1.57,1.85-.29,6-3,7.48-3.54.24-.41,1.11-.57,1.64-1.11A27,27,0,0,0,256,49.81Z"/><path d="M271.07,54c-.61,1-6.08,4.23-9.16,4.43a10.6,10.6,0,0,1-6.53-1.52c-.95-.12-1.28-1.23-1.2-2a6.33,6.33,0,0,1-.16-2.79s.16-.09.16-.21c.13-.41.78-2.38,1.28-2.59.2-.57.41-1.19,1-1.39.46-1.11,1.56-1.61,2.14-2.55a9.09,9.09,0,0,0,3-1.81c1.44.12,2-.62,3.37-.58a1.8,1.8,0,0,1,.57,1.77c0,.33-.08.25-.16.41s-.08,1-.41,1.36c0,1.6-1.52,3.37-1.65,4.81-.57.28-1,1.15-1.35,1.6s-1,.61-1.19,1.15c-1,.33-1.44,1.07-2.39,1.4a5.91,5.91,0,0,0,2.18.94h.41a16,16,0,0,0,7.15-2.75,9.31,9.31,0,0,1,1.56-.86,6.78,6.78,0,0,1,1.57-.54A8,8,0,0,1,271.07,54Zm-9.32-8.22c-1.2.66-1.85,1.89-3,2.38-.74,1.36-2.59,3.7-2.63,5.79a3.43,3.43,0,0,0,1.6-.41,7.89,7.89,0,0,0,1.19-.78c1.23-1,2.84-3.82,3.58-5a3.7,3.7,0,0,0,.82-2c0-.13,0-.37-.21-.37C262.61,45.74,262.07,45.57,261.75,45.74Z"/><path class="cls-1" d="M247.19,76.68Z"/><path class="cls-1" d="M128.82,69.15h-.11l-.24.06Z"/><path class="cls-1" d="M110.41,72.22l-.11,0S110.3,72.29,110.41,72.22Z"/><path class="cls-1" d="M172.54,72.36l.33,0Z"/><path class="cls-1" d="M282.16,74.18h0Z"/><path class="cls-1" d="M281.78,74.27c-.42,0,.11,0,.3-.08-.47,0-.93.1-1.4.17C280.69,74.39,281.57,74.27,281.78,74.27Z"/><path class="cls-1" d="M274.36,51.38l.19-.05Z"/><path class="cls-1" d="M170.85,70.65l.29,0Z"/><path class="cls-1" d="M284.49,51.34l.12,0C284.51,51.32,284.49,51.33,284.49,51.34Z"/><path class="cls-1" d="M128.47,69.21l-.13,0Z"/><path class="cls-1" d="M112,82s0,0,.09,0h0Z"/><path class="cls-1" d="M200.82,85.75l0,0-.36,0Z"/><path class="cls-1" d="M136.14,82.72h.08c-.41,0-1.5-.06-2.9-.09l-.09.06Z"/><path class="cls-1" d="M162.56,84.89,160,84.68c8.28.23,12.13.49,19.22.69h-.4c1,.08,1.63-.2,13,.68v0a10.79,10.79,0,0,1,1.18.06L191,86c1.18,0,2.21,0,3.78.09a1.32,1.32,0,0,1,.48.09l3.85.19,1.18.14a20.71,20.71,0,0,1,3.8.12c-1.18-.19,1.56,0,1.18,0l.8.1c1.87.11,5.4.33,6.27.35l-9.26-1c2.63.2.69,0,.18,0l-.18,0c-1.58-.12-1.58-.19-2.37-.26,0,0,0,0,.05,0h.1c.07,0,0,0-.05,0s-.06,0-.49,0h.08l-2.29-.14v-.06c-1.18,0-7.87-.59-9.44-.67s-3.55-.15-5.52-.28a27.87,27.87,0,0,1-3.15-.27c-2-.12.4.09-.39.06l-2.36-.19c1.37,0,.63,0,.38,0-2-.1-5.27-.33-5.9-.23-2.76-.16-2.76-.21-3.94-.26.39,0,1.18.08,1.18.11-1.1-.1-.52,0-.07,0-1.69,0-8.74-.52-9.1-.4v0c-.39.09.23.2-1,.22l-.78-.07h-1.18c-.8-.05-.41-.07-.41-.08-1.92,0-4.61-.15-6.94-.23l2.46.34c-2-.12-5.51-.35-5.91-.27l-1.18-.12a37,37,0,0,0-4.33-.09l-2-.15,2,0-4.33-.26h0a.51.51,0,0,1,.19,0h-.27a21.42,21.42,0,0,1-2.66,0c-2-.06-3.52,0-6.67-.2l-.79.08-2.36-.1v-.08l9.66.18.05,0-4.94-.09c-.57,0-2-.14-1-.17l-1.09,0c-5.9-.11-5.94-.1-12.09-.31l.53.05h-1.72a5.68,5.68,0,0,1-1-.11,8.8,8.8,0,0,1-4.63-1.79,3.81,3.81,0,0,1-1.6-3.21l-.06-.42a6.17,6.17,0,0,1,1.92-2.81L108.8,73c.37-.21.76-.42,1.29-.67h0l.21-.08h0c1.08-.44,1.07-.45,1.1-.49s.08-.1,1.37-.49c.83-.22.88-.4,2.16-.72a11.79,11.79,0,0,1,1.33-.17l2.7-.5c.83-.15,1.79-.35,3.53-.52s2.5,0,1.4.13a24.79,24.79,0,0,1,2.71-.32c.32,0,.1,0-.34.13,1.8-.07,1.11-.1,2.47-.16a6.4,6.4,0,0,1,1.29-.29h-.53a45.05,45.05,0,0,1,4.71-.08l-.06,0h1.79l.11.07,2.56,0-.35,0c.61,0,2.58.07,3.71.17l-.05,0c1.59.13,3,.21,4.56.32s3.11.17,5,.36l-.5,0c1.26.2.36-.07,1.87.12l.06.09a13.42,13.42,0,0,1,2.63.33l-.42-.16,1.72.23c1.89.27,1.15.28.86.31l1.3.06.24.13c1,0,.94.13,2.61.27.13.06-.29,0,.27.11l2.75.2-1.66-.14.22-.12c1.73.11,2.32.31,3.55.42l-.85-.06c2,.21,2.11.29,3.23.46-.35-.07-.88-.18-.06-.1.59.07.31.09.87.17a14.35,14.35,0,0,1,2.89.23.27.27,0,0,1-.13,0,8.6,8.6,0,0,1,1.08.11l-.35.06,1.12,0a15.65,15.65,0,0,1,1.73.22l-.43,0c1.87.24,3.75.42,5.63.63l.07.09c.57-.06,3.06.36,2.89.2,1,.19,4.19.33,3.55.44,3.7.37,5.72.38,10.22.82,1.59.29,6,.54,8.89.76,5.67.28,9.33.44,15.13.62,3.48.33,8.7.22,12.45.37l1-.07c2.49.17,6.3,0,9.8.1l1.51-.06a1.28,1.28,0,0,1-.48-.07c1,0,3,0,2.88,0l-.25,0c-.15.1,3-.12,4.15-.07l-.62-.09,1.9,0-.51,0c8.21-.55,11.95-.43,19.63-1.36-1,.21,1.51-.21,1.62-.1a35,35,0,0,0,5.17-.7l.11,0c.92-.12,1.85-.24,2.77-.38-1.63.41,2-.43.47-.07a92.23,92.23,0,0,0,12-2.39,30.7,30.7,0,0,0,6.27-2.33,8.68,8.68,0,0,0,1.47-1A11.59,11.59,0,0,0,305,67a6.32,6.32,0,0,0,1.61-3.13l-.13.41a5,5,0,0,0-.58-3.72,11.19,11.19,0,0,0-2.06-2.46,15.4,15.4,0,0,0-3.65-2.28c-1.63-.78-3.11-1.48-2.39-1.19a63.83,63.83,0,0,0-6.1-1.92,24.45,24.45,0,0,0-3.88-.85c-1.69-.28-3.29-.42-3.32-.51h0a37.4,37.4,0,0,0-10.29.08l.19,0c-2.43.57-5,1.45-6.67,3.33a7.56,7.56,0,0,1,2-.82,16.09,16.09,0,0,1,6-1.28,38.17,38.17,0,0,1,8.48,0,52.15,52.15,0,0,1,8.39,1.59,38.68,38.68,0,0,1,6.32,2.46A15.3,15.3,0,0,1,304,60.54a3.9,3.9,0,0,1,1,3.17,7.19,7.19,0,0,1-2.67,3.59,4.73,4.73,0,0,1-.8.49,14.29,14.29,0,0,1-1.81.84,38.75,38.75,0,0,1-3.9,1.3A120.55,120.55,0,0,1,279.41,73c-.78.14-1.58.26-2.37.39-6.57.58-15,1.36-22.14,1.46l-.15.1a17.89,17.89,0,0,1-2.36,0,480.5,480.5,0,0,1-54.7-1.67c-1.62-.2-6.54-.57-7.79-.77-2.73-.19-5.54-.42-8.34-.71s-5.6-.58-8.31-.9h.2l-2.56-.27c-.11,0-.12,0,0,0-2.9-.25-7.42-.93-11-1.39l.21,0a203.24,203.24,0,0,0-30.47-1.84,72.76,72.76,0,0,0-15.07,1.76,22.24,22.24,0,0,0-7.25,3,7.44,7.44,0,0,0-2.78,3.17A4.85,4.85,0,0,0,105,79.8a7.63,7.63,0,0,0,3.07,2.68,11.2,11.2,0,0,0,4,1.11c.71.06,1.35.07,2,.08l2,0,4,.06c5.36.08,10.9.19,16.39.38C138.35,84.28,160.59,84.83,162.56,84.89Z"/><path class="cls-1" d="M195.27,86.15h-.08S195.32,86.18,195.27,86.15Z"/><polygon class="cls-1" points="149.39 83.19 149.54 83.2 148.99 83.12 149.39 83.19"/><path class="cls-1" d="M178.83,84.19c-1.33-.07-1.39-.06-1.2,0C178.1,84.18,178.52,84.19,178.83,84.19Z"/><path class="cls-1" d="M206.06,86.7c.69,0,.43,0,0,0l-1.2-.07Z"/><path class="cls-1" d="M203.27,86l.21,0C203.07,85.92,203.09,85.93,203.27,86Z"/><rect class="cls-2" x="226.44" y="88.45" width="2.04" height="1.66" rx="0.67" transform="translate(9.46 -21.11) rotate(5.43)"/><path class="cls-3" d="M230.69,89,229,87.78a.71.71,0,0,0-1.11.51l-.2,2a.71.71,0,0,0,1,.71l1.87-.86A.7.7,0,0,0,230.69,89Z"/><rect class="cls-3" x="214.03" y="86.71" width="11.99" height="3.73" rx="0.67" transform="translate(9.36 -20.41) rotate(5.43)"/><rect class="cls-4" x="194.2" y="83.97" width="20.26" height="6.22" rx="1.5" transform="translate(9.15 -18.93) rotate(5.43)"/><rect class="cls-5" x="210.43" y="85.02" width="0.53" height="5.33" rx="0.21" transform="translate(9.24 -19.53) rotate(5.43)"/></svg>